SplineFontDB: 3.0
FontName: ayanna-tamil
FullName: ayanna-tamil
FamilyName: ayanna-tamil
Weight: Book
Copyright: Licensed under the SIL Open Font License 1.1 (see file OFL.txt)
Version: 
ItalicAngle: 0
UnderlinePosition: -392
UnderlineWidth: 24
Ascent: 819
Descent: 205
InvalidEm: 0
LayerCount: 2
Layer: 0 0 "Back" 1
Layer: 1 0 "Fore" 0
XUID: [1021 59 -1845969167 7466407]
FSType: 0
OS2Version: 3
OS2_WeightWidthSlopeOnly: 0
OS2_UseTypoMetrics: 1
CreationTime: 1316601550
ModificationTime: 1433662350
PfmFamily: 17
TTFWeight: 400
TTFWidth: 5
LineGap: 0
VLineGap: 0
Panose: 2 0 6 0 0 0 0 0 0 0
OS2TypoAscent: 1400
OS2TypoAOffset: 0
OS2TypoDescent: -648
OS2TypoDOffset: 0
OS2TypoLinegap: 20
OS2WinAscent: 866
OS2WinAOffset: 0
OS2WinDescent: 363
OS2WinDOffset: 0
HheadAscent: 866
HheadAOffset: 0
HheadDescent: -380
HheadDOffset: 0
OS2SubXSize: 861
OS2SubYSize: 799
OS2SubXOff: 0
OS2SubYOff: 246
OS2SupXSize: 861
OS2SupYSize: 799
OS2SupXOff: 0
OS2SupYOff: 615
OS2StrikeYSize: 61
OS2StrikeYPos: 307
OS2CapHeight: -1
OS2XHeight: -1
OS2Vendor: 'ACE '
OS2CodePages: 00000001.00000000
OS2UnicodeRanges: 80108003.00002042.00000000.00000000
Lookup: 4 0 0 "'akhn' Akhand lookup 0" { "'akhn' Akhand lookup 0 subtable"  } ['akhn' ('taml' <'dflt' > 'tml2' <'dflt' > ) ]
Lookup: 4 0 0 "'abvs' Above Base Substitutions lookup 1" { "'abvs' Above Base Substitutions lookup 1 subtable"  } ['abvs' ('taml' <'dflt' > 'tml2' <'dflt' > ) ]
Lookup: 6 0 0 "'abvs' Above Base Substitutions lookup 2" { "'abvs' Above Base Substitutions lookup 2 subtable"  } ['abvs' ('taml' <'dflt' > 'tml2' <'dflt' > ) ]
Lookup: 4 0 0 "'psts' Post Base Substitutions lookup 3" { "'psts' Post Base Substitutions lookup 3 subtable"  } ['psts' ('taml' <'dflt' > 'tml2' <'dflt' > ) ]
Lookup: 4 0 0 "'psts' Post Base Substitutions lookup 4" { "'psts' Post Base Substitutions lookup 4 subtable"  } ['psts' ('taml' <'dflt' > 'tml2' <'dflt' > ) ]

StartChar: tml_Visarga
Encoding: 2 2947 0
Width: 803
Flags: HMW
LayerCount: 2
Back
Fore
SplineSet
279 676 m 1
 279 709.333333333 291.166666667 738.166666667 315.5 762.5 c 128
 339.833333333 786.833333333 368.666666667 799 402 799 c 256
 435.333333333 799 464.166666667 787 488.5 763 c 128
 512.833333333 739 525 710 525 676 c 0
 525 642.666666667 512.833333333 613.833333333 488.5 589.5 c 128
 464.166666667 565.166666667 435.333333333 553 402 553 c 256
 368.666666667 553 339.833333333 565.166666667 315.5 589.5 c 128
 291.166666667 613.833333333 279 642.666666667 279 676 c 1
 279 676 l 1
328 676 m 1
 328 655.333333333 335.166666667 637.833333333 349.5 623.5 c 128
 363.833333333 609.166666667 381.333333333 602 402 602 c 256
 422.666666667 602 440.166666667 609.166666667 454.5 623.5 c 128
 468.833333333 637.833333333 476 655.333333333 476 676 c 256
 476 696.666666667 468.833333333 714.166666667 454.5 728.5 c 128
 440.166666667 742.833333333 422.666666667 750 402 750 c 256
 381.333333333 750 363.833333333 742.833333333 349.5 728.5 c 128
 335.166666667 714.166666667 328 696.666666667 328 676 c 1
 328 676 l 1
33 111 m 1
 33 144.333333333 45.1666666667 173.166666667 69.5 197.5 c 128
 93.8333333333 221.833333333 122.666666667 234 156 234 c 256
 189.333333333 234 218.166666667 221.833333333 242.5 197.5 c 128
 266.833333333 173.166666667 279 144.333333333 279 111 c 256
 279 77.6666666667 267 48.8333333333 243 24.5 c 128
 219 0.166666666667 190 -12 156 -12 c 0
 122.666666667 -12 93.8333333333 0 69.5 24 c 128
 45.1666666667 48 33 77 33 111 c 1
 33 111 l 1
82 111 m 1
 82 90.3333333333 89.1666666667 72.8333333333 103.5 58.5 c 128
 117.833333333 44.1666666667 135.333333333 37 156 37 c 256
 176.666666667 37 194.166666667 44.1666666667 208.5 58.5 c 128
 222.833333333 72.8333333333 230 90.3333333333 230 111 c 256
 230 131.666666667 222.833333333 149 208.5 163 c 128
 194.166666667 177 176.666666667 184 156 184 c 256
 135.333333333 184 117.833333333 176.833333333 103.5 162.5 c 128
 89.1666666667 148.166666667 82 131 82 111 c 1
 82 111 l 1
525 111 m 1
 525 144.333333333 537 173.166666667 561 197.5 c 128
 585 221.833333333 614 234 648 234 c 0
 681.333333333 234 710.166666667 221.833333333 734.5 197.5 c 128
 758.833333333 173.166666667 771 144.333333333 771 111 c 256
 771 77.6666666667 758.833333333 48.8333333333 734.5 24.5 c 128
 710.166666667 0.166666666667 681.333333333 -12 648 -12 c 256
 614.666666667 -12 585.833333333 0 561.5 24 c 128
 537.166666667 48 525 77 525 111 c 1
 525 111 l 1
574 111 m 1
 574 90.3333333333 581.166666667 72.8333333333 595.5 58.5 c 128
 609.833333333 44.1666666667 627.333333333 37 648 37 c 256
 668.666666667 37 686.166666667 44.1666666667 700.5 58.5 c 128
 714.833333333 72.8333333333 722 90.3333333333 722 111 c 256
 722 131.666666667 714.833333333 149 700.5 163 c 128
 686.166666667 177 668.666666667 184 648 184 c 256
 627.333333333 184 609.833333333 176.833333333 595.5 162.5 c 128
 581.166666667 148.166666667 574 131 574 111 c 1
 574 111 l 1
EndSplineSet
EndChar

StartChar: tml_A
Encoding: 3 2949 1
Width: 730
Flags: MW
LayerCount: 2
Back
Fore
SplineSet
220 363 m 0
 220 313 261 272 311 272 c 0
 361 272 402 313 402 363 c 0
 402 413 361 454 311 454 c 0
 261 454 220 413 220 363 c 0
188 363 m 0
 188 431 243 486 311 486 c 0
 379 486 434 431 434 363 c 0
 434 295 380 240 312 240 c 0
 244 240 188 295 188 363 c 0
638 501 m 1
 671 501 l 1
 671 -129 l 1
 638 -129 l 1
 638 501 l 1
30 25 m 0
 30 108.393554688 89.603515625 165 176 165 c 2
 497 165 l 1
 490 147 l 1
 491.264648438 183.014648438 482 241.760742188 468 289 c 0
 441.5625 378.206054688 381.442382812 451.01171875 300 466 c 1
 311 486 l 1
 422.528883289 486 476.269143586 375.395866992 499 297 c 0
 513 248.71484375 521.25390625 186.83203125 520 149 c 1
 506 165 l 1
 649 165 l 1
 649 132 l 1
 503 132 l 1
 519 146 l 1
 519 3 483.608398438 -134 260 -134 c 0
 108.471679688 -134 30 -66.744140625 30 25 c 0
176 132 m 2
 111.188476562 132 62 88.568359375 62 27 c 0
 62 -76.857421875 169.528320312 -103 258 -103 c 0
 447.754882812 -103 489.048828125 13.0517578125 490 143 c 1
 496 132 l 1
 176 132 l 2
EndSplineSet
EndChar

StartChar: tml_Aa
Encoding: 4 2950 2
Width: 1000
Flags: MW
LayerCount: 2
Back
Fore
SplineSet
638 -88 m 1
 639.283203125 25.12109375 677.038085938 139 798 139 c 0
 942.473632812 139 984 30.39453125 984 -90 c 0
 984 -222.259765625 934.52734375 -325.979492188 762 -327 c 0
 682.322265625 -327.462890625 631.612304688 -311.87109375 576 -254.748046875 c 0
 526.677734375 -204.0859375 534 -136 534 -136 c 1
 569 -144 l 1
 569 -144 571.750976562 -196.640625 601 -229 c 0
 647.59765625 -280.551757812 692.479492188 -290.965820312 760 -291 c 0
 895.922851562 -291.068359375 946.875976562 -229.2109375 949 -92 c 0
 951.329101562 -4.2744140625 924.51171875 104 798 104 c 0
 698.873046875 104 671 -9.576171875 671 -88 c 1
 638 -88 l 1
EndSplineSet
Refer: 1 2949 N 1 0 0 1 0 0 2
EndChar

StartChar: tml_I
Encoding: 5 2951 3
Width: 717
VWidth: 0
Flags: MW
LayerCount: 2
Back
Fore
SplineSet
449 445 m 1
 384 555 l 1
 426.616278368 539.04427717 459.781483195 505.223381824 483.495614479 453.537313961 c 128
 507.209745764 401.851246099 519.046819583 344.672141445 519.006835938 282 c 0
 518.991210938 257.508680556 518.08585612 237.380696615 516.290771484 221.616048177 c 128
 514.495686849 205.85139974 512.704508463 196.209581163 510.917236328 192.690592448 c 2
 508.236328125 187.412109375 l 1
 507 211 l 1
 619.315665001 184.632971788 675.487865522 126.299638455 675.516601562 36 c 0
 675.533497783 -17.0943947571 661.701832903 -57.845222017 634.021606922 -86.2524817798 c 128
 606.34138094 -114.659741543 565.388540613 -128.908914283 511.163085938 -129 c 0
 493.03983073 -129.030442708 474.938980795 -126.682263347 456.860536133 -121.955461914 c 128
 438.782091471 -117.228660482 423.314822591 -111.481378581 410.458729492 -104.713616211 c 128
 397.602636393 -97.9458538413 386.041061523 -91.1759169924 375.774004883 -84.4038056642 c 128
 365.506948242 -77.6316943361 357.806788737 -71.87136556 352.673526367 -67.122819336 c 2
 344.973632812 -60 l 1
 368 -60 l 2
 367.224193308 -60.5640990078 362.098286718 -64.3427392139 352.62228023 -71.3359206182 c 128
 343.146273742 -78.3291020225 337.323440973 -82.5433323649 335.153781923 -83.9786116454 c 128
 332.984122873 -85.4138909258 327.312408174 -89.0673342456 318.138637826 -94.9389416046 c 128
 308.964867478 -100.810548964 302.08637065 -104.633322189 297.503147341 -106.407261281 c 128
 292.919924031 -108.181200372 285.829752286 -111.061826738 276.232632104 -115.049140379 c 128
 266.635511923 -119.036454019 257.97576506 -121.705050454 250.253391518 -123.054929684 c 128
 242.531017975 -124.404808914 233.296803209 -125.749898653 222.55074722 -127.090198902 c 128
 211.80469123 -128.430499151 200.785171323 -129.067099517 189.4921875 -129 c 0
 137.966975741 -128.693852672 97.8273113338 -115.478289938 69.0731942776 -89.3533117999 c 128
 40.3190772214 -63.2283336615 26.0235202747 -22.3885578532 26.1865234375 33.166015625 c 0
 26.4110674181 109.694868561 69.5643877306 166.326704499 155.646484375 203.061523438 c 1
 151 172 l 2
 149.505703107 175.771877041 141.010507277 193.382005102 125.51441251 224.830384182 c 128
 110.018317743 256.278763263 99.1625520939 285.414703908 92.9471155629 312.238206117 c 128
 86.731679032 339.061708325 83.6109608235 372.262905245 83.5849609375 411.841796875 c 0
 83.5280509029 498.47433411 107.019229692 569.942821829 154.058497306 626.247260032 c 128
 201.09776492 682.551698235 265.857237172 710.69030687 348.336914062 710.663085938 c 0
 394.223386147 710.647941934 436.01691869 702.008892065 473.71751169 684.745936331 c 128
 511.418104691 667.482980598 542.63734034 643.393703037 567.375218638 612.47810365 c 128
 592.113096936 581.562504263 611.28351069 545.786182418 624.886459902 505.149138113 c 128
 638.489409113 464.512093809 645.070194369 419.707289386 644.62881567 370.734724845 c 128
 644.18743697 321.762160303 636.704068726 271.692056709 622.178710938 220.524414062 c 1
 590.415039062 228.99609375 l 1
 603.648629514 273.271596554 610.744607676 317.344096103 611.702973549 361.213592394 c 128
 612.661339422 405.083088686 607.313681269 445.81997892 595.659999089 483.424263095 c 128
 584.00631691 521.028547271 567.340242903 554.374734047 545.661777066 583.462823423 c 128
 523.98331123 612.5509128 496.090460066 635.411026059 461.983223575 652.043163201 c 128
 427.875987085 668.675300343 389.881579226 676.994245943 348 677 c 0
 282.666666667 677 228 654.166666667 184 608.5 c 128
 140 562.833333333 118 497 118 411 c 0
 118 333.666666667 140 259 184 187 c 1
 165 205 l 1
 169.799558362 206.85151664 176.747448755 209.149400926 185.843671178 211.893652857 c 128
 194.939893601 214.637904788 214.504616275 218.30649312 244.537839199 222.899417853 c 128
 274.571062122 227.492342586 305.725115723 229.785961114 338 229.780273438 c 0
 365.912905093 229.775354456 393.119357639 228.374538846 419.619357639 225.577826606 c 128
 446.119357639 222.781114366 465.641131366 219.985631872 478.18467882 217.191379123 c 2
 497 213 l 1
 476 199 l 2
 476.871721352 199.719148846 477.95360875 201.234823688 479.245662194 203.547024527 c 128
 480.537715639 205.859225365 482.265038259 213.60521939 484.427630056 226.785006601 c 128
 486.590221852 239.964793813 487.67033475 256.703124946 487.66796875 277 c 0
 487.66116981 335.325121802 474.771846893 391.325121802 449 445 c 1
244 442 m 128
 244 416.666666667 253 395.166666667 271 377.5 c 128
 289 359.833333333 310.333333333 351 335 351 c 128
 359.666666667 351 381 359.833333333 399 377.5 c 128
 417 395.166666667 426 416.666666667 426 442 c 128
 426 467.333333333 417 488.833333333 399 506.5 c 128
 381 524.166666667 359.666666667 533 335 533 c 128
 310.333333333 533 289 524.166666667 271 506.5 c 128
 253 488.833333333 244 467.333333333 244 442 c 128
212 442 m 128
 212 476 224 505 248 529 c 128
 272 553 301 565 335 565 c 128
 369 565 398 553 422 529 c 128
 446 505 458 476 458 442 c 128
 458 408 446 379 422 355 c 128
 398 331 369 319 335 319 c 128
 301 319 272 331 248 355 c 128
 224 379 212 408 212 442 c 128
339 -35 m 1
 401.666666667 19.6666666667 447.333333333 95.3333333333 476 192 c 1
 482 180 l 1
 443.701635355 191.462239583 396.368302022 197.193359375 340 197.193359375 c 0
 326.359507981 197.193359375 312.709495384 196.675065515 299.049962209 195.638477796 c 128
 285.390429035 194.601890077 273.095250131 193.254782689 262.164425498 191.597155631 c 128
 251.233600866 189.939528574 240.744256749 188.108375819 230.696393147 186.103697366 c 128
 220.648529546 184.099018914 211.964715146 182.094340461 204.644949949 180.089662009 c 128
 197.325184751 178.084983556 190.92798824 176.253830801 185.453360415 174.596203744 c 128
 179.97873259 172.938576686 175.867848898 171.591469298 173.120709339 170.554881579 c 2
 169 169 l 2
 171 168.333333333 174 170.5 178 175.5 c 128
 182 180.5 185 182.666666667 187 182 c 0
 209.666666667 140.666666667 237.833333333 99.8333333333 271.5 59.5 c 128
 305.166666667 19.1666666667 337 -12 367 -34 c 1
 339 -35 l 1
57.97265625 31.73828125 m 0
 57.9337190788 -10.2322363255 70.2896585615 -42.4723102948 95.0404746982 -64.9819406579 c 128
 119.791290835 -87.491571021 151.581184685 -98.8309241351 190.41015625 -99 c 0
 237.751974419 -99.206143983 284.615255669 -79.5394773163 331 -40 c 1
 330 -53 l 1
 300 -30.3333333333 268.5 2 235.5 44 c 128
 202.5 86 176 126 156 164 c 0
 155.621302591 167.030903214 158.287969258 168.697569881 164 169 c 1
 135.906059001 157.127204861 111.219295091 139.84631874 89.9397082708 117.157341635 c 128
 68.6601214503 94.4683645305 58.0044374433 65.9953444022 57.97265625 31.73828125 c 0
377 -53 m 1
 377 -41 l 1
 420.486136778 -78.3386338439 465.781384174 -97.0053005106 512.885742188 -97 c 0
 556.032574431 -96.9952577657 588.30412721 -85.2169844391 609.700400524 -61.6651800201 c 128
 631.096673839 -38.1133756012 641.811123664 -5.03422705279 641.84375 37.572265625 c 0
 641.861237876 60.4790367216 636.528574108 81.0934032646 625.845758696 99.4153652543 c 128
 615.162943284 117.737327244 598.728032937 133.656786297 576.541027655 147.173742414 c 128
 554.354022373 160.690698531 526.840346488 171.10023231 494 178.40234375 c 1
 508.328125 181.279296875 l 1
 482.608922965 90.7219992172 438.832881298 12.6289002588 377 -53 c 1
EndSplineSet
EndChar

StartChar: tml_Ii
Encoding: 6 2952 4
Width: 722
Flags: MW
LayerCount: 2
Back
Fore
SplineSet
563 287 m 4
 563 307 580 324 600 324 c 4
 620 324 637 307 637 287 c 4
 637 267 620 250 600 250 c 4
 580 250 563 267 563 287 c 4
313 287 m 4
 313 307 330 324 350 324 c 4
 370 324 387 307 387 287 c 4
 387 267 370 250 350 250 c 4
 330 250 313 267 313 287 c 4
165 1 m 5
 132 1 l 5
 132 521 l 5
 165 521 l 5
 165 1 l 5
699 521 m 5
 699 486 l 5
 132 486 l 5
 132 521 l 5
 699 521 l 5
503 1 m 5
 471 1 l 5
 471 521 l 5
 503 521 l 5
 503 1 l 5
EndSplineSet
EndChar

StartChar: tml_U
Encoding: 7 2953 5
Width: 929
Flags: HMW
LayerCount: 2
Back
Fore
SplineSet
108 344 m 1
 108 326.666666667 114 312.166666667 126 300.5 c 128
 138 288.833333333 152.666666667 283 170 283 c 256
 187.333333333 283 201.833333333 288.833333333 213.5 300.5 c 128
 225.166666667 312.166666667 231 326.666666667 231 344 c 0
 231 364.666666667 225 382.166666667 213 396.5 c 128
 201 410.833333333 186.666666667 418 170 418 c 0
 152.666666667 418 138 410.833333333 126 396.5 c 128
 114 382.166666667 108 364.666666667 108 344 c 1
 108 344 l 1
59 356 m 1
 59 396.666666667 79.5 431.5 120.5 460.5 c 128
 161.5 489.5 210.666666667 504 268 504 c 0
 336 504 394 484.666666667 442 446 c 128
 490 407.333333333 514 361 514 307 c 0
 514 256.333333333 493.5 213 452.5 177 c 128
 411.5 141 362.333333333 123 305 123 c 2
 170 123 l 2
 156 123 144.166666667 119.333333333 134.5 112 c 128
 124.833333333 104.666666667 120 96 120 86 c 256
 120 76 124.833333333 67.3333333333 134.5 60 c 128
 144.166666667 52.6666666667 156 49 170 49 c 2
 920 49 l 1
 920 0 l 1
 170 0 l 2
 140 0 114 8.33333333333 92 25 c 128
 70 41.6666666667 59 62 59 86 c 256
 59 110 69.8333333333 130.333333333 91.5 147 c 128
 113.166666667 163.666666667 139.333333333 172 170 172 c 2
 305 172 l 2
 345.666666667 172 380.333333333 185.166666667 409 211.5 c 128
 437.666666667 237.833333333 452 269.666666667 452 307 c 0
 452 347.666666667 434 382.5 398 411.5 c 128
 362 440.5 318.666666667 455 268 455 c 2
 194 455 l 1
 220 445.666666667 240.833333333 430.833333333 256.5 410.5 c 128
 272.166666667 390.166666667 280 368 280 344 c 0
 280 314 269.166666667 288.166666667 247.5 266.5 c 128
 225.833333333 244.833333333 200 234 170 234 c 256
 140 234 114 246 92 270 c 128
 70 294 59 322.666666667 59 356 c 1
 59 356 l 1
EndSplineSet
EndChar

StartChar: tml_Uu
Encoding: 8 2954 6
Width: 1289
Flags: HMW
LayerCount: 2
Back
Fore
SplineSet
108 344 m 1
 108 326.666666667 114 312.166666667 126 300.5 c 128
 138 288.833333333 152.666666667 283 170 283 c 256
 187.333333333 283 201.833333333 288.833333333 213.5 300.5 c 128
 225.166666667 312.166666667 231 326.666666667 231 344 c 0
 231 364.666666667 225 382.166666667 213 396.5 c 128
 201 410.833333333 186.666666667 418 170 418 c 0
 152.666666667 418 138 410.833333333 126 396.5 c 128
 114 382.166666667 108 364.666666667 108 344 c 1
 108 344 l 1
661 209 m 1
 661 191.666666667 668.166666667 177.166666667 682.5 165.5 c 128
 696.833333333 153.833333333 714.333333333 148 735 148 c 0
 752.333333333 148 767 153.833333333 779 165.5 c 128
 791 177.166666667 797 191.666666667 797 209 c 256
 797 226.333333333 791 240.833333333 779 252.5 c 128
 767 264.166666667 752.333333333 270 735 270 c 0
 714.333333333 270 696.833333333 264.166666667 682.5 252.5 c 128
 668.166666667 240.833333333 661 226.333333333 661 209 c 1
 661 209 l 1
59 356 m 1
 59 396.666666667 79.5 431.5 120.5 460.5 c 128
 161.5 489.5 210.666666667 504 268 504 c 0
 336 504 394 484.666666667 442 446 c 128
 490 407.333333333 514 361 514 307 c 0
 514 256.333333333 493.5 213 452.5 177 c 128
 411.5 141 362.333333333 123 305 123 c 2
 170 123 l 2
 156 123 144.166666667 119.333333333 134.5 112 c 128
 124.833333333 104.666666667 120 96 120 86 c 256
 120 76 124.833333333 67.3333333333 134.5 60 c 128
 144.166666667 52.6666666667 156 49 170 49 c 2
 1239 49 l 1
 1239 0 l 1
 170 0 l 2
 140 0 114 8.33333333333 92 25 c 128
 70 41.6666666667 59 62 59 86 c 256
 59 110 69.8333333333 130.333333333 91.5 147 c 128
 113.166666667 163.666666667 139.333333333 172 170 172 c 2
 305 172 l 2
 345.666666667 172 380.333333333 185.166666667 409 211.5 c 128
 437.666666667 237.833333333 452 269.666666667 452 307 c 0
 452 347.666666667 434 382.5 398 411.5 c 128
 362 440.5 318.666666667 455 268 455 c 2
 194 455 l 1
 220 445.666666667 240.833333333 430.833333333 256.5 410.5 c 128
 272.166666667 390.166666667 280 368 280 344 c 0
 280 314 269.166666667 288.166666667 247.5 266.5 c 128
 225.833333333 244.833333333 200 234 170 234 c 256
 140 234 114 246 92 270 c 128
 70 294 59 322.666666667 59 356 c 1
 59 356 l 1
588 295 m 1
 588 352.333333333 607.166666667 401.5 645.5 442.5 c 128
 683.833333333 483.5 730 504 784 504 c 0
 810 504 835 498.666666667 859 488 c 128
 883 477.333333333 903.333333333 462.333333333 920 443 c 1
 920 492 l 1
 1276 492 l 1
 1276 443 l 1
 1153 443 l 1
 1153 98 l 1
 1092 98 l 1
 1092 443 l 1
 981 443 l 1
 981 98 l 1
 920 98 l 1
 920 295 l 2
 920 339 906.833333333 376.666666667 880.5 408 c 128
 854.166666667 439.333333333 822 455 784 455 c 0
 743.333333333 455 708.666666667 439.333333333 680 408 c 128
 651.333333333 376.666666667 637 339 637 295 c 2
 637 258 l 1
 653.666666667 278 670.5 293.333333333 687.5 304 c 128
 704.5 314.666666667 720.333333333 320 735 320 c 0
 765 320 791 309 813 287 c 128
 835 265 846 239 846 209 c 256
 846 179 833.833333333 153 809.5 131 c 128
 785.166666667 109 756.333333333 98 723 98 c 0
 685 98 653 117.333333333 627 156 c 128
 601 194.666666667 588 241 588 295 c 1
 588 295 l 1
EndSplineSet
EndChar

StartChar: tml_E
Encoding: 9 2958 7
Width: 750
Flags: HMW
LayerCount: 2
Back
Fore
SplineSet
179 7 m 4
 -9 81.15234375 52.87890625 520.889648438 319 520.889648438 c 4
 318 486 l 4
 96.3251953125 486 15 96.03125 215 21 c 4
 179 7 l 4
131 122 m 4
 131 72 172 31 222 31 c 4
 272 31 313 72 313 122 c 4
 313 172 272 213 222 213 c 4
 172 213 131 172 131 122 c 4
99 122 m 4
 99 190 154 245 222 245 c 4
 290 245 345 190 345 122 c 4
 345 54 291 -1 223 -1 c 4
 155 -1 99 54 99 122 c 4
767 521 m 5
 767 486 l 5
 300 486 l 5
 300 521 l 5
 767 521 l 5
571 1 m 5
 539 1 l 5
 539 521 l 5
 571 521 l 5
 571 1 l 5
EndSplineSet
EndChar

StartChar: tml_Ee
Encoding: 10 2959 8
Width: 750
Flags: HMW
LayerCount: 2
Back
Fore
SplineSet
571 0 m 1
 424 -224 l 25
 397 -206 l 1
 539 10 l 25
 571 0 l 1
EndSplineSet
Refer: 7 2958 N 1 0 0 1 0 -1 2
EndChar

StartChar: tml_Ai
Encoding: 11 2960 9
Width: 822
Flags: HMW
LayerCount: 2
Back
Fore
SplineSet
41 -74 m 1
 41 -20 59 26.3333333333 95 65 c 128
 131 103.666666667 174.333333333 123 225 123 c 2
 532 123 l 2
 582.666666667 123 626.166666667 138.5 662.5 169.5 c 128
 698.833333333 200.5 717 238.333333333 717 283 c 0
 717 330.333333333 704.833333333 370.833333333 680.5 404.5 c 128
 656.166666667 438.166666667 627.333333333 455 594 455 c 0
 556 455 524 442.833333333 498 418.5 c 128
 472 394.166666667 459 365.333333333 459 332 c 2
 459 172 l 1
 397 172 l 1
 397 332 l 2
 397 365.333333333 382.666666667 394.166666667 354 418.5 c 128
 325.333333333 442.833333333 290.666666667 455 250 455 c 0
 218.666666667 455 190.5 447.166666667 165.5 431.5 c 128
 140.5 415.833333333 123.333333333 395 114 369 c 1
 125.333333333 379 138.666666667 386.666666667 154 392 c 128
 169.333333333 397.333333333 184.666666667 400 200 400 c 0
 230 400 256 389.666666667 278 369 c 128
 300 348.333333333 311 323.666666667 311 295 c 0
 311 261.666666667 298.833333333 232.833333333 274.5 208.5 c 128
 250.166666667 184.166666667 221.333333333 172 188 172 c 0
 150 172 118 185.166666667 92 211.5 c 128
 66 237.833333333 53 269.666666667 53 307 c 0
 53 361 72.1666666667 407.333333333 110.5 446 c 128
 148.833333333 484.666666667 195.333333333 504 250 504 c 0
 288.666666667 504 323.833333333 495.833333333 355.5 479.5 c 128
 387.166666667 463.166666667 411.333333333 440.666666667 428 412 c 1
 444.666666667 440.666666667 467.666666667 463.166666667 497 479.5 c 128
 526.333333333 495.833333333 558.666666667 504 594 504 c 0
 643.333333333 504 685.333333333 482.5 720 439.5 c 128
 754.666666667 396.5 772 344.333333333 772 283 c 0
 772 225.666666667 748.666666667 176.5 702 135.5 c 128
 655.333333333 94.5 598.666666667 74 532 74 c 2
 225 74 l 2
 191.666666667 74 162.833333333 59.6666666667 138.5 31 c 128
 114.166666667 2.33333333333 102 -32.6666666667 102 -74 c 0
 102 -118 115.166666667 -155.666666667 141.5 -187 c 128
 167.833333333 -218.333333333 199.666666667 -234 237 -234 c 0
 281 -234 318.666666667 -218.333333333 350 -187 c 128
 381.333333333 -155.666666667 397 -118 397 -74 c 2
 397 12 l 1
 459 12 l 1
 459 -74 l 2
 459 -118 472 -155.666666667 498 -187 c 128
 524 -218.333333333 556 -234 594 -234 c 0
 627.333333333 -234 656.166666667 -223 680.5 -201 c 128
 704.833333333 -179 717 -153 717 -123 c 0
 717 -100.333333333 710.333333333 -78.5 697 -57.5 c 128
 683.666666667 -36.5 665.666666667 -19.3333333333 643 -6 c 1
 668 43 l 1
 699.333333333 31.6666666667 724.5 10.8333333333 743.5 -19.5 c 128
 762.5 -49.8333333333 772 -84.3333333333 772 -123 c 0
 772 -167 755.833333333 -204.666666667 723.5 -236 c 128
 691.166666667 -267.333333333 652 -283 606 -283 c 0
 564 -283 526.666666667 -275.166666667 494 -259.5 c 128
 461.333333333 -243.833333333 437.333333333 -223 422 -197 c 1
 406.666666667 -223 382.5 -243.833333333 349.5 -259.5 c 128
 316.5 -275.166666667 279 -283 237 -283 c 0
 183 -283 136.833333333 -262.5 98.5 -221.5 c 128
 60.1666666667 -180.5 41 -131.333333333 41 -74 c 1
 41 -74 l 1
102 295 m 1
 102 274.333333333 110.333333333 256.833333333 127 242.5 c 128
 143.666666667 228.166666667 164 221 188 221 c 0
 208.666666667 221 226.166666667 228.166666667 240.5 242.5 c 128
 254.833333333 256.833333333 262 274.333333333 262 295 c 0
 262 312.333333333 254.833333333 326.833333333 240.5 338.5 c 128
 226.166666667 350.166666667 208.666666667 356 188 356 c 0
 164 356 143.666666667 350.166666667 127 338.5 c 128
 110.333333333 326.833333333 102 312.333333333 102 295 c 1
 102 295 l 1
EndSplineSet
EndChar

StartChar: tml_O
Encoding: 12 2962 10
Width: 554
VWidth: 0
Flags: MW
LayerCount: 2
Back
Fore
SplineSet
68 242 m 0
 68 192 109 151 159 151 c 0
 209 151 250 192 250 242 c 0
 250 292 209 333 159 333 c 0
 109 333 68 292 68 242 c 0
36 242 m 0
 36 310 91 365 159 365 c 0
 227 365 282 310 282 242 c 0
 282 174 227 119 159 119 c 0
 91 119 36 174 36 242 c 0
50 185 m 1
 -6 278 40.400390625 527 266 527 c 0
 454 527 515 377 515 232 c 0
 515 64.310546875 401 -37 331 -71 c 1
 329.758789062 -74.7841796875 333.91796875 -52.84765625 333 -56 c 1
 369.942382812 -85.76953125 432.452148438 -106.40625 489 -112 c 1
 490 -166 l 1
 396 -178.571289062 403 -261 245 -261 c 0
 151.1171875 -261 108.200195312 -194.698242188 93 -166 c 1
 116 -147 l 1
 133.142578125 -174.651367188 164.857421875 -229 248 -229 c 0
 368.911132812 -229 389 -145.66015625 473 -135 c 1
 463 -144 l 1
 400.333007812 -128.870117188 275 -110.571289062 275 12 c 0
 275 34 283 57 283 57 c 1
 314 57 l 1
 307.846679688 41.953125 305.340820312 26.5361328125 305.31640625 12 c 0
 305.263671875 -19.287109375 316.985351562 -42 329 -51 c 1
 308 -35 l 1
 386.314453125 -10.1875 480.744140625 105.942382812 483 230 c 0
 485 340.839694656 438 494 266 494 c 0
 81.845703125 494 30 285.552447552 76 206 c 1
 50 185 l 1
EndSplineSet
EndChar

StartChar: tml_Oo
Encoding: 13 2963 11
Width: 859
Flags: HMW
LayerCount: 2
Back
Fore
SplineSet
50 209 m 1
 50 294.333333333 86.1666666667 366.833333333 158.5 426.5 c 128
 230.833333333 486.166666667 317.666666667 516 419 516 c 0
 527.666666667 516 620.5 483.666666667 697.5 419 c 128
 774.5 354.333333333 813 276 813 184 c 0
 813 143.333333333 798.666666667 108.666666667 770 80 c 128
 741.333333333 51.3333333333 706.333333333 37 665 37 c 0
 627 37 595 49 569 73 c 128
 543 97 530 126 530 160 c 0
 530 166.666666667 532.666666667 176.333333333 538 189 c 128
 543.333333333 201.666666667 551 216.666666667 561 234 c 1
 536.333333333 220 516.833333333 201.833333333 502.5 179.5 c 128
 488.166666667 157.166666667 481 134.333333333 481 111 c 0
 481 73 497.666666667 40.8333333333 531 14.5 c 128
 564.333333333 -11.8333333333 605 -25 653 -25 c 2
 788 -25 l 1
 788 -74 l 1
 604 -74 l 2
 586.666666667 -74 569.833333333 -83.1666666667 553.5 -101.5 c 128
 537.166666667 -119.833333333 525.333333333 -143.333333333 518 -172 c 0
 507.333333333 -212 487 -244.5 457 -269.5 c 128
 427 -294.5 394 -307 358 -307 c 0
 307.333333333 -307 263.833333333 -294 227.5 -268 c 128
 191.166666667 -242 173 -210 173 -172 c 0
 173 -138.666666667 183.833333333 -109.833333333 205.5 -85.5 c 128
 227.166666667 -61.1666666667 253.333333333 -49 284 -49 c 0
 311.333333333 -49 334.5 -58.6666666667 353.5 -78 c 128
 372.5 -97.3333333333 382 -120.666666667 382 -148 c 256
 382 -175.333333333 373.666666667 -198.5 357 -217.5 c 128
 340.333333333 -236.5 320 -246 296 -246 c 1
 307.333333333 -250 318.166666667 -253 328.5 -255 c 128
 338.833333333 -257 348.666666667 -258 358 -258 c 0
 380 -258 400.166666667 -250 418.5 -234 c 128
 436.833333333 -218 449.333333333 -197.333333333 456 -172 c 0
 464 -142 476.666666667 -116 494 -94 c 128
 511.333333333 -72 531.333333333 -57 554 -49 c 1
 517.333333333 -35.6666666667 487.666666667 -14.3333333333 465 15 c 128
 442.333333333 44.3333333333 431 76.3333333333 431 111 c 0
 431 158.333333333 450.333333333 198.833333333 489 232.5 c 128
 527.666666667 266.166666667 574 283 628 283 c 1
 612.666666667 264.333333333 600.666666667 244.333333333 592 223 c 128
 583.333333333 201.666666667 579 180.666666667 579 160 c 256
 579 139.333333333 587.333333333 121.833333333 604 107.5 c 128
 620.666666667 93.1666666667 641 86 665 86 c 256
 689 86 709.333333333 95.6666666667 726 115 c 128
 742.666666667 134.333333333 751 157.333333333 751 184 c 0
 751 262 718.666666667 328.666666667 654 384 c 128
 589.333333333 439.333333333 511 467 419 467 c 0
 330.333333333 467 255 441.833333333 193 391.5 c 128
 131 341.166666667 100 280.333333333 100 209 c 0
 100 195.666666667 101 182.833333333 103 170.5 c 128
 105 158.166666667 108 146.333333333 112 135 c 1
 112 174.333333333 124 207.833333333 148 235.5 c 128
 172 263.166666667 201 277 235 277 c 0
 268.333333333 277 297.166666667 264.166666667 321.5 238.5 c 128
 345.833333333 212.833333333 358 182.666666667 358 148 c 0
 358 110 345.833333333 77.8333333333 321.5 51.5 c 128
 297.166666667 25.1666666667 268.333333333 12 235 12 c 0
 184.333333333 12 140.833333333 31.3333333333 104.5 70 c 128
 68.1666666667 108.666666667 50 155 50 209 c 1
 50 209 l 1
173 148 m 1
 173 124 179 103.5 191 86.5 c 128
 203 69.5 217.666666667 61 235 61 c 256
 252.333333333 61 266.833333333 69.5 278.5 86.5 c 128
 290.166666667 103.5 296 124 296 148 c 0
 296 168.666666667 290.166666667 186 278.5 200 c 128
 266.833333333 214 252.333333333 221 235 221 c 256
 217.666666667 221 203 213.833333333 191 199.5 c 128
 179 185.166666667 173 168 173 148 c 1
 173 148 l 1
223 -172 m 1
 223 -182 228.833333333 -190.666666667 240.5 -198 c 128
 252.166666667 -205.333333333 266.666666667 -209 284 -209 c 0
 298 -209 309.666666667 -203 319 -191 c 128
 328.333333333 -179 333 -164.666666667 333 -148 c 0
 333 -134 328.333333333 -122.166666667 319 -112.5 c 128
 309.666666667 -102.833333333 298 -98 284 -98 c 0
 266.666666667 -98 252.166666667 -105.166666667 240.5 -119.5 c 128
 228.833333333 -133.833333333 223 -151.333333333 223 -172 c 1
 223 -172 l 1
EndSplineSet
EndChar

StartChar: tml_Au
Encoding: 14 2964 12
Width: 1746
Flags: HMW
LayerCount: 2
Back
Fore
SplineSet
49 184 m 1
 49 276 85.1666666667 354.333333333 157.5 419 c 128
 229.833333333 483.666666667 316.666666667 516 418 516 c 0
 526.666666667 516 619.333333333 483.666666667 696 419 c 128
 772.666666667 354.333333333 811 276 811 184 c 0
 811 143.333333333 796.666666667 108.666666667 768 80 c 128
 739.333333333 51.3333333333 704.666666667 37 664 37 c 0
 626 37 594 49 568 73 c 128
 542 97 529 126 529 160 c 0
 529 166.666666667 531.666666667 176.333333333 537 189 c 128
 542.333333333 201.666666667 549.666666667 216.666666667 559 234 c 1
 534.333333333 220 514.833333333 201.833333333 500.5 179.5 c 128
 486.166666667 157.166666667 479 134.333333333 479 111 c 0
 479 73 495.833333333 40.8333333333 529.5 14.5 c 128
 563.166666667 -11.8333333333 604 -25 652 -25 c 2
 787 -25 l 1
 787 -74 l 1
 602 -74 l 2
 584.666666667 -74 567.833333333 -83.1666666667 551.5 -101.5 c 128
 535.166666667 -119.833333333 523.333333333 -143.333333333 516 -172 c 0
 505.333333333 -212 482.833333333 -244.5 448.5 -269.5 c 128
 414.166666667 -294.5 375.333333333 -307 332 -307 c 0
 288 -307 250.333333333 -294 219 -268 c 128
 187.666666667 -242 172 -210 172 -172 c 0
 172 -138.666666667 182.833333333 -109.833333333 204.5 -85.5 c 128
 226.166666667 -61.1666666667 252.333333333 -49 283 -49 c 1
 283 -98 l 1
 265.666666667 -98 251 -105.166666667 239 -119.5 c 128
 227 -133.833333333 221 -151.333333333 221 -172 c 0
 221 -196 231.833333333 -216.333333333 253.5 -233 c 128
 275.166666667 -249.666666667 301.333333333 -258 332 -258 c 0
 361.333333333 -258 387.5 -250 410.5 -234 c 128
 433.5 -218 448.333333333 -197.333333333 455 -172 c 0
 463 -142 475.666666667 -116 493 -94 c 128
 510.333333333 -72 530.333333333 -57 553 -49 c 1
 516.333333333 -35.6666666667 486.666666667 -14.3333333333 464 15 c 128
 441.333333333 44.3333333333 430 76.3333333333 430 111 c 0
 430 158.333333333 449.333333333 198.833333333 488 232.5 c 128
 526.666666667 266.166666667 573 283 627 283 c 1
 611.666666667 264.333333333 599.666666667 244.333333333 591 223 c 128
 582.333333333 201.666666667 578 180.666666667 578 160 c 256
 578 139.333333333 586.333333333 121.833333333 603 107.5 c 128
 619.666666667 93.1666666667 640 86 664 86 c 256
 688 86 708.333333333 95.6666666667 725 115 c 128
 741.666666667 134.333333333 750 157.333333333 750 184 c 0
 750 262 717.666666667 328.666666667 653 384 c 128
 588.333333333 439.333333333 510 467 418 467 c 0
 331.333333333 467 257.333333333 439.333333333 196 384 c 128
 134.666666667 328.666666667 104 262 104 184 c 0
 104 179.333333333 105.333333333 172.833333333 108 164.5 c 128
 110.666666667 156.166666667 115.666666667 142.333333333 123 123 c 1
 123 165.666666667 133.833333333 202 155.5 232 c 128
 177.166666667 262 203.333333333 277 234 277 c 0
 267.333333333 277 296 264.166666667 320 238.5 c 128
 344 212.833333333 356 182.666666667 356 148 c 0
 356 110 344 77.8333333333 320 51.5 c 128
 296 25.1666666667 267.333333333 12 234 12 c 0
 183.333333333 12 139.833333333 28.8333333333 103.5 62.5 c 128
 67.1666666667 96.1666666667 49 136.666666667 49 184 c 1
 49 184 l 1
172 148 m 1
 172 124 178 103.5 190 86.5 c 128
 202 69.5 216.666666667 61 234 61 c 256
 251.333333333 61 265.833333333 69.5 277.5 86.5 c 128
 289.166666667 103.5 295 124 295 148 c 0
 295 168.666666667 289 186 277 200 c 128
 265 214 250.666666667 221 234 221 c 0
 216.666666667 221 202 213.833333333 190 199.5 c 128
 178 185.166666667 172 168 172 148 c 1
 172 148 l 1
1026 148 m 1
 1026 120.666666667 1033.16666667 97.3333333333 1047.5 78 c 128
 1061.83333333 58.6666666667 1079.33333333 49 1100 49 c 256
 1120.66666667 49 1138.16666667 58.6666666667 1152.5 78 c 128
 1166.83333333 97.3333333333 1174 120.666666667 1174 148 c 0
 1174 172 1166.83333333 192.333333333 1152.5 209 c 128
 1138.16666667 225.666666667 1120.66666667 234 1100 234 c 256
 1079.33333333 234 1061.83333333 225.5 1047.5 208.5 c 128
 1033.16666667 191.5 1026 171.333333333 1026 148 c 1
 1026 148 l 1
1309 492 m 1
 1739 492 l 1
 1739 443 l 1
 1604 443 l 1
 1604 0 l 1
 1543 0 l 1
 1543 443 l 1
 1358 443 l 1
 1358 0 l 1
 1297 0 l 1
 1297 246 l 2
 1297 303.333333333 1279 352.5 1243 393.5 c 128
 1207 434.5 1163.66666667 455 1113 455 c 256
 1062.33333333 455 1018.83333333 433.5 982.5 390.5 c 128
 946.166666667 347.5 928 295.333333333 928 234 c 0
 928 202.666666667 934.333333333 173 947 145 c 128
 959.666666667 117 978 93.3333333333 1002 74 c 1
 994 88 987.833333333 101.333333333 983.5 114 c 128
 979.166666667 126.666666667 977 138 977 148 c 0
 977 186 989.166666667 218 1013.5 244 c 128
 1037.83333333 270 1066.66666667 283 1100 283 c 256
 1133.33333333 283 1162.16666667 269.833333333 1186.5 243.5 c 128
 1210.83333333 217.166666667 1223 185.333333333 1223 148 c 0
 1223 104 1208.66666667 66.3333333333 1180 35 c 128
 1151.33333333 3.66666666667 1116.66666667 -12 1076 -12 c 0
 1022 -12 975.666666667 12 937 60 c 128
 898.333333333 108 879 166 879 234 c 0
 879 308.666666667 901.666666667 372.333333333 947 425 c 128
 992.333333333 477.666666667 1047.66666667 504 1113 504 c 0
 1156.33333333 504 1195.5 495.166666667 1230.5 477.5 c 128
 1265.5 459.833333333 1291.66666667 436 1309 406 c 1
 1309 492 l 1
 1309 492 l 1
EndSplineSet
EndChar

StartChar: tml_Ka
Encoding: 15 2965 13
Width: 655
GlyphClass: 2
Flags: HMW
AnchorPoint: "Anchor-3" -1 0 basechar 0
AnchorPoint: "Anchor-1" 114 0 basechar 0
AnchorPoint: "Anchor-0" 364 0 basechar 0
LayerCount: 2
Back
Fore
SplineSet
219 270 m 1
 342 270 l 1
 342 443 l 1
 219 443 l 1
 219 270 l 1
 219 270 l 1
96 160 m 1
 96 126.666666667 109.166666667 97.8333333333 135.5 73.5 c 128
 161.833333333 49.1666666667 193.666666667 37 231 37 c 0
 261 37 287 46.6666666667 309 66 c 128
 331 85.3333333333 342 108.333333333 342 135 c 2
 342 221 l 1
 157 221 l 2
 139.666666667 221 125.166666667 215.166666667 113.5 203.5 c 128
 101.833333333 191.833333333 96 177.333333333 96 160 c 1
 96 160 l 1
157 492 m 1
 588 492 l 1
 588 443 l 1
 403 443 l 1
 403 270 l 1
 477 270 l 2
 515 270 547 257 573 231 c 128
 599 205 612 173 612 135 c 0
 612 94.3333333333 600 59.6666666667 576 31 c 128
 552 2.33333333333 523 -12 489 -12 c 0
 479.666666667 -12 470 -11 460 -9 c 128
 450 -7 439.333333333 -4 428 0 c 1
 440 49 l 1
 447.333333333 45 455.166666667 42 463.5 40 c 128
 471.833333333 38 480.333333333 37 489 37 c 0
 506.333333333 37 521 46.6666666667 533 66 c 128
 545 85.3333333333 551 108.333333333 551 135 c 0
 551 159 543.833333333 179.333333333 529.5 196 c 128
 515.166666667 212.666666667 497.666666667 221 477 221 c 2
 403 221 l 1
 403 135 l 2
 403 94.3333333333 386.166666667 59.6666666667 352.5 31 c 128
 318.833333333 2.33333333333 278.333333333 -12 231 -12 c 0
 177 -12 130.666666667 4.83333333333 92 38.5 c 128
 53.3333333333 72.1666666667 34 112.666666667 34 160 c 0
 34 190 46.1666666667 215.833333333 70.5 237.5 c 128
 94.8333333333 259.166666667 123.666666667 270 157 270 c 1
 157 492 l 1
 157 492 l 1
EndSplineSet
EndChar

StartChar: tml_Nga
Encoding: 16 2969 14
Width: 897
GlyphClass: 2
Flags: HMW
AnchorPoint: "Anchor-4" 865 0 basechar 0
AnchorPoint: "Anchor-1" 531 -10 basechar 0
AnchorPoint: "Anchor-0" 516 0 basechar 0
LayerCount: 2
Back
Fore
SplineSet
301 49 m 1
 436 49 l 2
 466 49 492 59.8333333333 514 81.5 c 128
 536 103.166666667 547 129.333333333 547 160 c 0
 547 184 537.333333333 204.333333333 518 221 c 128
 498.666666667 237.666666667 475.666666667 246 449 246 c 0
 435 246 420.333333333 241.666666667 405 233 c 128
 389.666666667 224.333333333 375.666666667 212.333333333 363 197 c 1
 363 98 l 1
 301 98 l 1
 301 443 l 1
 154 443 l 1
 154 0 l 1
 92 0 l 1
 92 492 l 1
 535 492 l 1
 535 443 l 1
 363 443 l 1
 363 264 l 1
 379.666666667 278 396.333333333 288.666666667 413 296 c 128
 429.666666667 303.333333333 445.666666667 307 461 307 c 0
 501.666666667 307 536.333333333 292.666666667 565 264 c 128
 593.666666667 235.333333333 608 200.666666667 608 160 c 0
 608 138 603.833333333 117.333333333 595.5 98 c 128
 587.166666667 78.6666666667 575 62.3333333333 559 49 c 1
 744 49 l 1
 744 492 l 1
 805 492 l 1
 805 0 l 1
 301 0 l 1
 301 49 l 1
 301 49 l 1
EndSplineSet
EndChar

StartChar: tml_Ca
Encoding: 17 2970 15
Width: 567
GlyphClass: 2
Flags: HMW
AnchorPoint: "Anchor-3" 2 0 basechar 0
AnchorPoint: "Anchor-1" 114 0 basechar 0
AnchorPoint: "Anchor-0" 325 0 basechar 0
LayerCount: 2
Back
Fore
SplineSet
219 270 m 1
 342 270 l 1
 342 443 l 1
 219 443 l 1
 219 270 l 1
 219 270 l 1
96 160 m 1
 96 126.666666667 109.166666667 97.8333333333 135.5 73.5 c 128
 161.833333333 49.1666666667 193.666666667 37 231 37 c 0
 261 37 287 46.6666666667 309 66 c 128
 331 85.3333333333 342 108.333333333 342 135 c 2
 342 221 l 1
 157 221 l 2
 139.666666667 221 125.166666667 215.166666667 113.5 203.5 c 128
 101.833333333 191.833333333 96 177.333333333 96 160 c 1
 96 160 l 1
157 492 m 1
 551 492 l 1
 551 443 l 1
 403 443 l 1
 403 270 l 1
 551 270 l 1
 551 221 l 1
 403 221 l 1
 403 135 l 2
 403 94.3333333333 386.166666667 59.6666666667 352.5 31 c 128
 318.833333333 2.33333333333 278.333333333 -12 231 -12 c 0
 177 -12 130.666666667 4.83333333333 92 38.5 c 128
 53.3333333333 72.1666666667 34 112.666666667 34 160 c 0
 34 190 46.1666666667 215.833333333 70.5 237.5 c 128
 94.8333333333 259.166666667 123.666666667 270 157 270 c 1
 157 492 l 1
 157 492 l 1
EndSplineSet
EndChar

StartChar: tml_Ja
Encoding: 18 2972 16
Width: 854
GlyphClass: 2
Flags: HMW
AnchorPoint: "Anchor-1" 378 0 basechar 0
AnchorPoint: "Anchor-0" 420 0 basechar 0
LayerCount: 2
Back
Fore
SplineSet
101 246 m 1
 101 225.333333333 109.333333333 207.833333333 126 193.5 c 128
 142.666666667 179.166666667 163 172 187 172 c 0
 207.666666667 172 225.166666667 179.166666667 239.5 193.5 c 128
 253.833333333 207.833333333 261 225.333333333 261 246 c 256
 261 266.666666667 253.833333333 284.166666667 239.5 298.5 c 128
 225.166666667 312.833333333 207.666666667 320 187 320 c 0
 163 320 142.666666667 312.833333333 126 298.5 c 128
 109.333333333 284.166666667 101 266.666666667 101 246 c 1
 101 246 l 1
439 393 m 1
 451 426.333333333 472.166666667 453.166666667 502.5 473.5 c 128
 532.833333333 493.833333333 567 504 605 504 c 0
 659 504 705.166666667 481.333333333 743.5 436 c 128
 781.833333333 390.666666667 801 335.333333333 801 270 c 0
 801 205.333333333 779.5 150.333333333 736.5 105 c 128
 693.5 59.6666666667 641.333333333 37 580 37 c 2
 236 37 l 2
 202.666666667 37 173.833333333 21.3333333333 149.5 -10 c 128
 125.166666667 -41.3333333333 113 -79 113 -123 c 0
 113 -170.333333333 125.166666667 -210.833333333 149.5 -244.5 c 128
 173.833333333 -278.166666667 202.666666667 -295 236 -295 c 0
 264 -295 292.166666667 -284 320.5 -262 c 128
 348.833333333 -240 374 -210 396 -172 c 0
 427.333333333 -118.666666667 464.833333333 -76.6666666667 508.5 -46 c 128
 552.166666667 -15.3333333333 596.666666667 0 642 0 c 0
 682.666666667 0 717.333333333 -18 746 -54 c 128
 774.666666667 -90 789 -133.333333333 789 -184 c 0
 789 -230 777 -269.166666667 753 -301.5 c 128
 729 -333.833333333 700 -350 666 -350 c 0
 625.333333333 -350 590.666666667 -332.666666667 562 -298 c 128
 533.333333333 -263.333333333 519 -221.333333333 519 -172 c 1
 568 -172 l 1
 574.666666667 -207.333333333 586.5 -236.666666667 603.5 -260 c 128
 620.5 -283.333333333 639.333333333 -295 660 -295 c 0
 678.666666667 -295 694.666666667 -284.166666667 708 -262.5 c 128
 721.333333333 -240.833333333 728 -214.666666667 728 -184 c 0
 728 -146 719.5 -114 702.5 -88 c 128
 685.5 -62 665.333333333 -49 642 -49 c 0
 607.333333333 -49 572.833333333 -61.1666666667 538.5 -85.5 c 128
 504.166666667 -109.833333333 475 -142.666666667 451 -184 c 0
 422.333333333 -233.333333333 388.833333333 -272.333333333 350.5 -301 c 128
 312.166666667 -329.666666667 274 -344 236 -344 c 0
 185.333333333 -344 142 -322.5 106 -279.5 c 128
 70 -236.5 52 -184.333333333 52 -123 c 0
 52 -65.6666666667 70 -16.5 106 24.5 c 128
 142 65.5 185.333333333 86 236 86 c 2
 580 86 l 2
 624 86 661.666666667 104 693 140 c 128
 724.333333333 176 740 219.333333333 740 270 c 256
 740 320.666666667 726.833333333 364.166666667 700.5 400.5 c 128
 674.166666667 436.833333333 642.333333333 455 605 455 c 0
 567 455 535 441.833333333 509 415.5 c 128
 483 389.166666667 470 357.333333333 470 320 c 2
 470 135 l 1
 408 135 l 1
 408 320 l 2
 408 358 393.666666667 390 365 416 c 128
 336.333333333 442 301.666666667 455 261 455 c 0
 225 455 192.333333333 445 163 425 c 128
 133.666666667 405 113 378 101 344 c 1
 115 352 129.333333333 358.166666667 144 362.5 c 128
 158.666666667 366.833333333 173 369 187 369 c 0
 220.333333333 369 249.166666667 356.833333333 273.5 332.5 c 128
 297.833333333 308.166666667 310 279.333333333 310 246 c 256
 310 212.666666667 297.833333333 183.833333333 273.5 159.5 c 128
 249.166666667 135.166666667 220.333333333 123 187 123 c 0
 146.333333333 123 113.666666667 138.5 89 169.5 c 128
 64.3333333333 200.5 52 242.333333333 52 295 c 0
 52 352.333333333 72.5 401.5 113.5 442.5 c 128
 154.5 483.5 203.666666667 504 261 504 c 0
 296.333333333 504 329.833333333 494.166666667 361.5 474.5 c 128
 393.166666667 454.833333333 419 427.666666667 439 393 c 1
 439 393 l 1
EndSplineSet
EndChar

StartChar: tml_Nya
Encoding: 19 2974 17
Width: 1100
GlyphClass: 2
Flags: HMW
AnchorPoint: "Anchor-1" 528 0 basechar 0
AnchorPoint: "Anchor-0" 600 0 basechar 0
LayerCount: 2
Back
Fore
SplineSet
380 135 m 1
 380 107.666666667 388.333333333 84.5 405 65.5 c 128
 421.666666667 46.5 442 37 466 37 c 256
 490 37 510.333333333 46.6666666667 527 66 c 128
 543.666666667 85.3333333333 552 108.333333333 552 135 c 0
 552 162.333333333 543.666666667 185.666666667 527 205 c 128
 510.333333333 224.333333333 490 234 466 234 c 256
 442 234 421.666666667 224.333333333 405 205 c 128
 388.333333333 185.666666667 380 162.333333333 380 135 c 1
 380 135 l 1
73 197 m 1
 73 257 80.8333333333 312.333333333 96.5 363 c 128
 112.166666667 413.666666667 135 456.666666667 165 492 c 1
 208 461 l 1
 182.666666667 429.666666667 163 391.5 149 346.5 c 128
 135 301.5 128 251.666666667 128 197 c 0
 128 68.3333333333 175.333333333 -41.6666666667 270 -133 c 128
 364.666666667 -224.333333333 479 -270 613 -270 c 0
 717.666666667 -270 807.333333333 -234 882 -162 c 128
 956.666666667 -90 994 -3.33333333333 994 98 c 0
 994 136 983.166666667 168.166666667 961.5 194.5 c 128
 939.833333333 220.833333333 914 234 884 234 c 0
 870.666666667 234 857.5 229 844.5 219 c 128
 831.5 209 820 195.333333333 810 178 c 1
 810 0 l 1
 749 0 l 1
 749 443 l 1
 527 443 l 2
 457.666666667 443 398.333333333 420.166666667 349 374.5 c 128
 299.666666667 328.833333333 275 273.666666667 275 209 c 0
 275 181.666666667 281.333333333 155.166666667 294 129.5 c 128
 306.666666667 103.833333333 325 81 349 61 c 1
 343 71.6666666667 338.5 83.1666666667 335.5 95.5 c 128
 332.5 107.833333333 331 121 331 135 c 0
 331 175.666666667 344 210.5 370 239.5 c 128
 396 268.5 428 283 466 283 c 256
 504 283 536 268.666666667 562 240 c 128
 588 211.333333333 601 176.333333333 601 135 c 0
 601 94.3333333333 587.833333333 59.6666666667 561.5 31 c 128
 535.166666667 2.33333333333 503.333333333 -12 466 -12 c 0
 398 -12 340 9.5 292 52.5 c 128
 244 95.5 220 147.666666667 220 209 c 0
 220 287 250 353.666666667 310 409 c 128
 370 464.333333333 442.333333333 492 527 492 c 2
 1007 492 l 1
 1007 443 l 1
 810 443 l 1
 810 246 l 1
 820 257.333333333 831.333333333 266.333333333 844 273 c 128
 856.666666667 279.666666667 870 283 884 283 c 0
 931.333333333 283 971.833333333 265 1005.5 229 c 128
 1039.16666667 193 1056 149.333333333 1056 98 c 0
 1056 -17.3333333333 1012.83333333 -115.833333333 926.5 -197.5 c 128
 840.166666667 -279.166666667 735.666666667 -320 613 -320 c 0
 463.666666667 -320 336.333333333 -269.5 231 -168.5 c 128
 125.666666667 -67.5 73 54.3333333333 73 197 c 1
 73 197 l 1
EndSplineSet
EndChar

StartChar: tml_Tta
Encoding: 20 2975 18
Width: 765
VWidth: 0
GlyphClass: 2
Flags: MW
LayerCount: 2
Back
Fore
SplineSet
85 0 m 1
 85 35 l 1
 692 35 l 1
 692 0 l 1
 85 0 l 1
81 520 m 1
 113 520 l 1
 113 0 l 1
 81 0 l 1
 81 520 l 1
EndSplineSet
EndChar

StartChar: tml_Nna
Encoding: 21 2979 19
Width: 1303
GlyphClass: 2
Flags: HMW
AnchorPoint: "Anchor-1" 840 0 basechar 0
AnchorPoint: "Anchor-0" 691 0 basechar 0
LayerCount: 2
Back
Fore
SplineSet
189 135 m 1
 189 107.666666667 196.166666667 84.5 210.5 65.5 c 128
 224.833333333 46.5 242.333333333 37 263 37 c 256
 283.666666667 37 301.166666667 46.6666666667 315.5 66 c 128
 329.833333333 85.3333333333 337 108.333333333 337 135 c 0
 337 162.333333333 329.833333333 185.666666667 315.5 205 c 128
 301.166666667 224.333333333 283.666666667 234 263 234 c 256
 242.333333333 234 224.833333333 224.333333333 210.5 205 c 128
 196.166666667 185.666666667 189 162.333333333 189 135 c 1
 189 135 l 1
484 197 m 1
 484 153 490 115.333333333 502 84 c 128
 514 52.6666666667 528.666666667 37 546 37 c 256
 563.333333333 37 577.833333333 52.5 589.5 83.5 c 128
 601.166666667 114.5 607 152.333333333 607 197 c 0
 607 227 601.666666667 256.166666667 591 284.5 c 128
 580.333333333 312.833333333 565.333333333 339 546 363 c 1
 526 339 510.666666667 312.833333333 500 284.5 c 128
 489.333333333 256.166666667 484 227 484 197 c 1
 484 197 l 1
779 197 m 1
 779 153 785 115.333333333 797 84 c 128
 809 52.6666666667 823.666666667 37 841 37 c 256
 858.333333333 37 872.833333333 52.5 884.5 83.5 c 128
 896.166666667 114.5 902 152.333333333 902 197 c 0
 902 229 896.666666667 259.666666667 886 289 c 128
 875.333333333 318.333333333 860.333333333 345 841 369 c 1
 821 345 805.666666667 318.333333333 795 289 c 128
 784.333333333 259.666666667 779 229 779 197 c 1
 779 197 l 1
54 209 m 1
 54 290.333333333 84 359.833333333 144 417.5 c 128
 204 475.166666667 276.333333333 504 361 504 c 0
 399.666666667 504 434.833333333 499.333333333 466.5 490 c 128
 498.166666667 480.666666667 524.666666667 467 546 449 c 1
 567.333333333 467 590.666666667 480.666666667 616 490 c 128
 641.333333333 499.333333333 667 504 693 504 c 0
 721.666666667 504 749.166666667 499.333333333 775.5 490 c 128
 801.833333333 480.666666667 825.666666667 467 847 449 c 1
 863.666666667 463 883 473.666666667 905 481 c 128
 927 488.333333333 950.666666667 492 976 492 c 2
 1296 492 l 1
 1296 443 l 1
 1148 443 l 1
 1148 0 l 1
 1087 0 l 1
 1087 443 l 1
 976 443 l 2
 961.333333333 443 945.666666667 440.333333333 929 435 c 128
 912.333333333 429.666666667 895.333333333 422 878 412 c 1
 906 379.333333333 927.333333333 344.333333333 942 307 c 128
 956.666666667 269.666666667 964 233 964 197 c 0
 964 139.666666667 951.833333333 90.5 927.5 49.5 c 128
 903.166666667 8.5 874.333333333 -12 841 -12 c 256
 807.666666667 -12 778.833333333 8.5 754.5 49.5 c 128
 730.166666667 90.5 718 139.666666667 718 197 c 0
 718 243.666666667 725 285.833333333 739 323.5 c 128
 753 361.166666667 772.666666667 390.666666667 798 412 c 1
 781.333333333 426 764 436.666666667 746 444 c 128
 728 451.333333333 710.333333333 455 693 455 c 256
 675.666666667 455 657.666666667 450.666666667 639 442 c 128
 620.333333333 433.333333333 601.666666667 421.333333333 583 406 c 1
 610.333333333 383.333333333 631.5 353.666666667 646.5 317 c 128
 661.5 280.333333333 669 240.333333333 669 197 c 0
 669 139.666666667 656.833333333 90.5 632.5 49.5 c 128
 608.166666667 8.5 579.333333333 -12 546 -12 c 256
 512.666666667 -12 483.833333333 8.5 459.5 49.5 c 128
 435.166666667 90.5 423 139.666666667 423 197 c 0
 423 235.666666667 430 273.333333333 444 310 c 128
 458 346.666666667 477.666666667 380.666666667 503 412 c 1
 486.333333333 426 466 436.666666667 442 444 c 128
 418 451.333333333 391 455 361 455 c 0
 289.666666667 455 228.833333333 431 178.5 383 c 128
 128.166666667 335 103 277 103 209 c 0
 103 172.333333333 109 139 121 109 c 128
 133 79 149.666666667 55 171 37 c 1
 161 54.3333333333 153.333333333 71.3333333333 148 88 c 128
 142.666666667 104.666666667 140 120.333333333 140 135 c 0
 140 175.666666667 152.166666667 210.5 176.5 239.5 c 128
 200.833333333 268.5 229.666666667 283 263 283 c 256
 296.333333333 283 325.166666667 268.666666667 349.5 240 c 128
 373.833333333 211.333333333 386 176.333333333 386 135 c 0
 386 94.3333333333 371.666666667 59.6666666667 343 31 c 128
 314.333333333 2.33333333333 279.333333333 -12 238 -12 c 0
 187.333333333 -12 144 9.5 108 52.5 c 128
 72 95.5 54 147.666666667 54 209 c 1
 54 209 l 1
EndSplineSet
EndChar

StartChar: tml_Ta
Encoding: 22 2980 20
Width: 667
GlyphClass: 2
Flags: HMW
AnchorPoint: "Anchor-3" -1 0 basechar 0
AnchorPoint: "Anchor-1" 123 0 basechar 0
AnchorPoint: "Anchor-0" 344 0 basechar 0
LayerCount: 2
Back
Fore
SplineSet
219 443 m 1
 219 270 l 1
 342 270 l 1
 342 443 l 1
 219 443 l 1
 219 443 l 1
96 160 m 1
 96 126.666666667 109.166666667 97.8333333333 135.5 73.5 c 128
 161.833333333 49.1666666667 193.666666667 37 231 37 c 0
 261 37 287 46.6666666667 309 66 c 128
 331 85.3333333333 342 108.333333333 342 135 c 2
 342 221 l 1
 157 221 l 2
 139.666666667 221 125.166666667 215.166666667 113.5 203.5 c 128
 101.833333333 191.833333333 96 177.333333333 96 160 c 1
 96 160 l 1
157 492 m 1
 575 492 l 1
 575 443 l 1
 403 443 l 1
 403 270 l 1
 452 270 l 2
 499.333333333 270 539.833333333 255.666666667 573.5 227 c 128
 607.166666667 198.333333333 624 163.666666667 624 123 c 0
 624 55 601.333333333 -3 556 -51 c 128
 510.666666667 -99 455.666666667 -123 391 -123 c 2
 157 -123 l 2
 136.333333333 -123 119 -131.333333333 105 -148 c 128
 91 -164.666666667 84 -185 84 -209 c 0
 84 -225.666666667 88.1666666667 -241.5 96.5 -256.5 c 128
 104.833333333 -271.5 117 -284.333333333 133 -295 c 1
 96 -338 l 1
 73.3333333333 -324.666666667 55.3333333333 -306.666666667 42 -284 c 128
 28.6666666667 -261.333333333 22 -236.333333333 22 -209 c 0
 22 -171 35.1666666667 -139 61.5 -113 c 128
 87.8333333333 -87 119.666666667 -74 157 -74 c 2
 391 -74 l 2
 438.333333333 -74 478.833333333 -54.6666666667 512.5 -16 c 128
 546.166666667 22.6666666667 563 69 563 123 c 0
 563 150.333333333 552.166666667 173.5 530.5 192.5 c 128
 508.833333333 211.5 482.666666667 221 452 221 c 2
 403 221 l 1
 403 135 l 2
 403 94.3333333333 386.166666667 59.6666666667 352.5 31 c 128
 318.833333333 2.33333333333 278.333333333 -12 231 -12 c 0
 177 -12 130.666666667 4.83333333333 92 38.5 c 128
 53.3333333333 72.1666666667 34 112.666666667 34 160 c 0
 34 190 46.1666666667 215.833333333 70.5 237.5 c 128
 94.8333333333 259.166666667 123.666666667 270 157 270 c 1
 157 492 l 1
 157 492 l 1
EndSplineSet
EndChar

StartChar: tml_Na
Encoding: 23 2984 21
Width: 657
GlyphClass: 2
Flags: HMW
AnchorPoint: "Anchor-1" 74 0 basechar 0
AnchorPoint: "Anchor-0" 334 0 basechar 0
LayerCount: 2
Back
Fore
SplineSet
92 492 m 1
 535 492 l 1
 535 443 l 1
 350 443 l 1
 350 283 l 1
 357.333333333 297.666666667 369.833333333 309.5 387.5 318.5 c 128
 405.166666667 327.5 425.666666667 332 449 332 c 0
 493 332 530.5 311.5 561.5 270.5 c 128
 592.5 229.5 608 180.333333333 608 123 c 0
 608 55 585.333333333 -3 540 -51 c 128
 494.666666667 -99 439.666666667 -123 375 -123 c 2
 141 -123 l 2
 120.333333333 -123 103 -131.333333333 89 -148 c 128
 75 -164.666666667 68 -185 68 -209 c 0
 68 -223.666666667 73.3333333333 -239.666666667 84 -257 c 128
 94.6666666667 -274.333333333 109.666666667 -291 129 -307 c 1
 86 -344 l 1
 60.6666666667 -322.666666667 41 -300.166666667 27 -276.5 c 128
 13 -252.833333333 6 -230.333333333 6 -209 c 0
 6 -171 19.1666666667 -139 45.5 -113 c 128
 71.8333333333 -87 103.666666667 -74 141 -74 c 2
 375 -74 l 2
 422.333333333 -74 462.833333333 -54.6666666667 496.5 -16 c 128
 530.166666667 22.6666666667 547 69 547 123 c 0
 547 163.666666667 537.333333333 198.333333333 518 227 c 128
 498.666666667 255.666666667 475.666666667 270 449 270 c 0
 423 270 400.5 262.833333333 381.5 248.5 c 128
 362.5 234.166666667 352 217 350 197 c 2
 350 0 l 1
 289 0 l 1
 289 443 l 1
 154 443 l 1
 154 0 l 1
 92 0 l 1
 92 492 l 1
 92 492 l 1
EndSplineSet
EndChar

StartChar: tml_Nnna
Encoding: 24 2985 22
Width: 993
GlyphClass: 2
Flags: HMW
AnchorPoint: "Anchor-1" 589 0 basechar 0
AnchorPoint: "Anchor-0" 534 0 basechar 0
LayerCount: 2
Back
Fore
SplineSet
187 135 m 1
 187 107.666666667 195.333333333 84.5 212 65.5 c 128
 228.666666667 46.5 249 37 273 37 c 256
 297 37 317.333333333 46.6666666667 334 66 c 128
 350.666666667 85.3333333333 359 108.333333333 359 135 c 0
 359 162.333333333 350.666666667 185.666666667 334 205 c 128
 317.333333333 224.333333333 297 234 273 234 c 256
 249 234 228.666666667 224.333333333 212 205 c 128
 195.333333333 185.666666667 187 162.333333333 187 135 c 1
 187 135 l 1
519 197 m 1
 519 153 524.833333333 115.333333333 536.5 84 c 128
 548.166666667 52.6666666667 562.666666667 37 580 37 c 256
 597.333333333 37 612 52.5 624 83.5 c 128
 636 114.5 642 152.333333333 642 197 c 0
 642 229 636.666666667 259.666666667 626 289 c 128
 615.333333333 318.333333333 600 345 580 369 c 1
 560 345 544.833333333 318.333333333 534.5 289 c 128
 524.166666667 259.666666667 519 229 519 197 c 1
 519 197 l 1
728 492 m 1
 986 492 l 1
 986 443 l 1
 888 443 l 1
 888 0 l 1
 826 0 l 1
 826 443 l 1
 728 443 l 2
 706.666666667 443 686.333333333 439.833333333 667 433.5 c 128
 647.666666667 427.166666667 631 418 617 406 c 1
 644.333333333 383.333333333 665.5 353.666666667 680.5 317 c 128
 695.5 280.333333333 703 240.333333333 703 197 c 0
 703 139.666666667 691 90.5 667 49.5 c 128
 643 8.5 614 -12 580 -12 c 0
 546.666666667 -12 517.833333333 8.5 493.5 49.5 c 128
 469.166666667 90.5 457 139.666666667 457 197 c 0
 457 239 464.666666667 277.5 480 312.5 c 128
 495.333333333 347.5 516.333333333 376.666666667 543 400 c 1
 521.666666667 418 496.333333333 431.666666667 467 441 c 128
 437.666666667 450.333333333 405.666666667 455 371 455 c 0
 296.333333333 455 232.666666667 431 180 383 c 128
 127.333333333 335 101 277 101 209 c 0
 101 183 105.333333333 159.333333333 114 138 c 128
 122.666666667 116.666666667 134.666666667 99.3333333333 150 86 c 1
 146 93.3333333333 143 101.166666667 141 109.5 c 128
 139 117.833333333 138 126.333333333 138 135 c 0
 138 175.666666667 151 210.5 177 239.5 c 128
 203 268.5 235 283 273 283 c 256
 311 283 343 268.666666667 369 240 c 128
 395 211.333333333 408 176.333333333 408 135 c 0
 408 94.3333333333 394.833333333 59.6666666667 368.5 31 c 128
 342.166666667 2.33333333333 310.333333333 -12 273 -12 c 0
 211.666666667 -12 159.5 9.5 116.5 52.5 c 128
 73.5 95.5 52 147.666666667 52 209 c 0
 52 290.333333333 83 359.833333333 145 417.5 c 128
 207 475.166666667 282.333333333 504 371 504 c 0
 414.333333333 504 454.166666667 498.666666667 490.5 488 c 128
 526.833333333 477.333333333 556.666666667 462.333333333 580 443 c 1
 598.666666667 458.333333333 620.833333333 470.333333333 646.5 479 c 128
 672.166666667 487.666666667 699.333333333 492 728 492 c 1
 728 492 l 1
EndSplineSet
EndChar

StartChar: tml_Pa
Encoding: 25 2986 23
Width: 546
VWidth: 0
GlyphClass: 2
Flags: MW
LayerCount: 2
Back
Fore
SplineSet
469 520 m 1
 502 520 l 1
 502 0 l 1
 469 0 l 1
 469 520 l 1
85 0 m 1
 85 35 l 1
 502 35 l 1
 502 0 l 1
 85 0 l 1
81 520 m 1
 113 520 l 1
 113 0 l 1
 81 0 l 1
 81 520 l 1
EndSplineSet
EndChar

StartChar: tml_Ma
Encoding: 26 2990 24
Width: 684
VWidth: 0
GlyphClass: 2
Flags: MW
LayerCount: 2
Back
Fore
SplineSet
544 2 m 2
 545.243164062 1 l 1
 59.9052734375 1 l 2
 57.41015625 1 l 1
 57.41015625 517.405273438 l 1
 93.400390625 517.405273438 l 1
 93.400390625 34 l 1
 296 34 l 1
 296 313.172851562 l 0
 296.078125 493.520507812 402.087890625 524.409179688 454.370117188 524.157226562 c 0
 592.9375 523.48828125 632.262695312 376.747070312 631 284.4296875 c 0
 629.279296875 158.608398438 567 47 544 2 c 2
522.032226562 34 m 1
 522.032226562 34 597.643554688 168.642578125 597.317382812 284.66796875 c 0
 597.03125 386.321289062 550.81640625 490.198242188 456.112304688 490.178710938 c 0
 373.055664062 490.161132812 330.766601562 422.10546875 330 312.272460938 c 0
 330 34 l 1
 522.032226562 34 l 1
EndSplineSet
EndChar

StartChar: tml_Ya
Encoding: 27 2991 25
Width: 878
GlyphClass: 2
Flags: MW
AnchorPoint: "Anchor-4" 848 0 basechar 0
AnchorPoint: "Anchor-1" 533 0 basechar 0
AnchorPoint: "Anchor-0" 507 0 basechar 0
LayerCount: 2
Back
Fore
SplineSet
497 254 m 0
 497 131.848122189 497.844827407 -4.2626953125 341.723632812 -4.2626953125 c 0
 207.300870252 -4.2626953125 190.964960004 85.6896350177 191.766601562 147.911132812 c 1
 223.295898438 147.911132812 l 1
 223.983855074 43.1025390625 281.122953492 26.626953125 343.498046875 26.626953125 c 0
 465.172684608 26.626953125 465.181640625 142.266167362 465.181640625 252.297851562 c 0
 497 254 l 0
192 520 m 1
 224 520 l 1
 224 130 l 1
 192 130 l 1
 192 520 l 1
754 520 m 1
 787 520 l 1
 787 0 l 1
 754 0 l 1
 754 520 l 1
469 0 m 1
 469 35 l 1
 787 35 l 1
 787 0 l 1
 469 0 l 1
465 520 m 1
 497 520 l 1
 497 130 l 1
 497 0 l 1
 465 0 l 1
 465 129 l 1
 465 520 l 1
EndSplineSet
EndChar

StartChar: tml_Ra
Encoding: 28 2992 26
Width: 546
VWidth: 0
GlyphClass: 2
Flags: MW
LayerCount: 2
Back
Fore
SplineSet
476.049804688 24.5478515625 m 5
 500.798828125 -0.201171875 l 5
 205.935546875 -295.064453125 l 5
 181.186523438 -270.315429688 l 5
 476.049804688 24.5478515625 l 5
113 0 m 1
 80 0 l 1
 80 520 l 1
 113 520 l 1
 113 0 l 1
497 520 m 1
 497 485 l 1
 80 485 l 1
 80 520 l 1
 497 520 l 1
501 0 m 1
 469 0 l 1
 469 520 l 1
 501 520 l 1
 501 0 l 1
EndSplineSet
Substitution2: "Single Substitution lookup 23 subtable" tml_MatraAa
EndChar

StartChar: tml_Rra
Encoding: 29 2993 27
Width: 697
GlyphClass: 2
Flags: HMW
AnchorPoint: "Anchor-1" 190 0 basechar 0
AnchorPoint: "Anchor-0" 321 0 basechar 0
LayerCount: 2
Back
Fore
SplineSet
89 369 m 1
 89 407 102 439 128 465 c 128
 154 491 186 504 224 504 c 0
 246.666666667 504 267.5 498.5 286.5 487.5 c 128
 305.5 476.5 319.333333333 461.666666667 328 443 c 1
 337.333333333 461.666666667 353 476.5 375 487.5 c 128
 397 498.5 422.333333333 504 451 504 c 0
 500.333333333 504 542.333333333 477.5 577 424.5 c 128
 611.666666667 371.5 629 308 629 234 c 0
 629 135.333333333 603.833333333 51.1666666667 553.5 -18.5 c 128
 503.166666667 -88.1666666667 442.333333333 -123 371 -123 c 2
 175 -123 l 2
 147.666666667 -123 128.666666667 -136.666666667 118 -164 c 128
 107.333333333 -191.333333333 109.666666667 -218.666666667 125 -246 c 1
 76 -270 l 1
 68 -256 62 -242.666666667 58 -230 c 128
 54 -217.333333333 52 -206.333333333 52 -197 c 0
 52 -163.666666667 64 -134.833333333 88 -110.5 c 128
 112 -86.1666666667 141 -74 175 -74 c 2
 371 -74 l 2
 425 -74 471.333333333 -44 510 16 c 128
 548.666666667 76 568 148.666666667 568 234 c 0
 568 295.333333333 557.166666667 347.5 535.5 390.5 c 128
 513.833333333 433.5 487.666666667 455 457 455 c 0
 429.666666667 455 406.5 446.5 387.5 429.5 c 128
 368.5 412.5 359 392.333333333 359 369 c 2
 359 0 l 1
 297 0 l 1
 297 369 l 2
 297 393 289.833333333 413.333333333 275.5 430 c 128
 261.166666667 446.666666667 244 455 224 455 c 0
 203.333333333 455 185.833333333 446.5 171.5 429.5 c 128
 157.166666667 412.5 150 392.333333333 150 369 c 2
 150 0 l 1
 89 0 l 1
 89 369 l 1
 89 369 l 1
EndSplineSet
EndChar

StartChar: tml_La
Encoding: 30 2994 28
Width: 750
GlyphClass: 2
Flags: HMW
HStem: -6.47168 30<189.814 335.122 591.224 723.645> 133.806 30<168.017 290.973> 349.207 30<198.511 270.221> 519 30<504.868 573.356 665.703 748.297> 532.281 30<193.721 327.827>
VStem: 43 32<255.687 414.104> 129.828 32<203.247 307.987> 330.009 32<201.841 310.719> 446.001 32<163.715 380.157> 528.68 32<72.3799 145.627> 608.78 32<249.35 443.686> 802.577 32<122.281 434.025>
LayerCount: 2
Back
Fore
SplineSet
99 122 m 0
 99 190 154 245 222 245 c 0
 290 245 345 190 345 122 c 0
 345 54 291 -1 223 -1 c 0
 155 -1 99 54 99 122 c 0
131 122 m 0
 131 72 172 31 222 31 c 0
 272 31 313 72 313 122 c 0
 313 172 272 213 222 213 c 0
 172 213 131 172 131 122 c 0
179 7 m 0
 -9 81.15234375 12.87890625 520 279 520 c 0
 278 486 l 0
 56.3251953125 486 15 96.03125 215 21 c 0
 179 7 l 0
527.575195312 501 m 1
 546 529 l 1
 613.94921875 499 697.864257812 411.403320312 697.864257812 253.451171875 c 0
 697.864257812 130.478515625 675.771484375 -6.546875 538.119140625 -6.546875 c 0
 420.224609375 -6.546875 394.221488318 59.7684552425 394.126953125 135.4140625 c 0
 394 237 446.888671875 322.1171875 403 409 c 0
 373.606445312 467.188476562 328 485 278 486 c 1
 278 520 l 1
 343 519 399.928710938 496.44921875 434 427 c 4
 485.22265625 322.590820312 428.75390625 215.130859375 429.69140625 135.626953125 c 0
 430.694335938 50.6123046875 472.2265625 24.3427734375 539.893554688 24.3427734375 c 0
 641.567382812 24.3427734375 664.577148438 141.006835938 664.577148438 252.013671875 c 0
 664.577148438 372.8671875 602.736328125 466 527.575195312 501 c 1
EndSplineSet
EndChar

StartChar: tml_Lla
Encoding: 31 2995 29
Width: 924
GlyphClass: 2
Flags: HMW
AnchorPoint: "Anchor-1" 497 0 basechar 0
AnchorPoint: "Anchor-0" 476 0 basechar 0
LayerCount: 2
Back
Fore
SplineSet
204 148 m 1
 204 120.666666667 211.166666667 97.3333333333 225.5 78 c 128
 239.833333333 58.6666666667 257.333333333 49 278 49 c 256
 298.666666667 49 316.166666667 58.6666666667 330.5 78 c 128
 344.833333333 97.3333333333 352 120.666666667 352 148 c 0
 352 172 344.833333333 192.333333333 330.5 209 c 128
 316.166666667 225.666666667 298.666666667 234 278 234 c 256
 257.333333333 234 239.833333333 225.5 225.5 208.5 c 128
 211.166666667 191.5 204 171.333333333 204 148 c 1
 204 148 l 1
487 492 m 1
 917 492 l 1
 917 443 l 1
 782 443 l 1
 782 0 l 1
 720 0 l 1
 720 443 l 1
 536 443 l 1
 536 0 l 1
 475 0 l 1
 475 246 l 2
 475 303.333333333 456.833333333 352.5 420.5 393.5 c 128
 384.166666667 434.5 340.666666667 455 290 455 c 256
 239.333333333 455 196 433.5 160 390.5 c 128
 124 347.5 106 295.333333333 106 234 c 0
 106 202.666666667 112.333333333 173 125 145 c 128
 137.666666667 117 155.666666667 93.3333333333 179 74 c 1
 171 88 165 101.333333333 161 114 c 128
 157 126.666666667 155 138 155 148 c 0
 155 186 167 218 191 244 c 128
 215 270 244 283 278 283 c 0
 311.333333333 283 340.166666667 269.833333333 364.5 243.5 c 128
 388.833333333 217.166666667 401 185.333333333 401 148 c 0
 401 104 386.666666667 66.3333333333 358 35 c 128
 329.333333333 3.66666666667 294.333333333 -12 253 -12 c 0
 199 -12 152.833333333 12 114.5 60 c 128
 76.1666666667 108 57 166 57 234 c 0
 57 308.666666667 79.6666666667 372.333333333 125 425 c 128
 170.333333333 477.666666667 225.333333333 504 290 504 c 0
 333.333333333 504 372.666666667 495.166666667 408 477.5 c 128
 443.333333333 459.833333333 469.666666667 436 487 406 c 1
 487 492 l 1
 487 492 l 1
EndSplineSet
EndChar

StartChar: tml_Llla
Encoding: 32 2996 30
Width: 824
GlyphClass: 2
Flags: HMW
AnchorPoint: "Anchor-1" 284 0 basechar 0
AnchorPoint: "Anchor-0" 377 0 basechar 0
LayerCount: 2
Back
Fore
SplineSet
449 369 m 1
 449 49 l 1
 621 49 l 2
 645 49 665.333333333 62.1666666667 682 88.5 c 128
 698.666666667 114.833333333 707 146.666666667 707 184 c 0
 707 258.666666667 689 322.5 653 375.5 c 128
 617 428.5 573.333333333 455 522 455 c 0
 501.333333333 455 484 446.5 470 429.5 c 128
 456 412.5 449 392.333333333 449 369 c 1
 449 369 l 1
522 504 m 1
 590 504 648 472.833333333 696 410.5 c 128
 744 348.166666667 768 272.666666667 768 184 c 0
 768 133.333333333 753.666666667 90 725 54 c 128
 696.333333333 18 661.666666667 0 621 0 c 2
 449 0 l 1
 453.666666667 -28.6666666667 466.5 -52.1666666667 487.5 -70.5 c 128
 508.5 -88.8333333333 532.333333333 -98 559 -98 c 2
 707 -98 l 1
 707 -148 l 1
 608 -148 l 2
 578 -148 549.833333333 -155.666666667 523.5 -171 c 128
 497.166666667 -186.333333333 476.333333333 -207.333333333 461 -234 c 0
 441 -268.666666667 414.5 -295.666666667 381.5 -315 c 128
 348.5 -334.333333333 313.666666667 -344 277 -344 c 0
 226.333333333 -344 182.833333333 -329.666666667 146.5 -301 c 128
 110.166666667 -272.333333333 92 -237.666666667 92 -197 c 0
 92 -163.666666667 104.166666667 -134.833333333 128.5 -110.5 c 128
 152.833333333 -86.1666666667 181.666666667 -74 215 -74 c 2
 313 -74 l 1
 313 -123 l 1
 215 -123 l 2
 197.666666667 -123 183.166666667 -130.166666667 171.5 -144.5 c 128
 159.833333333 -158.833333333 154 -176.333333333 154 -197 c 0
 154 -224.333333333 166 -247.5 190 -266.5 c 128
 214 -285.5 243 -295 277 -295 c 0
 299.666666667 -295 321 -289.5 341 -278.5 c 128
 361 -267.5 376.333333333 -252.666666667 387 -234 c 0
 398.333333333 -213.333333333 412.5 -194.5 429.5 -177.5 c 128
 446.5 -160.5 465.333333333 -146.333333333 486 -135 c 1
 456.666666667 -124.333333333 432.833333333 -106.5 414.5 -81.5 c 128
 396.166666667 -56.5 387 -29.3333333333 387 0 c 1
 92 0 l 1
 92 492 l 1
 154 492 l 1
 154 49 l 1
 387 49 l 1
 387 369 l 2
 387 407 400.166666667 439 426.5 465 c 128
 452.833333333 491 484.666666667 504 522 504 c 1
 522 504 l 1
EndSplineSet
EndChar

StartChar: tml_Va
Encoding: 33 2997 31
Width: 747
VWidth: 0
GlyphClass: 2
Flags: MW
LayerCount: 2
Back
Fore
SplineSet
103.176757812 118.171875 m 128
 103.176757812 93.171875 112.093424479 71.7552083333 129.926757812 53.921875 c 128
 147.760091145 36.0885416667 169.176757812 27.171875 194.176757812 27.171875 c 128
 219.176757812 27.171875 240.593424479 36.0885416667 258.426757812 53.921875 c 128
 276.260091145 71.7552083333 285.176757812 93.171875 285.176757812 118.171875 c 128
 285.176757812 143.171875 276.260091145 164.588541667 258.426757812 182.421875 c 128
 240.593424479 200.255208333 219.176757812 209.171875 194.176757812 209.171875 c 128
 169.176757812 209.171875 147.760091145 200.255208333 129.926757812 182.421875 c 128
 112.093424479 164.588541667 103.176757812 143.171875 103.176757812 118.171875 c 128
71.1767578125 118.171875 m 128
 71.1767578125 152.171875 83.1767578124 181.171875 107.176757812 205.171875 c 128
 131.176757812 229.171875 160.176757812 241.171875 194.176757812 241.171875 c 128
 228.176757812 241.171875 257.176757812 229.171875 281.176757812 205.171875 c 128
 305.176757812 181.171875 317.176757812 152.171875 317.176757812 118.171875 c 128
 317.176757812 84.171875 305.176757812 55.171875 281.176757812 31.171875 c 128
 257.176757812 7.171875 228.176757812 -4.828125 194.176757812 -4.828125 c 128
 160.176757812 -4.828125 131.176757812 7.17187499999 107.176757812 31.171875 c 128
 83.1767578124 55.171875 71.1767578125 84.171875 71.1767578125 118.171875 c 128
202.5078125 -4.990234375 m 1049
202.5078125 -4.990234375 m 1
 174.41260239 -4.990234375 149.553071472 1.75573435551 127.929219747 15.2476718165 c 128
 106.305368021 28.7396092775 89.3016075135 46.7899724838 76.9179382235 69.3987614352 c 128
 64.5342689334 92.0075503866 55.2747254567 116.536005393 49.1393077933 142.984126454 c 128
 43.0038901299 169.432247515 39.9554931265 197.104204389 39.9941167832 225.999997074 c 0
 40.0471776009 265.696766395 44.5795220407 302.417810516 53.5911501024 336.163129437 c 128
 62.6027781642 369.908448358 74.8720481498 398.730930554 90.3989600593 422.630576026 c 128
 105.925871969 446.530221498 124.104521488 466.940961744 144.934908617 483.862796764 c 128
 165.765295746 500.784631784 188.025461355 513.347541852 211.715405443 521.551526969 c 128
 235.405349531 529.755512086 259.919485217 533.95741195 285.2578125 534.157226562 c 0
 355.334574882 534.709842405 409.790212833 513.790284069 448.624726352 471.398551554 c 128
 487.459239871 429.006819039 506.671896191 366.683864354 506.262695312 284.4296875 c 0
 505.869871991 203.853882256 485.470627859 125.556688939 445.064962915 49.5381075475 c 1
 436.330078125 34.76953125 l 1
 665.97265625 34.76953125 l 1
 665.97265625 520.405273438 l 1
 701.752929688 520.405273438 l 1
 701.752929688 1 l 1
 699.2578125 1 l 1
 392.919921875 1 l 1
 392.590820312 33 l 2
 394.72733689 36.341060146 397.568004111 41.0364222707 401.112821975 47.0860863741 c 128
 404.657639839 53.1357504775 410.957522481 65.5858060593 420.012469902 84.4362531196 c 128
 429.067417323 103.28670018 437.050788757 122.20794544 443.962584204 141.1999889 c 128
 450.874379651 160.19203236 457.154356108 183.090057578 462.802513575 209.894064556 c 128
 468.450671041 236.698071533 471.251525891 262.289372931 471.205078125 286.66796875 c 0
 471.074786323 353.705060258 454.842242136 405.884610429 422.507445565 443.206619262 c 128
 390.172648994 480.528628095 344.670167139 499.185991987 286 499.178710938 c 0
 227.164091792 499.17140932 177.248280862 474.510343646 136.252567208 425.195513914 c 128
 95.2568535535 375.880684182 74.7615316718 306.815512877 74.7666015625 218 c 0
 74.767649037 199.650101273 76.3709559773 182.558485244 79.5765223836 166.72515191 c 128
 82.7820887898 150.891818577 85.9873933274 139.645959925 89.1924359965 132.987575955 c 2
 94 123 l 1
 105 82 l 1
 105 64.4571125893 114.067193423 50.9333699033 132.20158027 41.428771942 c 128
 150.335967117 31.9241739807 173.327692964 27.171875 201.176757812 27.171875 c 0
 206.547496763 27.171875 212.393813783 27.2226848306 218.71570887 27.3243044919 c 2
 224.922392126 26.8846701237 l 1
 223.323637341 26.274658767 l 2
 205.381335842 19.7415534829 198.442727562 9.31992243557 202.5078125 -4.990234375 c 1
EndSplineSet
EndChar

StartChar: tml_Sha
Encoding: 34 2998 32
Width: 1051
GlyphClass: 2
Flags: HMW
AnchorPoint: "Anchor-1" 583 0 basechar 0
AnchorPoint: "Anchor-0" 561 0 basechar 0
LayerCount: 2
Back
Fore
SplineSet
691 443 m 1
 691 128 l 2
 691 75.3333333333 725 49 793 49 c 128
 861 49 895 75.3333333333 895 128 c 2
 895 443 l 1
 691 443 l 1
361 492 m 1
 959 492 l 1
 959 128 l 2
 959 42.6666666667 901.666666667 0 787 0 c 0
 680.333333333 0 627 42.6666666667 627 128 c 2
 627 443 l 1
 424 443 l 1
 424 155 l 2
 424 51.6666666667 359 0 229 0 c 0
 139 0 93.6666666667 41.6666666667 93 125 c 2
 93 492 l 1
 157 492 l 1
 157 138 l 2
 157 78.6666666667 185.333333333 49 242 49 c 0
 321.333333333 48.3333333333 361 82.6666666667 361 152 c 2
 361 492 l 1
EndSplineSet
EndChar

StartChar: tml_Ssa
Encoding: 35 2999 33
Width: 1146
GlyphClass: 2
Flags: HMW
AnchorPoint: "Anchor-1" 551 0 basechar 0
AnchorPoint: "Anchor-0" 620 0 basechar 0
LayerCount: 2
Back
Fore
SplineSet
203 135 m 1
 203 107.666666667 210.166666667 84.5 224.5 65.5 c 128
 238.833333333 46.5 256.333333333 37 277 37 c 0
 301 37 321.333333333 46.6666666667 338 66 c 128
 354.666666667 85.3333333333 363 108.333333333 363 135 c 0
 363 159 354.5 179.333333333 337.5 196 c 128
 320.5 212.666666667 300.333333333 221 277 221 c 0
 256.333333333 221 238.833333333 212.666666667 224.5 196 c 128
 210.166666667 179.333333333 203 159 203 135 c 1
 203 135 l 1
719 344 m 1
 719 310.666666667 731.166666667 281.833333333 755.5 257.5 c 128
 779.833333333 233.166666667 808.666666667 221 842 221 c 0
 848.666666667 221 855 221.666666667 861 223 c 128
 870 225 870 225 879 227 c 1
 879 369 l 2
 879 386.333333333 871.833333333 400.833333333 857.5 412.5 c 128
 843.166666667 424.166666667 825.666666667 430 805 430 c 0
 781 430 760.666666667 421.666666667 744 405 c 128
 727.333333333 388.333333333 719 368 719 344 c 1
 719 344 l 1
940 49 m 1
 1026 49 l 1
 1026 240 l 1
 1014.66666667 226 1001.66666667 214.333333333 987 205 c 128
 972.333333333 195.666666667 956.666666667 188.666666667 940 184 c 1
 940 49 l 1
 940 49 l 1
805 492 m 1
 843 492 875 479.833333333 901 455.5 c 128
 927 431.166666667 940 402.333333333 940 369 c 2
 940 246 l 1
 962 254 981.5 263.166666667 998.5 273.5 c 128
 1015.5 283.833333333 1029 295 1039 307 c 1
 1088 307 l 1
 1088 0 l 1
 940 0 l 1
 940 -295 l 1
 879 -295 l 1
 879 0 l 1
 461 0 l 1
 461 37 l 1
 481 61 496.166666667 91 506.5 127 c 128
 516.833333333 163 522 202.666666667 522 246 c 0
 522 303.333333333 501.666666667 352.5 461 393.5 c 128
 420.333333333 434.5 371 455 313 455 c 0
 255.666666667 455 206.5 432.166666667 165.5 386.5 c 128
 124.5 340.833333333 104 285.666666667 104 221 c 0
 104 191 109.333333333 163 120 137 c 128
 130.666666667 111 146 90 166 74 c 1
 162 85.3333333333 159 96.1666666667 157 106.5 c 128
 155 116.833333333 154 126.333333333 154 135 c 0
 154 173 166.666666667 205 192 231 c 128
 217.333333333 257 247.666666667 270 283 270 c 256
 318.333333333 270 348.666666667 257 374 231 c 128
 399.333333333 205 412 173 412 135 c 0
 412 94.3333333333 397.666666667 59.6666666667 369 31 c 128
 340.333333333 2.33333333333 305.333333333 -12 264 -12 c 0
 206.666666667 -12 157.5 10.6666666667 116.5 56 c 128
 75.5 101.333333333 55 156.333333333 55 221 c 0
 55 299 80.3333333333 365.666666667 131 421 c 128
 181.666666667 476.333333333 242.333333333 504 313 504 c 0
 387.666666667 504 451.5 478.833333333 504.5 428.5 c 128
 557.5 378.166666667 584 317.333333333 584 246 c 0
 584 209.333333333 579.833333333 174.333333333 571.5 141 c 128
 563.166666667 107.666666667 551 77 535 49 c 1
 879 49 l 1
 879 172 l 1
 876.333333333 171.333333333 871.166666667 171.166666667 863.5 171.5 c 128
 855.833333333 171.833333333 848.666666667 172 842 172 c 0
 791.333333333 172 748 188.833333333 712 222.5 c 128
 676 256.166666667 658 296.666666667 658 344 c 0
 658 384.666666667 672.333333333 419.5 701 448.5 c 128
 729.666666667 477.5 764.333333333 492 805 492 c 1
 805 492 l 1
EndSplineSet
EndChar

StartChar: tml_Sa
Encoding: 36 3000 34
Width: 1100
GlyphClass: 2
Flags: HMW
AnchorPoint: "Anchor-2" 1096 0 basechar 0
AnchorPoint: "Anchor-0" 544 0 basechar 0
LayerCount: 2
Back
Fore
SplineSet
215 135 m 1
 215 107.666666667 222.166666667 84.5 236.5 65.5 c 128
 250.833333333 46.5 268.333333333 37 289 37 c 256
 309.666666667 37 327.166666667 46.6666666667 341.5 66 c 128
 355.833333333 85.3333333333 363 108.333333333 363 135 c 0
 363 162.333333333 355.833333333 185.666666667 341.5 205 c 128
 327.166666667 224.333333333 309.666666667 234 289 234 c 256
 268.333333333 234 250.833333333 224.333333333 236.5 205 c 128
 222.166666667 185.666666667 215 162.333333333 215 135 c 1
 215 135 l 1
55 221 m 1
 55 299 79 365.666666667 127 421 c 128
 175 476.333333333 233 504 301 504 c 0
 346.333333333 504 387.166666667 495.166666667 423.5 477.5 c 128
 459.833333333 459.833333333 486.666666667 436 504 406 c 1
 511.333333333 434.666666667 525.833333333 458.166666667 547.5 476.5 c 128
 569.166666667 494.833333333 593.666666667 504 621 504 c 0
 654.333333333 504 683.166666667 490.833333333 707.5 464.5 c 128
 731.833333333 438.166666667 744 406.333333333 744 369 c 2
 744 135 l 2
 744 107.666666667 752.333333333 84.5 769 65.5 c 128
 785.666666667 46.5 806 37 830 37 c 0
 870.666666667 37 905.333333333 57.5 934 98.5 c 128
 962.666666667 139.5 977 188.666666667 977 246 c 0
 977 296 966 341.833333333 944 383.5 c 128
 922 425.166666667 892 457 854 479 c 1
 897 529 l 1
 940.333333333 503.666666667 974.833333333 465.666666667 1000.5 415 c 128
 1026.16666667 364.333333333 1039 308 1039 246 c 0
 1039 174.666666667 1018.5 113.833333333 977.5 63.5 c 128
 936.5 13.1666666667 887.333333333 -12 830 -12 c 0
 789.333333333 -12 754.5 2.33333333333 725.5 31 c 128
 696.5 59.6666666667 682 94.3333333333 682 135 c 2
 682 369 l 2
 682 391 676.166666667 409.833333333 664.5 425.5 c 128
 652.833333333 441.166666667 638.333333333 449 621 449 c 0
 600.333333333 449 582.833333333 438.666666667 568.5 418 c 128
 554.166666667 397.333333333 547 372.666666667 547 344 c 2
 547 0 l 1
 486 0 l 1
 486 307 l 2
 486 346.333333333 467.833333333 379.833333333 431.5 407.5 c 128
 395.166666667 435.166666667 351.666666667 449 301 449 c 0
 247 449 200.666666667 426.833333333 162 382.5 c 128
 123.333333333 338.166666667 104 284.333333333 104 221 c 0
 104 185 110.666666667 152.666666667 124 124 c 128
 137.333333333 95.3333333333 155.333333333 74.3333333333 178 61 c 1
 174 72.3333333333 171 84.3333333333 169 97 c 128
 167 109.666666667 166 122.333333333 166 135 c 0
 166 175.666666667 178 210.5 202 239.5 c 128
 226 268.5 255 283 289 283 c 0
 322.333333333 283 351.166666667 268.666666667 375.5 240 c 128
 399.833333333 211.333333333 412 176.333333333 412 135 c 0
 412 94.3333333333 398.833333333 59.6666666667 372.5 31 c 128
 346.166666667 2.33333333333 314.333333333 -12 277 -12 c 0
 215.666666667 -12 163.333333333 10.6666666667 120 56 c 128
 76.6666666667 101.333333333 55 156.333333333 55 221 c 1
 55 221 l 1
EndSplineSet
EndChar

StartChar: tml_Ha
Encoding: 37 3001 35
Width: 1255
GlyphClass: 2
Flags: HMW
AnchorPoint: "Anchor-1" 749 0 basechar 0
AnchorPoint: "Anchor-0" 572 0 basechar 0
LayerCount: 2
Back
Fore
SplineSet
205 135 m 1
 205 107.666666667 213.5 84.5 230.5 65.5 c 128
 247.5 46.5 267.666666667 37 291 37 c 0
 315 37 335.333333333 46.6666666667 352 66 c 128
 368.666666667 85.3333333333 377 108.333333333 377 135 c 0
 377 162.333333333 368.666666667 185.666666667 352 205 c 128
 335.333333333 224.333333333 315 234 291 234 c 256
 267 234 246.666666667 224.333333333 230 205 c 128
 213.333333333 185.666666667 205 162.333333333 205 135 c 1
 205 135 l 1
881 455 m 1
 894.333333333 470.333333333 911.666666667 482.333333333 933 491 c 128
 954.333333333 499.666666667 978 504 1004 504 c 0
 1054.66666667 504 1098.16666667 478.833333333 1134.5 428.5 c 128
 1170.83333333 378.166666667 1189 317.333333333 1189 246 c 0
 1189 144.666666667 1162.5 57.8333333333 1109.5 -14.5 c 128
 1056.5 -86.8333333333 992.666666667 -123 918 -123 c 2
 205 -123 l 2
 184.333333333 -123 167 -130.166666667 153 -144.5 c 128
 139 -158.833333333 132 -176.333333333 132 -197 c 0
 132 -203.666666667 134 -212 138 -222 c 128
 142 -232 148 -244 156 -258 c 1
 107 -295 l 1
 95 -281 85.8333333333 -265.5 79.5 -248.5 c 128
 73.1666666667 -231.5 70 -214.333333333 70 -197 c 0
 70 -163.666666667 83.1666666667 -134.833333333 109.5 -110.5 c 128
 135.833333333 -86.1666666667 167.666666667 -74 205 -74 c 2
 918 -74 l 2
 975.333333333 -74 1024.5 -42.8333333333 1065.5 19.5 c 128
 1106.5 81.8333333333 1127 157.333333333 1127 246 c 0
 1127 303.333333333 1115 352.5 1091 393.5 c 128
 1067 434.5 1038 455 1004 455 c 0
 976.666666667 455 953.5 447.833333333 934.5 433.5 c 128
 915.5 419.166666667 906 401.666666667 906 381 c 2
 906 0 l 1
 845 0 l 1
 845 381 l 2
 845 401.666666667 839 419.166666667 827 433.5 c 128
 815 447.833333333 800.333333333 455 783 455 c 256
 765.666666667 455 751.166666667 447.833333333 739.5 433.5 c 128
 727.833333333 419.166666667 722 401.666666667 722 381 c 2
 722 0 l 1
 451 0 l 1
 451 37 l 1
 471 61 486.333333333 87.6666666667 497 117 c 128
 507.666666667 146.333333333 513 177 513 209 c 0
 513 283.666666667 495.166666667 343.333333333 459.5 388 c 128
 423.833333333 432.666666667 376 455 316 455 c 0
 254.666666667 455 205.5 432.666666667 168.5 388 c 128
 131.5 343.333333333 113 283.666666667 113 209 c 0
 113 180.333333333 119 153.166666667 131 127.5 c 128
 143 101.833333333 159.666666667 79.6666666667 181 61 c 1
 173 75 166.833333333 88.3333333333 162.5 101 c 128
 158.166666667 113.666666667 156 125 156 135 c 0
 156 175.666666667 169.166666667 210.5 195.5 239.5 c 128
 221.833333333 268.5 253.666666667 283 291 283 c 0
 329 283 361.166666667 268.666666667 387.5 240 c 128
 413.833333333 211.333333333 427 176.333333333 427 135 c 0
 427 94.3333333333 411.333333333 59.6666666667 380 31 c 128
 348.666666667 2.33333333333 311 -12 267 -12 c 0
 209.666666667 -12 160.5 9.5 119.5 52.5 c 128
 78.5 95.5 58 147.666666667 58 209 c 0
 58 298.333333333 81.5 369.833333333 128.5 423.5 c 128
 175.5 477.166666667 238 504 316 504 c 256
 394 504 456.5 477.166666667 503.5 423.5 c 128
 550.5 369.833333333 574 298.333333333 574 209 c 0
 574 184.333333333 569.833333333 158.5 561.5 131.5 c 128
 553.166666667 104.5 541 77 525 49 c 1
 660 49 l 1
 660 381 l 2
 660 414.333333333 672.166666667 443.166666667 696.5 467.5 c 128
 720.833333333 491.833333333 749.666666667 504 783 504 c 0
 801 504 818.666666667 499.666666667 836 491 c 128
 853.333333333 482.333333333 868.333333333 470.333333333 881 455 c 1
 881 455 l 1
EndSplineSet
EndChar

StartChar: tml_MatraAa
Encoding: 38 3006 36
Width: 535
GlyphClass: 2
Flags: HMW
AnchorPoint: "Anchor-1" 100 0 basechar 0
AnchorPoint: "Anchor-0" 251 0 basechar 0
LayerCount: 2
Back
Fore
SplineSet
92 492 m 1
 529 492 l 1
 529 443 l 1
 387 443 l 1
 387 0 l 1
 326 0 l 1
 326 443 l 1
 154 443 l 1
 154 0 l 1
 92 0 l 1
 92 492 l 1
 92 492 l 1
EndSplineSet
EndChar

StartChar: tml_MatraI
Encoding: 39 3007 37
Width: 327
Flags: HMW
LayerCount: 2
Back
Fore
SplineSet
-244 602 m 0
 -244 659.333333333 -220 708.5 -172 749.5 c 128
 -124 790.5 -66 811 2 811 c 0
 66.6666666667 811 121.833333333 791.833333333 167.5 753.5 c 128
 213.166666667 715.166666667 236 669 236 615 c 2
 236 0 l 1
 174 0 l 1
 174 615 l 2
 174 655.666666667 157.166666667 690.333333333 123.5 719 c 128
 89.8333333333 747.666666667 49.3333333333 762 2 762 c 0
 -48.6666666667 762 -92 746.5 -128 715.5 c 128
 -164 684.5 -182 646.666666667 -182 602 c 0
 -182 584.666666667 -177.833333333 566.666666667 -169.5 548 c 128
 -161.166666667 529.333333333 -149 510.666666667 -133 492 c 1
 -207 492 l 1
 -219 513.333333333 -228.166666667 533.166666667 -234.5 551.5 c 128
 -240.833333333 569.833333333 -244 586.666666667 -244 602 c 0
EndSplineSet
Substitution2: "Single Substitution lookup 24 subtable" tml_MatraI.stylalt1
Substitution2: "Single Substitution lookup 23 subtable" tml_MatraI.alt7
Substitution2: "Single Substitution lookup 22 subtable" tml_MatraI.alt6
Substitution2: "Single Substitution lookup 21 subtable" tml_MatraI.alt5
Substitution2: "Single Substitution lookup 20 subtable" tml_MatraI.alt4
Substitution2: "Single Substitution lookup 19 subtable" tml_MatraI.alt3
Substitution2: "Single Substitution lookup 18 subtable" tml_MatraI.alt2
Substitution2: "Single Substitution lookup 17 subtable" tml_MatraI.alt1
EndChar

StartChar: tml_MatraIi
Encoding: 40 3008 38
Width: 553
GlyphClass: 4
Flags: HMW
AnchorPoint: "Anchor-1" 0 0 mark 0
LayerCount: 2
Back
Fore
SplineSet
92 676 m 1
 92 723.333333333 111.333333333 763.833333333 150 797.5 c 128
 188.666666667 831.166666667 235 848 289 848 c 0
 336.333333333 848 376.833333333 835 410.5 809 c 128
 444.166666667 783 461 751 461 713 c 0
 461 679.666666667 448.833333333 650.833333333 424.5 626.5 c 128
 400.166666667 602.166666667 371.333333333 590 338 590 c 256
 304.666666667 590 275.833333333 602.166666667 251.5 626.5 c 128
 227.166666667 650.833333333 215 679.666666667 215 713 c 0
 215 731 219.333333333 747.666666667 228 763 c 128
 236.666666667 778.333333333 248.666666667 790.333333333 264 799 c 1
 232 793 205.666666667 778.333333333 185 755 c 128
 164.333333333 731.666666667 154 705.333333333 154 676 c 0
 154 643.333333333 166 610.333333333 190 577 c 128
 214 543.666666667 247 515.333333333 289 492 c 1
 203 492 l 1
 168.333333333 512 141.166666667 538.5 121.5 571.5 c 128
 101.833333333 604.5 92 639.333333333 92 676 c 1
 92 676 l 1
277 713 m 1
 277 692.333333333 282.833333333 674.833333333 294.5 660.5 c 128
 306.166666667 646.166666667 320.666666667 639 338 639 c 256
 355.333333333 639 370 646.166666667 382 660.5 c 128
 394 674.833333333 400 692.333333333 400 713 c 256
 400 733.666666667 394 751.166666667 382 765.5 c 128
 370 779.833333333 355.333333333 787 338 787 c 256
 320.666666667 787 306.166666667 779.833333333 294.5 765.5 c 128
 282.833333333 751.166666667 277 733.666666667 277 713 c 1
 277 713 l 1
EndSplineSet
Substitution2: "Single Substitution lookup 24 subtable" tml_MatraIi.stylalt1
Substitution2: "Single Substitution lookup 17 subtable" tml_MatraIi.alt1
EndChar

StartChar: tml_MatraU
Encoding: 41 3009 39
Width: 532
Flags: HMW
LayerCount: 2
Back
Fore
SplineSet
-208 443 m 1
 -208 492 l 1
 333 492 l 2
 377 492 414.666666667 476.333333333 446 445 c 128
 477.333333333 413.666666667 493 376 493 332 c 256
 493 288 477.5 250.333333333 446.5 219 c 128
 415.5 187.666666667 377.666666667 172 333 172 c 0
 289 172 251.333333333 187.666666667 220 219 c 128
 188.666666667 250.333333333 173 288 173 332 c 2
 173 443 l 1
 -208 443 l 1
 -208 443 l 1
235 332 m 1
 235 302 244.666666667 276 264 254 c 128
 283.333333333 232 306.333333333 221 333 221 c 0
 360.333333333 221 383.5 231.833333333 402.5 253.5 c 128
 421.5 275.166666667 431 301.333333333 431 332 c 0
 431 362 421.5 388 402.5 410 c 128
 383.5 432 360.333333333 443 333 443 c 2
 235 443 l 1
 235 332 l 1
 235 332 l 1
EndSplineSet
Substitution2: "Single Substitution lookup 23 subtable" tml_MatraU.alt1
EndChar

StartChar: tml_MatraUu
Encoding: 42 3010 40
Width: 776
Flags: HMW
LayerCount: 2
Back
Fore
SplineSet
-208 492 m 1
 124 492 l 1
 124 541 l 2
 124 622.333333333 152.833333333 691.833333333 210.5 749.5 c 128
 268.166666667 807.166666667 337.666666667 836 419 836 c 0
 507.666666667 836 583.166666667 798.666666667 645.5 724 c 128
 707.833333333 649.333333333 739 559.666666667 739 455 c 0
 739 343 699.5 247.333333333 620.5 168 c 128
 541.5 88.6666666667 445.666666667 49 333 49 c 0
 276.333333333 49 223.333333333 59.6666666667 174 81 c 128
 124.666666667 102.333333333 83.3333333333 132.666666667 50 172 c 1
 87 209 l 1
 107 174.333333333 138.833333333 147.166666667 182.5 127.5 c 128
 226.166666667 107.833333333 276.333333333 98 333 98 c 0
 428.333333333 98 509.5 132.833333333 576.5 202.5 c 128
 643.5 272.166666667 677 356.333333333 677 455 c 0
 677 547 651.833333333 625.333333333 601.5 690 c 128
 551.166666667 754.666666667 490.333333333 787 419 787 c 0
 354.333333333 787 299.333333333 763 254 715 c 128
 208.666666667 667 186 609 186 541 c 2
 186 492 l 1
 345 492 l 2
 383 492 415.166666667 479.833333333 441.5 455.5 c 128
 467.833333333 431.166666667 481 402.333333333 481 369 c 256
 481 335.666666667 467.833333333 306.833333333 441.5 282.5 c 128
 415.166666667 258.166666667 383 246 345 246 c 0
 292.333333333 246 245.833333333 264.666666667 205.5 302 c 128
 165.166666667 339.333333333 140 386.333333333 130 443 c 1
 -208 443 l 1
 -208 492 l 1
 -208 492 l 1
192 443 m 1
 199.333333333 400.333333333 217.5 365 246.5 337 c 128
 275.5 309 308.333333333 295 345 295 c 0
 365.666666667 295 383.166666667 302.166666667 397.5 316.5 c 128
 411.833333333 330.833333333 419 348.333333333 419 369 c 256
 419 389.666666667 411.833333333 407.166666667 397.5 421.5 c 128
 383.166666667 435.833333333 365.666666667 443 345 443 c 2
 192 443 l 1
 192 443 l 1
EndSplineSet
EndChar

StartChar: tml_MatraE
Encoding: 43 3014 41
Width: 797
Flags: HMW
LayerCount: 2
Back
Fore
SplineSet
325 154 m 1
 325 122 334.5 94.5 353.5 71.5 c 128
 372.5 48.5 395.666666667 37 423 37 c 256
 450.333333333 37 473.5 48.5 492.5 71.5 c 128
 511.5 94.5 521 122 521 154 c 256
 521 186 511.333333333 213.333333333 492 236 c 128
 472.666666667 258.666666667 449.666666667 270 423 270 c 0
 395.666666667 270 372.5 258.666666667 353.5 236 c 128
 334.5 213.333333333 325 186 325 154 c 1
 325 154 l 1
54 381 m 1
 54 499.666666667 91.3333333333 601 166 685 c 128
 240.666666667 769 330.333333333 811 435 811 c 0
 509.666666667 811 573.5 785.833333333 626.5 735.5 c 128
 679.5 685.166666667 706 624.333333333 706 553 c 2
 706 0 l 1
 644 0 l 1
 644 553 l 2
 644 610.333333333 623.5 659.5 582.5 700.5 c 128
 541.5 741.5 492.333333333 762 435 762 c 0
 345 762 268.166666667 724.666666667 204.5 650 c 128
 140.833333333 575.333333333 109 485.666666667 109 381 c 0
 109 296.333333333 127.666666667 223.333333333 165 162 c 128
 202.333333333 100.666666667 249.333333333 65 306 55 c 1
 294 69 284.833333333 85 278.5 103 c 128
 272.166666667 121 269 140 269 160 c 0
 269 204 284 241.666666667 314 273 c 128
 344 304.333333333 380.333333333 320 423 320 c 256
 465.666666667 320 502 304.333333333 532 273 c 128
 562 241.666666667 577 204 577 160 c 0
 577 103.333333333 561.333333333 60.5 530 31.5 c 128
 498.666666667 2.5 452.666666667 -12 392 -12 c 0
 298.666666667 -12 219 26.3333333333 153 103 c 128
 87 179.666666667 54 272.333333333 54 381 c 1
 54 381 l 1
EndSplineSet
EndChar

StartChar: tml_MatraEe
Encoding: 44 3015 42
Width: 727
Flags: HMW
LayerCount: 2
Back
Fore
SplineSet
50 406 m 1
 50 514.666666667 86.1666666667 607.333333333 158.5 684 c 128
 230.833333333 760.666666667 317.666666667 799 419 799 c 0
 493.666666667 799 557.5 781 610.5 745 c 128
 663.5 709 690 665.666666667 690 615 c 0
 690 577 676.833333333 544.833333333 650.5 518.5 c 128
 624.166666667 492.166666667 592 479 554 479 c 256
 516 479 484 492.166666667 458 518.5 c 128
 432 544.833333333 419 577 419 615 c 0
 419 644.333333333 428 671.5 446 696.5 c 128
 464 721.5 488 739.333333333 518 750 c 1
 506.666666667 754 492.666666667 757 476 759 c 128
 459.333333333 761 440.333333333 762 419 762 c 0
 333.666666667 762 261.166666667 727.166666667 201.5 657.5 c 128
 141.833333333 587.833333333 112 504 112 406 c 0
 112 304.666666667 141.833333333 217.833333333 201.5 145.5 c 128
 261.166666667 73.1666666667 333.666666667 37 419 37 c 0
 440.333333333 37 459.166666667 38 475.5 40 c 128
 491.833333333 42 506 45 518 49 c 1
 488.666666667 59.6666666667 464.833333333 77.5 446.5 102.5 c 128
 428.166666667 127.5 419 154.666666667 419 184 c 0
 419 222 432.166666667 254.166666667 458.5 280.5 c 128
 484.833333333 306.833333333 516.666666667 320 554 320 c 0
 592 320 624.166666667 306.833333333 650.5 280.5 c 128
 676.833333333 254.166666667 690 222 690 184 c 0
 690 130 663.5 83.8333333333 610.5 45.5 c 128
 557.5 7.16666666667 493.666666667 -12 419 -12 c 0
 317.666666667 -12 230.833333333 28.6666666667 158.5 110 c 128
 86.1666666667 191.333333333 50 290 50 406 c 1
 50 406 l 1
468 615 m 1
 468 591 476.5 570.666666667 493.5 554 c 128
 510.5 537.333333333 530.666666667 529 554 529 c 0
 578 529 598.333333333 537.333333333 615 554 c 128
 631.666666667 570.666666667 640 591 640 615 c 0
 640 642.333333333 631.666666667 665.5 615 684.5 c 128
 598.333333333 703.5 578 713 554 713 c 256
 530 713 509.666666667 703.333333333 493 684 c 128
 476.333333333 664.666666667 468 641.666666667 468 615 c 1
 468 615 l 1
468 184 m 1
 468 156.666666667 476.5 133.5 493.5 114.5 c 128
 510.5 95.5 530.666666667 86 554 86 c 0
 578 86 598.333333333 95.6666666667 615 115 c 128
 631.666666667 134.333333333 640 157.333333333 640 184 c 0
 640 208 631.666666667 228.333333333 615 245 c 128
 598.333333333 261.666666667 578 270 554 270 c 256
 530 270 509.666666667 261.666666667 493 245 c 128
 476.333333333 228.333333333 468 208 468 184 c 1
 468 184 l 1
EndSplineSet
EndChar

StartChar: tml_MatraAi
Encoding: 45 3016 43
Width: 969
Flags: HMW
LayerCount: 2
Back
Fore
SplineSet
188 135 m 1
 188 107.666666667 195.166666667 84.5 209.5 65.5 c 128
 223.833333333 46.5 241.333333333 37 262 37 c 0
 286 37 306.333333333 46.6666666667 323 66 c 128
 339.666666667 85.3333333333 348 108.333333333 348 135 c 0
 348 159 340.833333333 179.333333333 326.5 196 c 128
 312.166666667 212.666666667 294.666666667 221 274 221 c 0
 250 221 229.666666667 212.666666667 213 196 c 128
 196.333333333 179.333333333 188 159 188 135 c 1
 188 135 l 1
502 197 m 1
 502 153 507.333333333 115.333333333 518 84 c 128
 528.666666667 52.6666666667 541.666666667 37 557 37 c 256
 572.333333333 37 585.333333333 52.5 596 83.5 c 128
 606.666666667 114.5 612 152.333333333 612 197 c 0
 612 227 607.333333333 255.833333333 598 283.5 c 128
 588.666666667 311.166666667 575 335.333333333 557 356 c 1
 539 324.666666667 525.333333333 295.666666667 516 269 c 128
 506.666666667 242.333333333 502 218.333333333 502 197 c 1
 502 197 l 1
53 197 m 1
 53 282.333333333 82.8333333333 354.833333333 142.5 414.5 c 128
 202.166666667 474.166666667 274.666666667 504 360 504 c 0
 398.666666667 504 434.166666667 497.666666667 466.5 485 c 128
 498.833333333 472.333333333 525 454 545 430 c 1
 565 454 588.833333333 472.333333333 616.5 485 c 128
 644.166666667 497.666666667 673.333333333 504 704 504 c 0
 761.333333333 504 810.5 478.833333333 851.5 428.5 c 128
 892.5 378.166666667 913 317.333333333 913 246 c 0
 913 200 901.166666667 154.5 877.5 109.5 c 128
 853.833333333 64.5 820.666666667 24 778 -12 c 1
 741 37 l 1
 775.666666667 57 802.833333333 85.5 822.5 122.5 c 128
 842.166666667 159.5 852 200.666666667 852 246 c 0
 852 303.333333333 837.666666667 352.5 809 393.5 c 128
 780.333333333 434.5 745.333333333 455 704 455 c 0
 687.333333333 455 668.666666667 449.666666667 648 439 c 128
 627.333333333 428.333333333 605 413 581 393 c 1
 608.333333333 370.333333333 629.666666667 341.833333333 645 307.5 c 128
 660.333333333 273.166666667 668 236.333333333 668 197 c 0
 668 139.666666667 657 90.5 635 49.5 c 128
 613 8.5 587 -12 557 -12 c 256
 527 -12 501 8.5 479 49.5 c 128
 457 90.5 446 139.666666667 446 197 c 0
 446 232.333333333 452.333333333 266.666666667 465 300 c 128
 477.666666667 333.333333333 496 364.333333333 520 393 c 1
 496 413 470.333333333 428.333333333 443 439 c 128
 415.666666667 449.666666667 388 455 360 455 c 0
 288.666666667 455 227.833333333 429.833333333 177.5 379.5 c 128
 127.166666667 329.166666667 102 268.333333333 102 197 c 0
 102 174.333333333 107.333333333 152.166666667 118 130.5 c 128
 128.666666667 108.833333333 143.666666667 90 163 74 c 1
 157 84.6666666667 152.5 95 149.5 105 c 128
 146.5 115 145 125 145 135 c 0
 145 173 157.666666667 205 183 231 c 128
 208.333333333 257 238.666666667 270 274 270 c 0
 307.333333333 270 336.166666667 257 360.5 231 c 128
 384.833333333 205 397 173 397 135 c 0
 397 94.3333333333 383.833333333 59.6666666667 357.5 31 c 128
 331.166666667 2.33333333333 299.333333333 -12 262 -12 c 0
 204.666666667 -12 155.5 8.5 114.5 49.5 c 128
 73.5 90.5 53 139.666666667 53 197 c 1
 53 197 l 1
EndSplineSet
Substitution2: "Single Substitution lookup 24 subtable" tml_MatraAi.alt
EndChar

StartChar: tml_MatraO
Encoding: 46 3018 44
Width: 1284
Flags: HMW
LayerCount: 2
Back
Fore
SplineSet
325 154 m 1
 325 122 334.5 94.5 353.5 71.5 c 128
 372.5 48.5 395.666666667 37 423 37 c 256
 450.333333333 37 473.5 48.5 492.5 71.5 c 128
 511.5 94.5 521 122 521 154 c 256
 521 186 511.333333333 213.333333333 492 236 c 128
 472.666666667 258.666666667 449.666666667 270 423 270 c 0
 395.666666667 270 372.5 258.666666667 353.5 236 c 128
 334.5 213.333333333 325 186 325 154 c 1
 325 154 l 1
54 381 m 1
 54 499.666666667 91.3333333333 601 166 685 c 128
 240.666666667 769 330.333333333 811 435 811 c 0
 509.666666667 811 573.5 785.833333333 626.5 735.5 c 128
 679.5 685.166666667 706 624.333333333 706 553 c 2
 706 0 l 1
 644 0 l 1
 644 553 l 2
 644 610.333333333 623.5 659.5 582.5 700.5 c 128
 541.5 741.5 492.333333333 762 435 762 c 0
 345 762 268.166666667 724.666666667 204.5 650 c 128
 140.833333333 575.333333333 109 485.666666667 109 381 c 0
 109 296.333333333 127.666666667 223.333333333 165 162 c 128
 202.333333333 100.666666667 249.333333333 65 306 55 c 1
 294 69 284.833333333 85 278.5 103 c 128
 272.166666667 121 269 140 269 160 c 0
 269 204 284 241.666666667 314 273 c 128
 344 304.333333333 380.333333333 320 423 320 c 256
 465.666666667 320 502 304.333333333 532 273 c 128
 562 241.666666667 577 204 577 160 c 0
 577 103.333333333 561.333333333 60.5 530 31.5 c 128
 498.666666667 2.5 452.666666667 -12 392 -12 c 0
 298.666666667 -12 219 26.3333333333 153 103 c 128
 87 179.666666667 54 272.333333333 54 381 c 1
 54 381 l 1
841 492 m 1
 1277 492 l 1
 1277 443 l 1
 1136 443 l 1
 1136 0 l 1
 1074 0 l 1
 1074 443 l 1
 902 443 l 1
 902 0 l 1
 841 0 l 1
 841 492 l 1
 841 492 l 1
EndSplineSet
EndChar

StartChar: tml_MatraOo
Encoding: 47 3019 45
Width: 1219
Flags: HMW
LayerCount: 2
Back
Fore
SplineSet
50 406 m 1
 50 514.666666667 86.1666666667 607.333333333 158.5 684 c 128
 230.833333333 760.666666667 317.666666667 799 419 799 c 0
 493.666666667 799 557.5 781 610.5 745 c 128
 663.5 709 690 665.666666667 690 615 c 0
 690 577 676.833333333 544.833333333 650.5 518.5 c 128
 624.166666667 492.166666667 592 479 554 479 c 256
 516 479 484 492.166666667 458 518.5 c 128
 432 544.833333333 419 577 419 615 c 0
 419 644.333333333 428 671.5 446 696.5 c 128
 464 721.5 488 739.333333333 518 750 c 1
 506.666666667 754 492.666666667 757 476 759 c 128
 459.333333333 761 440.333333333 762 419 762 c 0
 333.666666667 762 261.166666667 727.166666667 201.5 657.5 c 128
 141.833333333 587.833333333 112 504 112 406 c 0
 112 304.666666667 141.833333333 217.833333333 201.5 145.5 c 128
 261.166666667 73.1666666667 333.666666667 37 419 37 c 0
 440.333333333 37 459.166666667 38 475.5 40 c 128
 491.833333333 42 506 45 518 49 c 1
 488.666666667 59.6666666667 464.833333333 77.5 446.5 102.5 c 128
 428.166666667 127.5 419 154.666666667 419 184 c 0
 419 222 432.166666667 254.166666667 458.5 280.5 c 128
 484.833333333 306.833333333 516.666666667 320 554 320 c 0
 592 320 624.166666667 306.833333333 650.5 280.5 c 128
 676.833333333 254.166666667 690 222 690 184 c 0
 690 130 663.5 83.8333333333 610.5 45.5 c 128
 557.5 7.16666666667 493.666666667 -12 419 -12 c 0
 317.666666667 -12 230.833333333 28.6666666667 158.5 110 c 128
 86.1666666667 191.333333333 50 290 50 406 c 1
 50 406 l 1
468 615 m 1
 468 591 476.5 570.666666667 493.5 554 c 128
 510.5 537.333333333 530.666666667 529 554 529 c 0
 578 529 598.333333333 537.333333333 615 554 c 128
 631.666666667 570.666666667 640 591 640 615 c 0
 640 642.333333333 631.666666667 665.5 615 684.5 c 128
 598.333333333 703.5 578 713 554 713 c 256
 530 713 509.666666667 703.333333333 493 684 c 128
 476.333333333 664.666666667 468 641.666666667 468 615 c 1
 468 615 l 1
468 184 m 1
 468 156.666666667 476.5 133.5 493.5 114.5 c 128
 510.5 95.5 530.666666667 86 554 86 c 0
 578 86 598.333333333 95.6666666667 615 115 c 128
 631.666666667 134.333333333 640 157.333333333 640 184 c 0
 640 208 631.666666667 228.333333333 615 245 c 128
 598.333333333 261.666666667 578 270 554 270 c 256
 530 270 509.666666667 261.666666667 493 245 c 128
 476.333333333 228.333333333 468 208 468 184 c 1
 468 184 l 1
776 492 m 1
 1212 492 l 1
 1212 443 l 1
 1071 443 l 1
 1071 0 l 1
 1009 0 l 1
 1009 443 l 1
 837 443 l 1
 837 0 l 1
 776 0 l 1
 776 492 l 1
 776 492 l 1
EndSplineSet
EndChar

StartChar: tml_MatraAu
Encoding: 48 3020 46
Width: 1677
Flags: HMW
LayerCount: 2
Back
Fore
SplineSet
325 154 m 1
 325 122 334.5 94.5 353.5 71.5 c 128
 372.5 48.5 395.666666667 37 423 37 c 256
 450.333333333 37 473.5 48.5 492.5 71.5 c 128
 511.5 94.5 521 122 521 154 c 256
 521 186 511.333333333 213.333333333 492 236 c 128
 472.666666667 258.666666667 449.666666667 270 423 270 c 0
 395.666666667 270 372.5 258.666666667 353.5 236 c 128
 334.5 213.333333333 325 186 325 154 c 1
 325 154 l 1
54 381 m 1
 54 499.666666667 91.3333333333 601 166 685 c 128
 240.666666667 769 330.333333333 811 435 811 c 0
 509.666666667 811 573.5 785.833333333 626.5 735.5 c 128
 679.5 685.166666667 706 624.333333333 706 553 c 2
 706 0 l 1
 644 0 l 1
 644 553 l 2
 644 610.333333333 623.5 659.5 582.5 700.5 c 128
 541.5 741.5 492.333333333 762 435 762 c 0
 345 762 268.166666667 724.666666667 204.5 650 c 128
 140.833333333 575.333333333 109 485.666666667 109 381 c 0
 109 296.333333333 127.666666667 223.333333333 165 162 c 128
 202.333333333 100.666666667 249.333333333 65 306 55 c 1
 294 69 284.833333333 85 278.5 103 c 128
 272.166666667 121 269 140 269 160 c 0
 269 204 284 241.666666667 314 273 c 128
 344 304.333333333 380.333333333 320 423 320 c 256
 465.666666667 320 502 304.333333333 532 273 c 128
 562 241.666666667 577 204 577 160 c 0
 577 103.333333333 561.333333333 60.5 530 31.5 c 128
 498.666666667 2.5 452.666666667 -12 392 -12 c 0
 298.666666667 -12 219 26.3333333333 153 103 c 128
 87 179.666666667 54 272.333333333 54 381 c 1
 54 381 l 1
958 148 m 1
 958 120.666666667 965.166666667 97.3333333333 979.5 78 c 128
 993.833333333 58.6666666667 1011 49 1031 49 c 0
 1051.66666667 49 1069.16666667 58.6666666667 1083.5 78 c 128
 1097.83333333 97.3333333333 1105 120.666666667 1105 148 c 0
 1105 172 1097.83333333 192.333333333 1083.5 209 c 128
 1069.16666667 225.666666667 1051.66666667 234 1031 234 c 256
 1010.33333333 234 993 225.5 979 208.5 c 128
 965 191.5 958 171.333333333 958 148 c 1
 958 148 l 1
1240 492 m 1
 1671 492 l 1
 1671 443 l 1
 1535 443 l 1
 1535 0 l 1
 1474 0 l 1
 1474 443 l 1
 1290 443 l 1
 1290 0 l 1
 1228 0 l 1
 1228 246 l 2
 1228 303.333333333 1210 352.5 1174 393.5 c 128
 1138 434.5 1094.66666667 455 1044 455 c 256
 993.333333333 455 949.833333333 433.5 913.5 390.5 c 128
 877.166666667 347.5 859 295.333333333 859 234 c 0
 859 202.666666667 865.333333333 173 878 145 c 128
 890.666666667 117 909 93.3333333333 933 74 c 1
 925 88 918.833333333 101.333333333 914.5 114 c 128
 910.166666667 126.666666667 908 138 908 148 c 0
 908 186 920.166666667 218 944.5 244 c 128
 968.833333333 270 997.666666667 283 1031 283 c 256
 1064.33333333 283 1093.16666667 269.833333333 1117.5 243.5 c 128
 1141.83333333 217.166666667 1154 185.333333333 1154 148 c 0
 1154 104 1139.66666667 66.3333333333 1111 35 c 128
 1082.33333333 3.66666666667 1047.66666667 -12 1007 -12 c 0
 951 -12 903.166666667 12 863.5 60 c 128
 823.833333333 108 804 166 804 234 c 0
 804 308.666666667 827.333333333 372.333333333 874 425 c 128
 920.666666667 477.666666667 977.333333333 504 1044 504 c 0
 1087.33333333 504 1126.66666667 495.166666667 1162 477.5 c 128
 1197.33333333 459.833333333 1223.33333333 436 1240 406 c 1
 1240 492 l 1
 1240 492 l 1
EndSplineSet
EndChar

StartChar: tml_Virama
Encoding: 49 3021 47
Width: 0
GlyphClass: 4
Flags: HMW
AnchorPoint: "Anchor-0" 0 0 mark 0
LayerCount: 2
Back
Fore
SplineSet
-61 688 m 0
 -61 705.333333333 -55 720 -43 732 c 128
 -31 744 -16.3333333333 750 1 750 c 256
 18.3333333333 750 32.8333333333 744 44.5 732 c 128
 56.1666666667 720 62 705.333333333 62 688 c 256
 62 670.666666667 56.1666666667 656.166666667 44.5 644.5 c 128
 32.8333333333 632.833333333 18.3333333333 627 1 627 c 256
 -16.3333333333 627 -31 633 -43 645 c 128
 -55 657 -61 671.333333333 -61 688 c 0
EndSplineSet
EndChar

StartChar: tml_Om
Encoding: 50 3024 48
Width: 1023
Flags: HMW
LayerCount: 2
Back
Fore
SplineSet
356 -6 m 2
 356 -9.33333333333 355.333333333 -12.5 354 -15.5 c 128
 352.666666667 -18.5 351 -21 349 -23 c 128
 347 -25 344.5 -26.6666666667 341.5 -28 c 128
 338.5 -29.3333333333 335.333333333 -30 332 -30 c 128
 328.666666667 -30 325.666666667 -29.3333333333 323 -28 c 128
 320.333333333 -26.6666666667 317.833333333 -24.8333333333 315.5 -22.5 c 128
 313.166666667 -20.1666666667 311.333333333 -17.3333333333 310 -14 c 128
 308.666666667 -10.6666666667 308 -7.33333333333 308 -4 c 128
 308 -0.666666666667 308.666666667 2.5 310 5.5 c 128
 311.333333333 8.5 313.166666667 11.3333333333 315.5 14 c 128
 317.833333333 16.6666666667 320.5 18.6666666667 323.5 20 c 128
 326.5 21.3333333333 329.333333333 22 332 22 c 0
 335.333333333 22 338.5 21.3333333333 341.5 20 c 128
 344.5 18.6666666667 347 16.8333333333 349 14.5 c 128
 351 12.1666666667 352.666666667 9.33333333333 354 6 c 128
 355.333333333 2.66666666667 356 -0.666666666667 356 -4 c 2
 356 -6 l 2
369 -164 m 1
 385 -140 385.666666667 -118.666666667 371 -100 c 0
 355.666666667 -83.3333333333 340.833333333 -82.5 326.5 -97.5 c 128
 312.166666667 -112.5 311 -134.333333333 323 -163 c 1
 369 -164 l 1
267 -290 m 0
 357.666666667 -294.666666667 424 -251.666666667 466 -161 c 1
 486 -105 515.333333333 -67.6666666667 554 -49 c 1
 517.333333333 -35.6666666667 487.666666667 -14.3333333333 465 15 c 128
 442.333333333 44.3333333333 431 76.3333333333 431 111 c 0
 431 158.333333333 450.333333333 198.833333333 489 232.5 c 128
 527.666666667 266.166666667 574 283 628 283 c 1
 612.666666667 264.333333333 600.666666667 244.333333333 592 223 c 128
 583.333333333 201.666666667 579 180.666666667 579 160 c 256
 579 139.333333333 587.333333333 121.833333333 604 107.5 c 128
 620.666666667 93.1666666667 641 86 665 86 c 256
 689 86 709.333333333 95.6666666667 726 115 c 128
 742.666666667 134.333333333 751 157.333333333 751 184 c 0
 751 262 718.666666667 328.666666667 654 384 c 128
 589.333333333 439.333333333 511 467 419 467 c 0
 330.333333333 467 255 441.833333333 193 391.5 c 128
 131 341.166666667 100 280.333333333 100 209 c 0
 100 195.666666667 101 182.833333333 103 170.5 c 128
 105 158.166666667 108 146.333333333 112 135 c 1
 112 174.333333333 124 207.833333333 148 235.5 c 128
 172 263.166666667 201 277 235 277 c 0
 268.333333333 277 297.166666667 264.166666667 321.5 238.5 c 128
 345.833333333 212.833333333 358 182.666666667 358 148 c 0
 358 110 345.833333333 77.8333333333 321.5 51.5 c 128
 297.166666667 25.1666666667 268.333333333 12 235 12 c 0
 184.333333333 12 140.833333333 31.3333333333 104.5 70 c 128
 68.1666666667 108.666666667 50 155 50 209 c 0
 50 294.333333333 86.1666666667 366.833333333 158.5 426.5 c 128
 230.833333333 486.166666667 317.666666667 516 419 516 c 0
 527.666666667 516 620.5 483.666666667 697.5 419 c 128
 774.5 354.333333333 813 276 813 184 c 0
 813 143.333333333 798.666666667 108.666666667 770 80 c 128
 741.333333333 51.3333333333 706.333333333 37 665 37 c 0
 627 37 595 49 569 73 c 128
 543 97 530 126 530 160 c 0
 530 166.666666667 532.666666667 176.333333333 538 189 c 128
 543.333333333 201.666666667 551 216.666666667 561 234 c 1
 536.333333333 220 516.833333333 201.833333333 502.5 179.5 c 128
 488.166666667 157.166666667 481 134.333333333 481 111 c 0
 481 73 497.666666667 40.8333333333 531 14.5 c 128
 564.333333333 -11.8333333333 605 -25 653 -25 c 2
 788 -25 l 1
 788 -74 l 1
 607 -74 l 2
 593.666666667 -74 575.666666667 -83.6666666667 553 -103 c 0
 538.333333333 -115.666666667 525.666666667 -135.666666667 515 -163 c 0
 471 -278.333333333 389 -333.666666667 269 -329 c 0
 114.333333333 -323 35.3333333333 -265.333333333 32 -156 c 0
 30.6666666667 -124 38.3333333333 -95 55 -69 c 0
 70.3333333333 -45 93 -33 123 -33 c 0
 141 -33 156 -39.6666666667 168 -53 c 0
 183.333333333 -72.3333333333 191 -109.666666667 191 -165 c 1
 223 -165.666666667 253.333333333 -165.666666667 282 -165 c 1
 274.666666667 -122.333333333 281.666666667 -91 303 -71 c 0
 326.333333333 -49.6666666667 353.666666667 -48 385 -66 c 0
 408.333333333 -79.3333333333 418 -105 414 -143 c 0
 411.333333333 -172.333333333 405 -191 395 -199 c 1
 148 -199 l 1
 158 -143 153.666666667 -105.666666667 135 -87 c 0
 118.333333333 -69.6666666667 102.666666667 -70 88 -88 c 0
 74.6666666667 -103.333333333 69.6666666667 -132 73 -174 c 0
 78.3333333333 -244.666666667 143 -283.333333333 267 -290 c 0
173 148 m 0
 173 124 179 103.5 191 86.5 c 128
 203 69.5 217.666666667 61 235 61 c 256
 252.333333333 61 266.833333333 69.5 278.5 86.5 c 128
 290.166666667 103.5 296 124 296 148 c 0
 296 168.666666667 290.166666667 186 278.5 200 c 128
 266.833333333 214 252.333333333 221 235 221 c 256
 217.666666667 221 203 214 191 200 c 128
 179 186 173 168.666666667 173 148 c 0
EndSplineSet
EndChar

StartChar: tml_AuLengthmark
Encoding: 51 3031 49
Width: 924
Flags: HMW
LayerCount: 2
Back
Fore
SplineSet
204 148 m 1
 204 120.666666667 211.166666667 97.3333333333 225.5 78 c 128
 239.833333333 58.6666666667 257.333333333 49 278 49 c 256
 298.666666667 49 316.166666667 58.6666666667 330.5 78 c 128
 344.833333333 97.3333333333 352 120.666666667 352 148 c 0
 352 172 344.833333333 192.333333333 330.5 209 c 128
 316.166666667 225.666666667 298.666666667 234 278 234 c 256
 257.333333333 234 239.833333333 225.5 225.5 208.5 c 128
 211.166666667 191.5 204 171.333333333 204 148 c 1
 204 148 l 1
487 492 m 1
 917 492 l 1
 917 443 l 1
 782 443 l 1
 782 0 l 1
 720 0 l 1
 720 443 l 1
 536 443 l 1
 536 0 l 1
 475 0 l 1
 475 246 l 2
 475 303.333333333 456.833333333 352.5 420.5 393.5 c 128
 384.166666667 434.5 340.666666667 455 290 455 c 256
 239.333333333 455 196 433.5 160 390.5 c 128
 124 347.5 106 295.333333333 106 234 c 0
 106 202.666666667 112.333333333 173 125 145 c 128
 137.666666667 117 155.666666667 93.3333333333 179 74 c 1
 171 88 165 101.333333333 161 114 c 128
 157 126.666666667 155 138 155 148 c 0
 155 186 167 218 191 244 c 128
 215 270 244 283 278 283 c 0
 311.333333333 283 340.166666667 269.833333333 364.5 243.5 c 128
 388.833333333 217.166666667 401 185.333333333 401 148 c 0
 401 104 386.666666667 66.3333333333 358 35 c 128
 329.333333333 3.66666666667 294.333333333 -12 253 -12 c 0
 199 -12 152.833333333 12 114.5 60 c 128
 76.1666666667 108 57 166 57 234 c 0
 57 308.666666667 79.6666666667 372.333333333 125 425 c 128
 170.333333333 477.666666667 225.333333333 504 290 504 c 0
 333.333333333 504 372.666666667 495.166666667 408 477.5 c 128
 443.333333333 459.833333333 469.666666667 436 487 406 c 1
 487 492 l 1
 487 492 l 1
EndSplineSet
EndChar

StartChar: tml_Zero
Encoding: 52 3046 50
Width: 585
Flags: HMW
LayerCount: 2
Back
Fore
SplineSet
60 323 m 1
 60 407.666666667 81 481.5 123 544.5 c 128
 165 607.5 221.666666667 639 293 639 c 256
 364.333333333 639 420.833333333 607.5 462.5 544.5 c 128
 504.166666667 481.5 525 407.666666667 525 323 c 0
 525 236.333333333 504.333333333 160.833333333 463 96.5 c 128
 421.666666667 32.1666666667 365 0 293 0 c 256
 221 0 164.166666667 32.1666666667 122.5 96.5 c 128
 80.8333333333 160.833333333 60 236.333333333 60 323 c 1
 60 323 l 1
125 323 m 1
 125 253.666666667 139.166666667 193.333333333 167.5 142 c 128
 195.833333333 90.6666666667 237.666666667 65 293 65 c 0
 347.666666667 65 389.333333333 90.6666666667 418 142 c 128
 446.666666667 193.333333333 461 253.666666667 461 323 c 0
 461 390.333333333 446.5 449 417.5 499 c 128
 388.5 549 347 574 293 574 c 256
 239 574 197.5 549 168.5 499 c 128
 139.5 449 125 390.333333333 125 323 c 1
 125 323 l 1
EndSplineSet
EndChar

StartChar: tml_One
Encoding: 53 3047 51
Width: 700
Flags: HMW
LayerCount: 2
Back
Fore
SplineSet
246 270 m 1
 369 270 l 1
 369 443 l 1
 246 443 l 1
 246 270 l 1
 246 270 l 1
123 160 m 1
 123 126.666666667 136.166666667 97.8333333333 162.5 73.5 c 128
 188.833333333 49.1666666667 220.666666667 37 258 37 c 0
 288 37 314 46.6666666667 336 66 c 128
 358 85.3333333333 369 108.333333333 369 135 c 2
 369 221 l 1
 184 221 l 2
 166.666666667 221 152.166666667 215.166666667 140.5 203.5 c 128
 128.833333333 191.833333333 123 177.333333333 123 160 c 1
 123 160 l 1
184 492 m 1
 565 492 l 1
 565 443 l 1
 430 443 l 1
 430 270 l 1
 504 270 l 2
 542 270 574 257 600 231 c 128
 626 205 639 173 639 135 c 0
 639 94.3333333333 627 59.6666666667 603 31 c 128
 579 2.33333333333 550 -12 516 -12 c 0
 506.666666667 -12 497 -11 487 -9 c 128
 477 -7 466.333333333 -4 455 0 c 1
 467 49 l 1
 474.333333333 45 482.166666667 42 490.5 40 c 128
 498.833333333 38 507.333333333 37 516 37 c 0
 533.333333333 37 548 46.6666666667 560 66 c 128
 572 85.3333333333 578 108.333333333 578 135 c 0
 578 159 570.833333333 179.333333333 556.5 196 c 128
 542.166666667 212.666666667 524.666666667 221 504 221 c 2
 430 221 l 1
 430 135 l 2
 430 94.3333333333 413.166666667 59.6666666667 379.5 31 c 128
 345.833333333 2.33333333333 305.333333333 -12 258 -12 c 0
 204 -12 157.666666667 4.83333333333 119 38.5 c 128
 80.3333333333 72.1666666667 61 112.666666667 61 160 c 0
 61 190 73.1666666667 215.833333333 97.5 237.5 c 128
 121.833333333 259.166666667 150.666666667 270 184 270 c 1
 184 492 l 1
 184 492 l 1
EndSplineSet
EndChar

StartChar: tml_Two
Encoding: 54 3048 52
Width: 725
Flags: HMW
LayerCount: 2
Back
Fore
SplineSet
111 344 m 1
 111 326.666666667 116.833333333 312.166666667 128.5 300.5 c 128
 140.166666667 288.833333333 154.666666667 283 172 283 c 256
 189.333333333 283 204 288.833333333 216 300.5 c 128
 228 312.166666667 234 326.666666667 234 344 c 0
 234 364.666666667 228 382.166666667 216 396.5 c 128
 204 410.833333333 189.333333333 418 172 418 c 256
 154.666666667 418 140.166666667 410.833333333 128.5 396.5 c 128
 116.833333333 382.166666667 111 364.666666667 111 344 c 1
 111 344 l 1
61 356 m 1
 61 396.666666667 81.5 431.5 122.5 460.5 c 128
 163.5 489.5 212.666666667 504 270 504 c 0
 338 504 396 484.666666667 444 446 c 128
 492 407.333333333 516 361 516 307 c 0
 516 256.333333333 495.5 213 454.5 177 c 128
 413.5 141 364.333333333 123 307 123 c 2
 172 123 l 2
 158 123 146.333333333 119.333333333 137 112 c 128
 127.666666667 104.666666667 123 96 123 86 c 256
 123 76 127.666666667 67.3333333333 137 60 c 128
 146.333333333 52.6666666667 158 49 172 49 c 2
 664 49 l 1
 664 0 l 1
 172 0 l 2
 142 0 116 8.33333333333 94 25 c 128
 72 41.6666666667 61 62 61 86 c 256
 61 110 72 130.333333333 94 147 c 128
 116 163.666666667 142 172 172 172 c 2
 307 172 l 2
 347.666666667 172 382.5 185.166666667 411.5 211.5 c 128
 440.5 237.833333333 455 269.666666667 455 307 c 0
 455 347.666666667 437 382.5 401 411.5 c 128
 365 440.5 321.333333333 455 270 455 c 2
 197 455 l 1
 223 445.666666667 243.833333333 430.833333333 259.5 410.5 c 128
 275.166666667 390.166666667 283 368 283 344 c 0
 283 314 272.166666667 288.166666667 250.5 266.5 c 128
 228.833333333 244.833333333 202.666666667 234 172 234 c 0
 142 234 116 246 94 270 c 128
 72 294 61 322.666666667 61 356 c 1
 61 356 l 1
EndSplineSet
EndChar

StartChar: tml_Three
Encoding: 55 3049 53
Width: 780
Flags: HMW
LayerCount: 2
Back
Fore
SplineSet
61 0 m 1
 61 492 l 1
 504 492 l 1
 504 443 l 1
 332 443 l 1
 332 264 l 1
 343.333333333 275.333333333 356.666666667 284.333333333 372 291 c 128
 387.333333333 297.666666667 402.666666667 301 418 301 c 0
 462 301 499.666666667 287.333333333 531 260 c 128
 562.333333333 232.666666667 578 199.333333333 578 160 c 0
 578 138 573.666666667 117.333333333 565 98 c 128
 556.333333333 78.6666666667 544.333333333 62.3333333333 529 49 c 1
 719 49 l 1
 719 0 l 1
 270 0 l 1
 270 49 l 1
 406 49 l 2
 436 49 461.833333333 59.8333333333 483.5 81.5 c 128
 505.166666667 103.166666667 516 129.333333333 516 160 c 0
 516 184 506.5 204.333333333 487.5 221 c 128
 468.5 237.666666667 445.333333333 246 418 246 c 0
 404 246 389.5 241.666666667 374.5 233 c 128
 359.5 224.333333333 345.333333333 212.333333333 332 197 c 1
 332 98 l 1
 270 98 l 1
 270 443 l 1
 123 443 l 1
 123 0 l 1
 61 0 l 1
 61 0 l 1
EndSplineSet
EndChar

StartChar: tml_Four
Encoding: 56 3050 54
Width: 663
Flags: HMW
LayerCount: 2
Back
Fore
SplineSet
246 270 m 1
 369 270 l 1
 369 443 l 1
 246 443 l 1
 246 270 l 1
 246 270 l 1
123 160 m 1
 123 126.666666667 136.166666667 97.8333333333 162.5 73.5 c 128
 188.833333333 49.1666666667 220.666666667 37 258 37 c 0
 288 37 314 46.6666666667 336 66 c 128
 358 85.3333333333 369 108.333333333 369 135 c 2
 369 221 l 1
 184 221 l 2
 166.666666667 221 152.166666667 215.166666667 140.5 203.5 c 128
 128.833333333 191.833333333 123 177.333333333 123 160 c 1
 123 160 l 1
184 492 m 1
 578 492 l 1
 578 443 l 1
 430 443 l 1
 430 270 l 1
 541 270 l 1
 541 332 l 1
 602 332 l 1
 602 221 l 1
 430 221 l 1
 430 135 l 2
 430 94.3333333333 413.166666667 59.6666666667 379.5 31 c 128
 345.833333333 2.33333333333 305.333333333 -12 258 -12 c 0
 204 -12 157.666666667 4.83333333333 119 38.5 c 128
 80.3333333333 72.1666666667 61 112.666666667 61 160 c 0
 61 190 73.1666666667 215.833333333 97.5 237.5 c 128
 121.833333333 259.166666667 150.666666667 270 184 270 c 1
 184 492 l 1
 184 492 l 1
EndSplineSet
EndChar

StartChar: tml_Five
Encoding: 57 3051 55
Width: 897
Flags: HMW
LayerCount: 2
Back
Fore
SplineSet
443 -221 m 1
 535 -221 613.166666667 -187.5 677.5 -120.5 c 128
 741.833333333 -53.5 774 27.6666666667 774 123 c 0
 774 161 762.666666667 193 740 219 c 128
 717.333333333 245 690 258 658 258 c 0
 646 258 632.833333333 253.666666667 618.5 245 c 128
 604.166666667 236.333333333 590.666666667 224.333333333 578 209 c 1
 578 0 l 1
 516 0 l 1
 516 443 l 1
 369 443 l 1
 369 0 l 1
 307 0 l 1
 307 492 l 1
 676 492 l 1
 676 443 l 1
 578 443 l 1
 578 270 l 1
 584.666666667 281.333333333 595.666666667 290.333333333 611 297 c 128
 626.333333333 303.666666667 644 307 664 307 c 0
 711.333333333 307 751.833333333 289 785.5 253 c 128
 819.166666667 217 836 173.666666667 836 123 c 0
 836 14.3333333333 797.666666667 -78.3333333333 721 -155 c 128
 644.333333333 -231.666666667 551.666666667 -270 443 -270 c 0
 338.333333333 -270 248.5 -222.666666667 173.5 -128 c 128
 98.5 -33.3333333333 61 81 61 215 c 0
 61 359 101.833333333 482.166666667 183.5 584.5 c 128
 265.166666667 686.833333333 363.666666667 738 479 738 c 0
 574.333333333 738 655.666666667 706.833333333 723 644.5 c 128
 790.333333333 582.166666667 824 506.666666667 824 418 c 1
 762 418 l 1
 762 492.666666667 734.333333333 556.333333333 679 609 c 128
 623.666666667 661.666666667 557 688 479 688 c 0
 379 688 293.666666667 641.833333333 223 549.5 c 128
 152.333333333 457.166666667 117 345.666666667 117 215 c 0
 117 94.3333333333 148.666666667 -8.5 212 -93.5 c 128
 275.333333333 -178.5 352.333333333 -221 443 -221 c 1
 443 -221 l 1
EndSplineSet
EndChar

StartChar: tml_Six
Encoding: 58 3052 56
Width: 829
Flags: HMW
LayerCount: 2
Back
Fore
SplineSet
246 443 m 1
 246 270 l 1
 369 270 l 1
 369 443 l 1
 246 443 l 1
 246 443 l 1
123 160 m 1
 123 126.666666667 136.166666667 97.8333333333 162.5 73.5 c 128
 188.833333333 49.1666666667 220.666666667 37 258 37 c 0
 288 37 314 46.6666666667 336 66 c 128
 358 85.3333333333 369 108.333333333 369 135 c 2
 369 221 l 1
 184 221 l 2
 166.666666667 221 152.166666667 215.166666667 140.5 203.5 c 128
 128.833333333 191.833333333 123 177.333333333 123 160 c 1
 123 160 l 1
61 160 m 1
 61 190 73.1666666667 215.833333333 97.5 237.5 c 128
 121.833333333 259.166666667 150.666666667 270 184 270 c 1
 184 492 l 1
 602 492 l 1
 602 443 l 1
 430 443 l 1
 430 270 l 1
 768 270 l 1
 768 221 l 1
 701 221 l 1
 701 0 l 1
 639 0 l 1
 639 221 l 1
 565 221 l 1
 565 0 l 1
 504 0 l 1
 504 221 l 1
 430 221 l 1
 430 135 l 2
 430 94.3333333333 413.166666667 59.6666666667 379.5 31 c 128
 345.833333333 2.33333333333 305.333333333 -12 258 -12 c 0
 204 -12 157.666666667 4.83333333333 119 38.5 c 128
 80.3333333333 72.1666666667 61 112.666666667 61 160 c 1
 61 160 l 1
EndSplineSet
EndChar

StartChar: tml_Seven
Encoding: 59 3053 57
Width: 768
Flags: HMW
LayerCount: 2
Back
Fore
SplineSet
221 135 m 1
 221 107.666666667 228.166666667 84.5 242.5 65.5 c 128
 256.833333333 46.5 274.333333333 37 295 37 c 256
 315.666666667 37 333.166666667 46.6666666667 347.5 66 c 128
 361.833333333 85.3333333333 369 108.333333333 369 135 c 0
 369 159 361.833333333 179.333333333 347.5 196 c 128
 333.166666667 212.666666667 315.666666667 221 295 221 c 256
 274.333333333 221 256.833333333 212.666666667 242.5 196 c 128
 228.166666667 179.333333333 221 159 221 135 c 1
 221 135 l 1
565 443 m 1
 320 443 l 2
 262.666666667 443 213.5 421.333333333 172.5 378 c 128
 131.5 334.666666667 111 282.333333333 111 221 c 0
 111 185 119.666666667 151.666666667 137 121 c 128
 154.333333333 90.3333333333 178.333333333 66.3333333333 209 49 c 1
 197 63 187.833333333 77.3333333333 181.5 92 c 128
 175.166666667 106.666666667 172 121 172 135 c 0
 172 173 184.166666667 205 208.5 231 c 128
 232.833333333 257 261.666666667 270 295 270 c 0
 333 270 365 257 391 231 c 128
 417 205 430 173 430 135 c 0
 430 94.3333333333 414.5 59.6666666667 383.5 31 c 128
 352.5 2.33333333333 314.666666667 -12 270 -12 c 0
 212.666666667 -12 163.5 10.6666666667 122.5 56 c 128
 81.5 101.333333333 61 156.333333333 61 221 c 0
 61 295.666666667 86.3333333333 359.5 137 412.5 c 128
 187.666666667 465.5 248.666666667 492 320 492 c 2
 707 492 l 1
 707 443 l 1
 627 443 l 1
 627 0 l 1
 565 0 l 1
 565 443 l 1
 565 443 l 1
EndSplineSet
EndChar

StartChar: tml_Eight
Encoding: 60 3054 58
Width: 1020
Flags: HMW
LayerCount: 2
Back
Fore
SplineSet
897 -61 m 1
 897 135 l 1
 774 135 l 1
 749.333333333 68.3333333333 705.166666667 14.8333333333 641.5 -25.5 c 128
 577.833333333 -65.8333333333 505.333333333 -86 424 -86 c 0
 368 -86 315.333333333 -77.6666666667 266 -61 c 128
 216.666666667 -44.3333333333 173 -20 135 12 c 0
 111 32 92.6666666667 51.6666666667 80 71 c 128
 67.3333333333 90.3333333333 61 107.666666667 61 123 c 0
 61 140.333333333 68.1666666667 154.833333333 82.5 166.5 c 128
 96.8333333333 178.166666667 114.333333333 184 135 184 c 2
 338 186 l 1
 316 194 298.166666667 209.666666667 284.5 233 c 128
 270.833333333 256.333333333 264 283 264 313 c 0
 264 365.666666667 288.666666667 410.666666667 338 448 c 128
 387.333333333 485.333333333 446.666666667 504 516 504 c 0
 594 504 660.666666667 480 716 432 c 128
 771.333333333 384 799 326 799 258 c 0
 799 244.666666667 798 232 796 220 c 128
 794 208 791 196 787 184 c 1
 897 184 l 1
 897 492 l 1
 959 492 l 1
 959 -61 l 1
 897 -61 l 1
 897 -61 l 1
320 313 m 1
 320 277.666666667 333.666666667 247.333333333 361 222 c 128
 388.333333333 196.666666667 421.666666667 184 461 184 c 0
 499 184 531 196.166666667 557 220.5 c 128
 583 244.833333333 596 273.666666667 596 307 c 0
 596 345 583 377.166666667 557 403.5 c 128
 531 429.833333333 499 443 461 443 c 0
 421.666666667 443 388.333333333 430.166666667 361 404.5 c 128
 333.666666667 378.833333333 320 348.333333333 320 313 c 1
 320 313 l 1
713 135 m 1
 148 135 l 2
 141.333333333 135 135.5 132.5 130.5 127.5 c 128
 125.5 122.5 123 117 123 111 c 0
 123 107 125 101.833333333 129 95.5 c 128
 133 89.1666666667 139.333333333 82 148 74 c 0
 183.333333333 38.6666666667 224.5 11.3333333333 271.5 -8 c 128
 318.5 -27.3333333333 367.333333333 -37 418 -37 c 0
 487.333333333 -37 549.166666667 -21.1666666667 603.5 10.5 c 128
 657.833333333 42.1666666667 694.333333333 83.6666666667 713 135 c 1
 713 135 l 1
590 184 m 1
 725 184 l 1
 729 195.333333333 732.166666667 207.166666667 734.5 219.5 c 128
 736.833333333 231.833333333 738 244.666666667 738 258 c 0
 738 309.333333333 721.166666667 354.833333333 687.5 394.5 c 128
 653.833333333 434.166666667 611 458.333333333 559 467 c 1
 587.666666667 446.333333333 610.333333333 422 627 394 c 128
 643.666666667 366 652 337 652 307 c 0
 652 281.666666667 646.666666667 258.166666667 636 236.5 c 128
 625.333333333 214.833333333 610 197.333333333 590 184 c 1
 590 184 l 1
EndSplineSet
EndChar

StartChar: tml_Nine
Encoding: 61 3055 59
Width: 946
Flags: HMW
LayerCount: 2
Back
Fore
SplineSet
246 270 m 1
 369 270 l 1
 369 443 l 1
 246 443 l 1
 246 270 l 1
 246 270 l 1
123 160 m 1
 123 130 136.166666667 104 162.5 82 c 128
 188.833333333 60 220.666666667 49 258 49 c 0
 288 49 314 57.5 336 74.5 c 128
 358 91.5 369 111.666666667 369 135 c 2
 369 221 l 1
 184 221 l 2
 166.666666667 221 152.166666667 215.166666667 140.5 203.5 c 128
 128.833333333 191.833333333 123 177.333333333 123 160 c 1
 123 160 l 1
553 123 m 1
 553 99 557.666666667 78.6666666667 567 62 c 128
 576.333333333 45.3333333333 588 37 602 37 c 256
 616 37 627.833333333 45.3333333333 637.5 62 c 128
 647.166666667 78.6666666667 652 99 652 123 c 0
 652 144.333333333 645.166666667 164 631.5 182 c 128
 617.833333333 200 600 213 578 221 c 1
 570 207 563.833333333 191.666666667 559.5 175 c 128
 555.166666667 158.333333333 553 141 553 123 c 1
 553 123 l 1
61 160 m 1
 61 190 73.1666666667 215.833333333 97.5 237.5 c 128
 121.833333333 259.166666667 150.666666667 270 184 270 c 1
 184 492 l 1
 547 492 l 1
 547 443 l 1
 430 443 l 1
 430 270 l 1
 553 270 l 1
 569.666666667 292.666666667 591.5 310.666666667 618.5 324 c 128
 645.5 337.333333333 675 344 707 344 c 0
 756.333333333 344 798.333333333 327.166666667 833 293.5 c 128
 867.666666667 259.833333333 885 219.333333333 885 172 c 0
 885 140 879.666666667 109.333333333 869 80 c 128
 858.333333333 50.6666666667 843.333333333 24 824 0 c 1
 756 0 l 1
 778 26 794.833333333 53.8333333333 806.5 83.5 c 128
 818.166666667 113.166666667 824 142.666666667 824 172 c 0
 824 205.333333333 812.5 234.166666667 789.5 258.5 c 128
 766.5 282.833333333 739 295 707 295 c 0
 685.666666667 295 666.333333333 291.666666667 649 285 c 128
 631.666666667 278.333333333 618 269.333333333 608 258 c 1
 636 248 658.5 230.5 675.5 205.5 c 128
 692.5 180.5 701 153 701 123 c 0
 701 85 691.333333333 53 672 27 c 128
 652.666666667 1 629.333333333 -12 602 -12 c 256
 574.666666667 -12 551.5 1 532.5 27 c 128
 513.5 53 504 85 504 123 c 0
 504 141 506 158.333333333 510 175 c 128
 514 191.666666667 520.333333333 207 529 221 c 1
 430 221 l 1
 430 135 l 2
 430 94.3333333333 413.166666667 59.6666666667 379.5 31 c 128
 345.833333333 2.33333333333 305.333333333 -12 258 -12 c 0
 204 -12 157.666666667 4.83333333333 119 38.5 c 128
 80.3333333333 72.1666666667 61 112.666666667 61 160 c 1
 61 160 l 1
EndSplineSet
EndChar

StartChar: tml_Ten
Encoding: 62 3056 60
Width: 661
Flags: HMW
LayerCount: 2
Back
Fore
SplineSet
311 49 m 1
 294.333333333 29 276.5 13.8333333333 257.5 3.5 c 128
 238.5 -6.83333333333 219.333333333 -12 200 -12 c 0
 162 -12 130 1 104 27 c 128
 78 53 65 85 65 123 c 2
 65 369 l 1
 127 369 l 1
 127 123 l 2
 127 99 134.166666667 78.6666666667 148.5 62 c 128
 162.833333333 45.3333333333 180 37 200 37 c 0
 220.666666667 37 238.166666667 45.3333333333 252.5 62 c 128
 266.833333333 78.6666666667 274 99 274 123 c 2
 274 369 l 1
 336 369 l 1
 336 123 l 1
 345.333333333 97 358.833333333 76.1666666667 376.5 60.5 c 128
 394.166666667 44.8333333333 413.333333333 37 434 37 c 0
 464 37 490 53.8333333333 512 87.5 c 128
 534 121.166666667 545 161.666666667 545 209 c 0
 545 273.666666667 525.666666667 328.833333333 487 374.5 c 128
 448.333333333 420.166666667 402 443 348 443 c 2
 188 443 l 1
 188 492 l 1
 348 492 l 2
 419.333333333 492 480.166666667 464.333333333 530.5 409 c 128
 580.833333333 353.666666667 606 287 606 209 c 0
 606 147.666666667 589.166666667 95.5 555.5 52.5 c 128
 521.833333333 9.5 481.333333333 -12 434 -12 c 0
 405.333333333 -12 380 -6.5 358 4.5 c 128
 336 15.5 320.333333333 30.3333333333 311 49 c 1
 311 49 l 1
EndSplineSet
EndChar

StartChar: tml_Hundred
Encoding: 63 3057 61
Width: 684
Flags: HMW
LayerCount: 2
Back
Fore
SplineSet
334 443 m 1
 343.333333333 461.666666667 359 476.5 381 487.5 c 128
 403 498.5 428.333333333 504 457 504 c 2
 679 504 l 1
 679 449 l 1
 580 449 l 1
 580 0 l 1
 519 0 l 1
 519 449 l 1
 457 449 l 2
 436.333333333 449 417 441.5 399 426.5 c 128
 381 411.5 367.666666667 392.333333333 359 369 c 1
 359 0 l 1
 297 0 l 1
 297 369 l 2
 297 393 289.833333333 413.333333333 275.5 430 c 128
 261.166666667 446.666666667 244 455 224 455 c 0
 203.333333333 455 185.833333333 446.5 171.5 429.5 c 128
 157.166666667 412.5 150 392.333333333 150 369 c 2
 150 0 l 1
 89 0 l 1
 89 369 l 2
 89 407 102 439 128 465 c 128
 154 491 186 504 224 504 c 0
 242.666666667 504 261.666666667 498.666666667 281 488 c 128
 300.333333333 477.333333333 318 462.333333333 334 443 c 1
 334 443 l 1
EndSplineSet
EndChar

StartChar: tml_Thousand
Encoding: 64 3058 62
Width: 759
Flags: HMW
LayerCount: 2
Back
Fore
SplineSet
219 443 m 1
 219 270 l 1
 342 270 l 1
 342 443 l 1
 219 443 l 1
 219 443 l 1
96 160 m 1
 96 126.666666667 109.166666667 97.8333333333 135.5 73.5 c 128
 161.833333333 49.1666666667 193.666666667 37 231 37 c 0
 261 37 287 46.6666666667 309 66 c 128
 331 85.3333333333 342 108.333333333 342 135 c 2
 342 221 l 1
 157 221 l 2
 139.666666667 221 125.166666667 215.166666667 113.5 203.5 c 128
 101.833333333 191.833333333 96 177.333333333 96 160 c 1
 96 160 l 1
34 160 m 1
 34 190 46.1666666667 215.833333333 70.5 237.5 c 128
 94.8333333333 259.166666667 123.666666667 270 157 270 c 1
 157 492 l 1
 575 492 l 1
 575 443 l 1
 403 443 l 1
 403 270 l 1
 649 270 l 1
 649 221 l 1
 514 221 l 1
 514 135 l 1
 524 146.333333333 536.5 155.333333333 551.5 162 c 128
 566.5 168.666666667 582.666666667 172 600 172 c 0
 638 172 670 156.5 696 125.5 c 128
 722 94.5 735 56.6666666667 735 12 c 0
 735 -35.3333333333 712.333333333 -75.8333333333 667 -109.5 c 128
 621.666666667 -143.166666667 566.666666667 -160 502 -160 c 2
 157 -160 l 2
 129.666666667 -160 106.5 -172 87.5 -196 c 128
 68.5 -220 59 -249 59 -283 c 1
 10 -283 l 1
 10 -235.666666667 24.3333333333 -195.166666667 53 -161.5 c 128
 81.6666666667 -127.833333333 116.333333333 -111 157 -111 c 2
 502 -111 l 2
 549.333333333 -111 589.833333333 -98.8333333333 623.5 -74.5 c 128
 657.166666667 -50.1666666667 674 -21.3333333333 674 12 c 0
 674 42 666.833333333 68 652.5 90 c 128
 638.166666667 112 620.666666667 123 600 123 c 0
 580 123 562 116.666666667 546 104 c 128
 530 91.3333333333 519.333333333 75 514 55 c 1
 514 0 l 1
 452 0 l 1
 452 221 l 1
 403 221 l 1
 403 135 l 2
 403 94.3333333333 386.166666667 59.6666666667 352.5 31 c 128
 318.833333333 2.33333333333 278.333333333 -12 231 -12 c 0
 177 -12 130.666666667 4.83333333333 92 38.5 c 128
 53.3333333333 72.1666666667 34 112.666666667 34 160 c 1
 34 160 l 1
EndSplineSet
EndChar

StartChar: tml_Day
Encoding: 65 3059 63
Width: 910
Flags: HMW
LayerCount: 2
Back
Fore
SplineSet
200 135 m 1
 200 107.666666667 208.5 84.5 225.5 65.5 c 128
 242.5 46.5 262.666666667 37 286 37 c 0
 313.333333333 37 336.666666667 46.6666666667 356 66 c 128
 375.333333333 85.3333333333 385 108.333333333 385 135 c 0
 385 162.333333333 375.333333333 185.666666667 356 205 c 128
 336.666666667 224.333333333 313.333333333 234 286 234 c 0
 262 234 241.666666667 224.333333333 225 205 c 128
 208.333333333 185.666666667 200 162.333333333 200 135 c 1
 200 135 l 1
53 234 m 1
 53 308.666666667 79.3333333333 372.333333333 132 425 c 128
 184.666666667 477.666666667 248.333333333 504 323 504 c 0
 401 504 467.666666667 477.5 523 424.5 c 128
 578.333333333 371.5 606 308 606 234 c 0
 606 201.333333333 601.833333333 169.333333333 593.5 138 c 128
 585.166666667 106.666666667 573 77 557 49 c 1
 901 49 l 1
 901 0 l 1
 483 0 l 1
 483 37 l 1
 503 61 518.333333333 89.6666666667 529 123 c 128
 539.666666667 156.333333333 545 193.333333333 545 234 c 0
 545 295.333333333 523.5 347.5 480.5 390.5 c 128
 437.5 433.5 385 455 323 455 c 0
 261.666666667 455 209.5 433.5 166.5 390.5 c 128
 123.5 347.5 102 295.333333333 102 234 c 0
 102 206 107.333333333 178.166666667 118 150.5 c 128
 128.666666667 122.833333333 143.666666667 97.3333333333 163 74 c 1
 159 85.3333333333 156 96.1666666667 154 106.5 c 128
 152 116.833333333 151 126.333333333 151 135 c 0
 151 175.666666667 164.166666667 210.5 190.5 239.5 c 128
 216.833333333 268.5 248.666666667 283 286 283 c 0
 326.666666667 283 361.5 268.666666667 390.5 240 c 128
 419.5 211.333333333 434 176.333333333 434 135 c 0
 434 94.3333333333 419.666666667 59.6666666667 391 31 c 128
 362.333333333 2.33333333333 327.333333333 -12 286 -12 c 0
 221.333333333 -12 166.333333333 12 121 60 c 128
 75.6666666667 108 53 166 53 234 c 1
 53 234 l 1
EndSplineSet
EndChar

StartChar: tml_Month
Encoding: 66 3060 64
Width: 1062
Flags: HMW
LayerCount: 2
Back
Fore
SplineSet
449 369 m 1
 449 49 l 1
 621 49 l 2
 645 49 665.333333333 62.1666666667 682 88.5 c 128
 698.666666667 114.833333333 707 146.666666667 707 184 c 0
 707 258.666666667 689 322.5 653 375.5 c 128
 617 428.5 573.333333333 455 522 455 c 0
 501.333333333 455 484 446.5 470 429.5 c 128
 456 412.5 449 392.333333333 449 369 c 1
 449 369 l 1
510 504 m 1
 484 519.333333333 463.166666667 540.166666667 447.5 566.5 c 128
 431.833333333 592.833333333 424 621.333333333 424 652 c 0
 424 699.333333333 442 739.833333333 478 773.5 c 128
 514 807.166666667 557.333333333 824 608 824 c 0
 624.666666667 824 639 823.166666667 651 821.5 c 128
 663 819.833333333 673 817.666666667 681 815 c 1
 703 829 725.666666667 839.666666667 749 847 c 128
 772.333333333 854.333333333 794.666666667 858 816 858 c 0
 841.333333333 858 865 852.5 887 841.5 c 128
 909 830.5 926.333333333 815.666666667 939 797 c 1
 954.333333333 817 973 832.166666667 995 842.5 c 128
 1017 852.833333333 1039.33333333 858 1062 858 c 1
 1062 809 l 1
 1047.33333333 809 1032.83333333 804.666666667 1018.5 796 c 128
 1004.16666667 787.333333333 992 775.333333333 982 760 c 1
 992.666666667 746 1000.66666667 732.833333333 1006 720.5 c 128
 1011.33333333 708.166666667 1014 697.333333333 1014 688 c 0
 1014 666.666666667 1007.33333333 648.666666667 994 634 c 128
 980.666666667 619.333333333 964 612 944 612 c 256
 924 612 907 619.333333333 893 634 c 128
 879 648.666666667 872 666.666666667 872 688 c 0
 872 699.333333333 875.166666667 711.5 881.5 724.5 c 128
 887.833333333 737.5 896.666666667 750 908 762 c 1
 896 776.666666667 882 788.166666667 866 796.5 c 128
 850 804.833333333 833.333333333 809 816 809 c 0
 799.333333333 809 783.5 807 768.5 803 c 128
 753.5 799 740 792.666666667 728 784 c 1
 749.333333333 769.333333333 766.166666667 752.333333333 778.5 733 c 128
 790.833333333 713.666666667 797 694.666666667 797 676 c 0
 797 646 784.666666667 620 760 598 c 128
 735.333333333 576 705.333333333 565 670 565 c 0
 642.666666667 565 619.5 574.666666667 600.5 594 c 128
 581.5 613.333333333 572 636.666666667 572 664 c 0
 572 686.666666667 577.5 708 588.5 728 c 128
 599.5 748 614.333333333 763.333333333 633 774 c 1
 608 774 l 2
 572 774 541.166666667 762 515.5 738 c 128
 489.833333333 714 477 685.333333333 477 652 c 0
 477 626 488.666666667 598.666666667 512 570 c 128
 535.333333333 541.333333333 567.333333333 515.333333333 608 492 c 1
 656.666666667 474.666666667 695.5 437.666666667 724.5 381 c 128
 753.5 324.333333333 768 258.666666667 768 184 c 0
 768 133.333333333 753.666666667 90 725 54 c 128
 696.333333333 18 661.666666667 0 621 0 c 2
 92 0 l 1
 92 492 l 1
 154 492 l 1
 154 49 l 1
 387 49 l 1
 387 369 l 2
 387 407 399.166666667 439 423.5 465 c 128
 447.833333333 491 476.666666667 504 510 504 c 1
 510 504 l 1
621 664 m 1
 621 650 625.666666667 638.333333333 635 629 c 128
 644.333333333 619.666666667 656 615 670 615 c 0
 690.666666667 615 708.166666667 620.833333333 722.5 632.5 c 128
 736.833333333 644.166666667 744 658.666666667 744 676 c 0
 744 692.666666667 739 708.166666667 729 722.5 c 128
 719 736.833333333 705.333333333 748 688 756 c 1
 667.333333333 746 651 732.833333333 639 716.5 c 128
 627 700.166666667 621 682.666666667 621 664 c 1
 621 664 l 1
922 688 m 1
 922 681.333333333 924.166666667 675.666666667 928.5 671 c 128
 932.833333333 666.333333333 938 664 944 664 c 256
 950 664 955 666.5 959 671.5 c 128
 963 676.5 965 682 965 688 c 0
 965 694.666666667 963.166666667 701.333333333 959.5 708 c 128
 955.833333333 714.666666667 950.666666667 720.333333333 944 725 c 1
 937.333333333 720.333333333 932 714.666666667 928 708 c 128
 924 701.333333333 922 694.666666667 922 688 c 1
 922 688 l 1
EndSplineSet
EndChar

StartChar: tml_Year
Encoding: 67 3061 65
Width: 1800
Flags: HMW
LayerCount: 2
Back
Fore
SplineSet
386 135 m 1
 386 107.666666667 394 84.5 410 65.5 c 128
 426 46.5 445 37 467 37 c 256
 489 37 508 46.6666666667 524 66 c 128
 540 85.3333333333 548 108.333333333 548 135 c 0
 548 162.333333333 540 185.666666667 524 205 c 128
 508 224.333333333 489 234 467 234 c 256
 445 234 426 224.333333333 410 205 c 128
 394 185.666666667 386 162.333333333 386 135 c 1
 386 135 l 1
929 49 m 1
 929 492 l 1
 1302 492 l 1
 1302 443 l 1
 1175 443 l 1
 1175 240 l 1
 1186.33333333 250 1198.5 257.5 1211.5 262.5 c 128
 1224.5 267.5 1237.33333333 270 1250 270 c 0
 1284.66666667 270 1314 253.333333333 1338 220 c 128
 1362 186.666666667 1374 146 1374 98 c 0
 1374 -17.3333333333 1310.16666667 -115.833333333 1182.5 -197.5 c 128
 1054.83333333 -279.166666667 900.333333333 -320 719 -320 c 0
 539 -320 385 -269.5 257 -168.5 c 128
 129 -67.5 65 54.3333333333 65 197 c 0
 65 346.333333333 135.833333333 473.833333333 277.5 579.5 c 128
 419.166666667 685.166666667 590.666666667 738 792 738 c 0
 992.666666667 738 1163.83333333 701.833333333 1305.5 629.5 c 128
 1447.16666667 557.166666667 1518 470.333333333 1518 369 c 2
 1518 184 l 2
 1518 146 1526.66666667 114 1544 88 c 128
 1561.33333333 62 1582.33333333 49 1607 49 c 0
 1637 49 1662.83333333 68.3333333333 1684.5 107 c 128
 1706.16666667 145.666666667 1717 192 1717 246 c 256
 1717 300 1707.5 346.333333333 1688.5 385 c 128
 1669.5 423.666666667 1646 443 1618 443 c 1
 1637 492 l 1
 1672.33333333 492 1702.66666667 468 1728 420 c 128
 1753.33333333 372 1766 314 1766 246 c 256
 1766 178 1750.5 120 1719.5 72 c 128
 1688.5 24 1651 0 1607 0 c 0
 1566.33333333 0 1531.5 18 1502.5 54 c 128
 1473.5 90 1459 133.333333333 1459 184 c 2
 1459 369 l 2
 1459 457.666666667 1393.66666667 533 1263 595 c 128
 1132.33333333 657 974.333333333 688 789 688 c 256
 603.666666667 688 445.666666667 640.166666667 315 544.5 c 128
 184.333333333 448.833333333 119 333 119 197 c 0
 119 68.3333333333 177.5 -41.6666666667 294.5 -133 c 128
 411.5 -224.333333333 552.333333333 -270 717 -270 c 0
 882.333333333 -270 1023.33333333 -234 1140 -162 c 128
 1256.66666667 -90 1315 -3.33333333333 1315 98 c 0
 1315 130 1308.33333333 157.5 1295 180.5 c 128
 1281.66666667 203.5 1265.66666667 215 1247 215 c 0
 1227 215 1210 207.833333333 1196 193.5 c 128
 1182 179.166666667 1175 161.666666667 1175 141 c 2
 1175 0 l 1
 1116 0 l 1
 1116 443 l 1
 990 443 l 1
 990 0 l 1
 668 0 l 1
 668 37 l 1
 685.333333333 59.6666666667 698.666666667 88 708 122 c 128
 717.333333333 156 722 193.333333333 722 234 c 0
 722 295.333333333 701.166666667 347.5 659.5 390.5 c 128
 617.833333333 433.5 567.666666667 455 509 455 c 0
 451 455 401.166666667 433.5 359.5 390.5 c 128
 317.833333333 347.5 297 295.333333333 297 234 c 0
 297 204 301.333333333 175.166666667 310 147.5 c 128
 318.666666667 119.833333333 331.333333333 95.3333333333 348 74 c 1
 344.666666667 85.3333333333 342 96.1666666667 340 106.5 c 128
 338 116.833333333 337 126.333333333 337 135 c 0
 337 175.666666667 349 210.5 373 239.5 c 128
 397 268.5 426.333333333 283 461 283 c 0
 499 283 531.166666667 268.666666667 557.5 240 c 128
 583.833333333 211.333333333 597 176.333333333 597 135 c 0
 597 94.3333333333 583.833333333 59.6666666667 557.5 31 c 128
 531.166666667 2.33333333333 499 -12 461 -12 c 0
 393 -12 338.5 10.3333333333 297.5 55 c 128
 256.5 99.6666666667 236 159.333333333 236 234 c 256
 236 308.666666667 262.666666667 372.333333333 316 425 c 128
 369.333333333 477.666666667 433.666666667 504 509 504 c 256
 584.333333333 504 648.666666667 477.5 702 424.5 c 128
 755.333333333 371.5 782 308 782 234 c 0
 782 201.333333333 778.333333333 169.333333333 771 138 c 128
 763.666666667 106.666666667 753 77 739 49 c 1
 929 49 l 1
 929 49 l 1
EndSplineSet
EndChar

StartChar: tml_Debit
Encoding: 68 3062 66
Width: 791
Flags: HMW
LayerCount: 2
Back
Fore
SplineSet
85 135 m 1
 85 492 l 1
 146 492 l 1
 146 135 l 2
 146 107.666666667 154.5 84.5 171.5 65.5 c 128
 188.5 46.5 208.666666667 37 232 37 c 0
 262 37 288 47.8333333333 310 69.5 c 128
 332 91.1666666667 343 117.333333333 343 148 c 2
 343 492 l 1
 404 492 l 1
 404 -61 l 1
 638 -61 l 1
 638 492 l 1
 699 492 l 1
 699 -111 l 1
 404 -111 l 1
 404 -184 l 2
 404 -217.333333333 392.666666667 -246.166666667 370 -270.5 c 128
 347.333333333 -294.833333333 320 -307 288 -307 c 2
 202 -307 l 2
 168.666666667 -307 139.833333333 -295 115.5 -271 c 128
 91.1666666667 -247 79 -218 79 -184 c 0
 79 -150.666666667 91 -121.833333333 115 -97.5 c 128
 139 -73.1666666667 168 -61 202 -61 c 2
 343 -61 l 1
 343 37 l 1
 333.666666667 21.6666666667 319.166666667 9.66666666667 299.5 1 c 128
 279.833333333 -7.66666666667 257.333333333 -12 232 -12 c 0
 191.333333333 -12 156.666666667 2.33333333333 128 31 c 128
 99.3333333333 59.6666666667 85 94.3333333333 85 135 c 1
 85 135 l 1
140 -184 m 1
 140 -204.666666667 146 -222.166666667 158 -236.5 c 128
 170 -250.833333333 184.666666667 -258 202 -258 c 2
 288 -258 l 2
 303.333333333 -258 316.333333333 -250.833333333 327 -236.5 c 128
 337.666666667 -222.166666667 343 -204.666666667 343 -184 c 2
 343 -111 l 1
 202 -111 l 2
 184.666666667 -111 170 -118.166666667 158 -132.5 c 128
 146 -146.833333333 140 -164 140 -184 c 1
 140 -184 l 1
EndSplineSet
EndChar

StartChar: tml_Credit
Encoding: 69 3063 67
Width: 1336
Flags: HMW
LayerCount: 2
Back
Fore
SplineSet
214 135 m 1
 214 107.666666667 221.166666667 84.5 235.5 65.5 c 128
 249.833333333 46.5 267.333333333 37 288 37 c 256
 308.666666667 37 326 46.6666666667 340 66 c 128
 354 85.3333333333 361 108.333333333 361 135 c 0
 361 159 353.833333333 179.333333333 339.5 196 c 128
 325.166666667 212.666666667 308 221 288 221 c 0
 267.333333333 221 249.833333333 212.666666667 235.5 196 c 128
 221.166666667 179.333333333 214 159 214 135 c 1
 214 135 l 1
54 221 m 1
 54 295.666666667 79.1666666667 359.5 129.5 412.5 c 128
 179.833333333 465.5 240.666666667 492 312 492 c 2
 742 492 l 1
 742 443 l 1
 620 443 l 1
 620 145 l 1
 632 159.666666667 646.166666667 173.166666667 662.5 185.5 c 128
 678.833333333 197.833333333 697 208.666666667 717 218 c 1
 727.666666667 262 751 298 787 326 c 128
 823 354 863.333333333 368 908 368 c 0
 964.666666667 368 1013.16666667 348.666666667 1053.5 310 c 128
 1093.83333333 271.333333333 1114 225 1114 171 c 0
 1114 146.333333333 1111.16666667 122.5 1105.5 99.5 c 128
 1099.83333333 76.5 1091 55.3333333333 1079 36 c 1
 1329 36 l 1
 1329 0 l 1
 1024 0 l 1
 1024 27 l 1
 1038 44.3333333333 1048.83333333 65.3333333333 1056.5 90 c 128
 1064.16666667 114.666666667 1068 141.666666667 1068 171 c 0
 1068 215 1052.5 252.833333333 1021.5 284.5 c 128
 990.5 316.166666667 952.666666667 332 908 332 c 0
 876 332 846.833333333 323 820.5 305 c 128
 794.166666667 287 774.333333333 262.666666667 761 232 c 1
 774.333333333 235.333333333 787.333333333 237.833333333 800 239.5 c 128
 812.666666667 241.166666667 825 242 837 242 c 0
 879 242 915 229.166666667 945 203.5 c 128
 975 177.833333333 990 147 990 111 c 0
 990 78.3333333333 977.5 50.1666666667 952.5 26.5 c 128
 927.5 2.83333333333 897.333333333 -9 862 -9 c 0
 820 -9 784.333333333 8.66666666667 755 44 c 128
 725.666666667 79.3333333333 711 121.666666667 711 171 c 1
 689.666666667 159 671 144.5 655 127.5 c 128
 639 110.5 627.333333333 91.6666666667 620 71 c 1
 620 0 l 1
 558 0 l 1
 558 443 l 1
 312 443 l 2
 254.666666667 443 205.5 421.333333333 164.5 378 c 128
 123.5 334.666666667 103 282.333333333 103 221 c 0
 103 185 111.833333333 151.666666667 129.5 121 c 128
 147.166666667 90.3333333333 171.333333333 66.3333333333 202 49 c 1
 190 63 180.833333333 77.3333333333 174.5 92 c 128
 168.166666667 106.666666667 165 121 165 135 c 0
 165 173 177 205 201 231 c 128
 225 257 254 270 288 270 c 0
 326 270 358 257 384 231 c 128
 410 205 423 173 423 135 c 0
 423 94.3333333333 407.333333333 59.6666666667 376 31 c 128
 344.666666667 2.33333333333 307 -12 263 -12 c 0
 205.666666667 -12 156.5 10.6666666667 115.5 56 c 128
 74.5 101.333333333 54 156.333333333 54 221 c 1
 54 221 l 1
749 187 m 1
 749 144.333333333 760 108 782 78 c 128
 804 48 830.666666667 33 862 33 c 0
 884 33 902.5 40.6666666667 917.5 56 c 128
 932.5 71.3333333333 940 89.6666666667 940 111 c 0
 940 136.333333333 930 157.833333333 910 175.5 c 128
 890 193.166666667 865.666666667 202 837 202 c 0
 822.333333333 202 807.5 200.666666667 792.5 198 c 128
 777.5 195.333333333 763 191.666666667 749 187 c 1
 749 187 l 1
EndSplineSet
EndChar

StartChar: tml_Above
Encoding: 70 3064 68
Width: 1595
Flags: HMW
LayerCount: 2
Back
Fore
SplineSet
61 307 m 1
 61 408.333333333 97.1666666667 495.166666667 169.5 567.5 c 128
 241.833333333 639.833333333 328.666666667 676 430 676 c 0
 505.333333333 676 575.166666667 651.166666667 639.5 601.5 c 128
 703.833333333 551.833333333 751 486.666666667 781 406 c 1
 792.333333333 410 804.5 413 817.5 415 c 128
 830.5 417 845 418 861 418 c 0
 911.666666667 418 955 398.666666667 991 360 c 128
 1027 321.333333333 1045 275 1045 221 c 0
 1045 182.333333333 1039.66666667 148.166666667 1029 118.5 c 128
 1018.33333333 88.8333333333 1003 65.6666666667 983 49 c 1
 1217 49 l 1
 1187 63 1163.16666667 84.5 1145.5 113.5 c 128
 1127.83333333 142.5 1119 174.333333333 1119 209 c 0
 1119 247 1133.33333333 279 1162 305 c 128
 1190.66666667 331 1225.33333333 344 1266 344 c 256
 1306.66666667 344 1341.5 331 1370.5 305 c 128
 1399.5 279 1414 247 1414 209 c 2
 1414 49 l 1
 1586 49 l 1
 1586 0 l 1
 1414 0 l 1
 1414 -295 l 1
 1352 -295 l 1
 1352 0 l 1
 873 0 l 1
 873 37 l 1
 906.333333333 49 933 71.8333333333 953 105.5 c 128
 973 139.166666667 983 177.666666667 983 221 c 0
 983 261.666666667 970 296.5 944 325.5 c 128
 918 354.5 886 369 848 369 c 0
 834.666666667 369 823.5 368.333333333 814.5 367 c 128
 805.5 365.666666667 798.333333333 364.333333333 793 363 c 1
 794.333333333 357 795.666666667 349.5 797 340.5 c 128
 798.333333333 331.5 799 320.333333333 799 307 c 0
 799 221.666666667 783.5 149.166666667 752.5 89.5 c 128
 721.5 29.8333333333 683.666666667 0 639 0 c 0
 615 0 594.666666667 12.1666666667 578 36.5 c 128
 561.333333333 60.8333333333 553 89.6666666667 553 123 c 0
 553 184.333333333 568.166666667 239.166666667 598.5 287.5 c 128
 628.833333333 335.833333333 669 369 719 387 c 1
 693 459 653.5 517 600.5 561 c 128
 547.5 605 490.666666667 627 430 627 c 0
 343.333333333 627 269.5 595.833333333 208.5 533.5 c 128
 147.5 471.166666667 117 395.666666667 117 307 c 0
 117 278.333333333 121.666666667 248.333333333 131 217 c 128
 140.333333333 185.666666667 154 154.333333333 172 123 c 1
 168 165.666666667 179.5 203 206.5 235 c 128
 233.5 267 267 283 307 283 c 0
 347.666666667 283 382.5 268.666666667 411.5 240 c 128
 440.5 211.333333333 455 176.333333333 455 135 c 0
 455 94.3333333333 440.666666667 59.6666666667 412 31 c 128
 383.333333333 2.33333333333 348.333333333 -12 307 -12 c 0
 239 -12 181 19.1666666667 133 81.5 c 128
 85 143.833333333 61 219 61 307 c 1
 61 307 l 1
221 135 m 1
 221 107.666666667 229.5 84.5 246.5 65.5 c 128
 263.5 46.5 283.666666667 37 307 37 c 0
 331 37 351.333333333 46.6666666667 368 66 c 128
 384.666666667 85.3333333333 393 108.333333333 393 135 c 0
 393 162.333333333 384 185.666666667 366 205 c 128
 348 224.333333333 326.333333333 234 301 234 c 0
 279 234 260.166666667 224.333333333 244.5 205 c 128
 228.833333333 185.666666667 221 162.333333333 221 135 c 1
 221 135 l 1
615 123 m 1
 615 102.333333333 617.333333333 84.8333333333 622 70.5 c 128
 626.666666667 56.1666666667 632.333333333 49 639 49 c 0
 664.333333333 49 686 74.1666666667 704 124.5 c 128
 722 174.833333333 731 235.666666667 731 307 c 2
 731 344 l 1
 695.666666667 330.666666667 667.5 303.833333333 646.5 263.5 c 128
 625.5 223.166666667 615 176.333333333 615 123 c 1
 615 123 l 1
1180 209 m 1
 1180 165 1196.83333333 127.333333333 1230.5 96 c 128
 1264.16666667 64.6666666667 1304.66666667 49 1352 49 c 1
 1352 209 l 2
 1352 233 1343.66666667 253.333333333 1327 270 c 128
 1310.33333333 286.666666667 1290 295 1266 295 c 256
 1242 295 1221.66666667 286.666666667 1205 270 c 128
 1188.33333333 253.333333333 1180 233 1180 209 c 1
 1180 209 l 1
EndSplineSet
EndChar

StartChar: tml_Rupee
Encoding: 71 3065 69
Width: 1231
Flags: HMW
LayerCount: 2
Back
Fore
SplineSet
457 -221 m 1
 549 -221 627.333333333 -187.5 692 -120.5 c 128
 756.666666667 -53.5 789 27.6666666667 789 123 c 0
 789 161 777.5 193 754.5 219 c 128
 731.5 245 704 258 672 258 c 0
 660 258 647 253.666666667 633 245 c 128
 619 236.333333333 605.666666667 224.333333333 593 209 c 1
 593 0 l 1
 531 0 l 1
 531 443 l 1
 384 443 l 1
 384 0 l 1
 322 0 l 1
 322 492 l 1
 691 492 l 1
 691 443 l 1
 593 443 l 1
 593 270 l 1
 599.666666667 281.333333333 610.666666667 290.333333333 626 297 c 128
 641.333333333 303.666666667 659 307 679 307 c 0
 726.333333333 307 766.833333333 289 800.5 253 c 128
 834.166666667 217 851 173.666666667 851 123 c 0
 851 14.3333333333 812.666666667 -78.3333333333 736 -155 c 128
 659.333333333 -231.666666667 566.333333333 -270 457 -270 c 0
 352.333333333 -270 262.666666667 -222.666666667 188 -128 c 128
 113.333333333 -33.3333333333 76 81 76 215 c 0
 76 359 116.833333333 482.166666667 198.5 584.5 c 128
 280.166666667 686.833333333 378.666666667 738 494 738 c 0
 570 738 639.666666667 715.333333333 703 670 c 128
 766.333333333 624.666666667 811.333333333 565.333333333 838 492 c 1
 849.333333333 521.333333333 868.666666667 545 896 563 c 128
 923.333333333 581 953.333333333 590 986 590 c 0
 1026.66666667 590 1061.33333333 578 1090 554 c 128
 1118.66666667 530 1133 501 1133 467 c 1
 1232 467 l 1
 1232 418 l 1
 1084 418 l 1
 1084 451.333333333 1074.33333333 480.166666667 1055 504.5 c 128
 1035.66666667 528.833333333 1012.66666667 541 986 541 c 0
 952.666666667 541 923.833333333 526.666666667 899.5 498 c 128
 875.166666667 469.333333333 863 434.333333333 863 393 c 1
 801 393 l 1
 801 474.333333333 771.166666667 543.833333333 711.5 601.5 c 128
 651.833333333 659.166666667 579.333333333 688 494 688 c 0
 394 688 308.666666667 641.833333333 238 549.5 c 128
 167.333333333 457.166666667 132 345.666666667 132 215 c 0
 132 94.3333333333 163.666666667 -8.5 227 -93.5 c 128
 290.333333333 -178.5 367 -221 457 -221 c 1
 457 -221 l 1
EndSplineSet
EndChar

StartChar: tml_Number
Encoding: 72 3066 70
Width: 1196
Flags: HMW
LayerCount: 2
Back
Fore
SplineSet
688 344 m 1
 688 326.666666667 694 312.166666667 706 300.5 c 128
 718 288.833333333 732.666666667 283 750 283 c 0
 765.333333333 283 778.333333333 288.833333333 789 300.5 c 128
 799.666666667 312.166666667 805 326.666666667 805 344 c 0
 805 368 804 388.5 802 405.5 c 128
 800 422.5 797 437 793 449 c 1
 761.666666667 441 736.333333333 427.333333333 717 408 c 128
 697.666666667 388.666666667 688 367.333333333 688 344 c 1
 688 344 l 1
92 0 m 1
 92 492 l 1
 387 492 l 1
 377 501.333333333 369.333333333 514.5 364 531.5 c 128
 358.666666667 548.5 356 568 356 590 c 0
 356 629.333333333 376 662.666666667 416 690 c 128
 456 717.333333333 503.666666667 731 559 731 c 0
 620.333333333 731 676.333333333 709.833333333 727 667.5 c 128
 777.666666667 625.166666667 812 570.333333333 830 503 c 1
 848 504 l 1
 914.666666667 504 971.333333333 484.666666667 1018 446 c 128
 1064.66666667 407.333333333 1088 361 1088 307 c 0
 1088 257.666666667 1072.66666667 210.166666667 1042 164.5 c 128
 1011.33333333 118.833333333 969.333333333 80.3333333333 916 49 c 1
 1186 49 l 1
 1186 0 l 1
 713 0 l 1
 809 35.3333333333 886.333333333 81 945 137 c 128
 1003.66666667 193 1033 249.666666667 1033 307 c 0
 1033 347.666666667 1014.83333333 382.5 978.5 411.5 c 128
 942.166666667 440.5 898.666666667 455 848 455 c 1
 852.666666667 444.333333333 856.333333333 429.833333333 859 411.5 c 128
 861.666666667 393.166666667 863 370.666666667 863 344 c 0
 863 314 852 288.166666667 830 266.5 c 128
 808 244.833333333 781.333333333 234 750 234 c 0
 718 234 690.5 244.833333333 667.5 266.5 c 128
 644.5 288.166666667 633 314 633 344 c 0
 633 380.666666667 646.333333333 413.166666667 673 441.5 c 128
 699.666666667 469.833333333 733.333333333 487.666666667 774 495 c 1
 759.333333333 549.666666667 732 594.5 692 629.5 c 128
 652 664.5 607.666666667 682 559 682 c 0
 518.333333333 682 483.666666667 673 455 655 c 128
 426.333333333 637 412 615.333333333 412 590 c 0
 412 568.666666667 415.166666667 549.333333333 421.5 532 c 128
 427.833333333 514.666666667 437 501.333333333 449 492 c 1
 535 492 l 1
 535 443 l 1
 363 443 l 1
 363 264 l 1
 373 275.333333333 385.5 284.333333333 400.5 291 c 128
 415.5 297.666666667 431.666666667 301 449 301 c 0
 493 301 530.5 287.333333333 561.5 260 c 128
 592.5 232.666666667 608 199.333333333 608 160 c 0
 608 116 591.333333333 78.3333333333 558 47 c 128
 524.666666667 15.6666666667 484 0 436 0 c 2
 301 0 l 1
 301 49 l 1
 436 49 l 2
 466 49 492 59.8333333333 514 81.5 c 128
 536 103.166666667 547 129.333333333 547 160 c 0
 547 184 537.333333333 204.333333333 518 221 c 128
 498.666666667 237.666666667 475.666666667 246 449 246 c 0
 435 246 420.333333333 241.666666667 405 233 c 128
 389.666666667 224.333333333 375.666666667 212.333333333 363 197 c 1
 363 98 l 1
 301 98 l 1
 301 443 l 1
 154 443 l 1
 154 0 l 1
 92 0 l 1
 92 0 l 1
EndSplineSet
EndChar

StartChar: tml_TtI
Encoding: 76 -1 71
Width: 815
Flags: HMW
LayerCount: 2
Back
Fore
SplineSet
92 0 m 1
 92 492 l 1
 154 492 l 1
 154 49 l 1
 363 49 l 1
 333 66.3333333333 309 91.6666666667 291 125 c 128
 273 158.333333333 264 194.666666667 264 234 c 0
 264 276.666666667 278.333333333 312.833333333 307 342.5 c 128
 335.666666667 372.166666667 370.666666667 387 412 387 c 0
 452.666666667 387 487.333333333 372 516 342 c 128
 544.666666667 312 559 276 559 234 c 2
 559 49 l 1
 805 49 l 1
 805 0 l 1
 559 0 l 1
 559 -307 l 1
 498 -307 l 1
 498 0 l 1
 92 0 l 1
 92 0 l 1
326 234 m 1
 326 187.333333333 338.666666667 146.5 364 111.5 c 128
 389.333333333 76.5 421.666666667 55.6666666667 461 49 c 1
 498 49 l 1
 498 234 l 2
 498 261.333333333 489.5 284.5 472.5 303.5 c 128
 455.5 322.5 435.333333333 332 412 332 c 0
 388 332 367.666666667 322.333333333 351 303 c 128
 334.333333333 283.666666667 326 260.666666667 326 234 c 1
 326 234 l 1
EndSplineSet
Ligature2: "'abvs' Above Base Substitutions lookup 1 subtable" tml_Tta tml_MatraI
EndChar

StartChar: tml_KU
Encoding: 77 -1 72
Width: 904
Flags: HMW
LayerCount: 2
Back
Fore
SplineSet
449 270 m 1
 572 270 l 1
 572 443 l 1
 449 443 l 1
 449 270 l 1
 449 270 l 1
326 160 m 1
 326 126.666666667 339 97.8333333333 365 73.5 c 128
 391 49.1666666667 423 37 461 37 c 0
 491 37 517 46.6666666667 539 66 c 128
 561 85.3333333333 572 108.333333333 572 135 c 2
 572 221 l 1
 387 221 l 2
 369.666666667 221 355.166666667 215.166666667 343.5 203.5 c 128
 331.833333333 191.833333333 326 177.333333333 326 160 c 1
 326 160 l 1
55 98 m 1
 55 187.333333333 76.8333333333 268.666666667 120.5 342 c 128
 164.166666667 415.333333333 222.333333333 469.333333333 295 504 c 1
 326 455 l 1
 260.666666667 425 208.5 377.5 169.5 312.5 c 128
 130.5 247.5 111 176 111 98 c 0
 111 -3.33333333333 145.166666667 -90 213.5 -162 c 128
 281.833333333 -234 364.333333333 -270 461 -270 c 0
 556.333333333 -270 637.5 -239 704.5 -177 c 128
 771.5 -115 805 -39.6666666667 805 49 c 0
 805 96.3333333333 792 136.833333333 766 170.5 c 128
 740 204.166666667 708 221 670 221 c 2
 633 221 l 1
 633 135 l 2
 633 94.3333333333 616.166666667 59.6666666667 582.5 31 c 128
 548.833333333 2.33333333333 508.333333333 -12 461 -12 c 0
 407 -12 360.666666667 4.83333333333 322 38.5 c 128
 283.333333333 72.1666666667 264 112.666666667 264 160 c 0
 264 190 276.166666667 215.833333333 300.5 237.5 c 128
 324.833333333 259.166666667 353.666666667 270 387 270 c 1
 387 492 l 1
 817 492 l 1
 817 443 l 1
 633 443 l 1
 633 270 l 1
 670 270 l 2
 724 270 770.333333333 248.5 809 205.5 c 128
 847.666666667 162.5 867 110.333333333 867 49 c 0
 867 -52.3333333333 827.333333333 -139.166666667 748 -211.5 c 128
 668.666666667 -283.833333333 573 -320 461 -320 c 256
 349 -320 253.333333333 -279.166666667 174 -197.5 c 128
 94.6666666667 -115.833333333 55 -17.3333333333 55 98 c 1
 55 98 l 1
EndSplineSet
Ligature2: "'psts' Post Base Substitutions lookup 3 subtable" tml_Ka tml_MatraU
EndChar

StartChar: tml_CU
Encoding: 78 -1 73
Width: 668
Flags: HMW
LayerCount: 2
Back
Fore
SplineSet
219 443 m 1
 219 270 l 1
 342 270 l 1
 342 443 l 1
 219 443 l 1
 219 443 l 1
96 160 m 1
 96 126.666666667 109.166666667 97.8333333333 135.5 73.5 c 128
 161.833333333 49.1666666667 193.666666667 37 231 37 c 0
 261 37 287 46.6666666667 309 66 c 128
 331 85.3333333333 342 108.333333333 342 135 c 2
 342 221 l 1
 157 221 l 2
 139.666666667 221 125.166666667 215.166666667 113.5 203.5 c 128
 101.833333333 191.833333333 96 177.333333333 96 160 c 1
 96 160 l 1
34 160 m 1
 34 190 46.1666666667 215.833333333 70.5 237.5 c 128
 94.8333333333 259.166666667 123.666666667 270 157 270 c 1
 157 492 l 1
 575 492 l 1
 575 443 l 1
 403 443 l 1
 403 270 l 1
 649 270 l 1
 649 221 l 1
 575 221 l 1
 575 0 l 1
 514 0 l 1
 514 221 l 1
 403 221 l 1
 403 135 l 2
 403 94.3333333333 386.166666667 59.6666666667 352.5 31 c 128
 318.833333333 2.33333333333 278.333333333 -12 231 -12 c 0
 177 -12 130.666666667 4.83333333333 92 38.5 c 128
 53.3333333333 72.1666666667 34 112.666666667 34 160 c 1
 34 160 l 1
EndSplineSet
Ligature2: "'psts' Post Base Substitutions lookup 3 subtable" tml_Ca tml_MatraU
EndChar

StartChar: tml_NyU
Encoding: 79 -1 74
Width: 1162
Flags: HMW
LayerCount: 2
Back
Fore
SplineSet
210 135 m 1
 210 107.666666667 218.5 84.5 235.5 65.5 c 128
 252.5 46.5 272.666666667 37 296 37 c 0
 320 37 340.333333333 46.6666666667 357 66 c 128
 373.666666667 85.3333333333 382 108.333333333 382 135 c 0
 382 162.333333333 373.666666667 185.666666667 357 205 c 128
 340.333333333 224.333333333 320 234 296 234 c 256
 272 234 251.666666667 224.333333333 235 205 c 128
 218.333333333 185.666666667 210 162.333333333 210 135 c 1
 210 135 l 1
50 209 m 1
 50 287 80 353.666666667 140 409 c 128
 200 464.333333333 272.666666667 492 358 492 c 2
 837 492 l 1
 837 443 l 1
 640 443 l 1
 640 270 l 1
 653.333333333 285.333333333 669.666666667 297.5 689 306.5 c 128
 708.333333333 315.5 729 320 751 320 c 0
 795 320 832.666666667 298.5 864 255.5 c 128
 895.333333333 212.5 911 160 911 98 c 0
 911 63.3333333333 909 31.5 905 2.5 c 128
 901 -26.5 894.666666667 -52 886 -74 c 1
 1009 -74 l 1
 1009 492 l 1
 1071 492 l 1
 1071 -123 l 1
 868 -123 l 1
 832.666666667 -183.666666667 775 -231.666666667 695 -267 c 128
 615 -302.333333333 523 -320 419 -320 c 0
 329.666666667 -320 253 -310.166666667 189 -290.5 c 128
 125 -270.833333333 81 -243.666666667 57 -209 c 0
 47 -199 39.3333333333 -188.666666667 34 -178 c 128
 28.6666666667 -167.333333333 26 -157.333333333 26 -148 c 0
 26 -127.333333333 34.3333333333 -109.833333333 51 -95.5 c 128
 67.6666666667 -81.1666666667 88 -74 112 -74 c 2
 825 -74 l 1
 833 -60 839 -38.5 843 -9.5 c 128
 847 19.5 849 55.3333333333 849 98 c 0
 849 145.333333333 838.166666667 185.833333333 816.5 219.5 c 128
 794.833333333 253.166666667 769 270 739 270 c 0
 720.333333333 270 702.166666667 262.833333333 684.5 248.5 c 128
 666.833333333 234.166666667 652 215 640 191 c 1
 640 0 l 1
 579 0 l 1
 579 443 l 1
 358 443 l 2
 288.666666667 443 229.333333333 420.166666667 180 374.5 c 128
 130.666666667 328.833333333 106 273.666666667 106 209 c 0
 106 183.666666667 113 158 127 132 c 128
 141 106 160.666666667 82.3333333333 186 61 c 1
 178 75 171.833333333 88.3333333333 167.5 101 c 128
 163.166666667 113.666666667 161 125 161 135 c 0
 161 175.666666667 174.166666667 210.5 200.5 239.5 c 128
 226.833333333 268.5 258.666666667 283 296 283 c 0
 334 283 366 268.666666667 392 240 c 128
 418 211.333333333 431 176.333333333 431 135 c 0
 431 94.3333333333 418 59.6666666667 392 31 c 128
 366 2.33333333333 334 -12 296 -12 c 0
 228 -12 170 9.5 122 52.5 c 128
 74 95.5 50 147.666666667 50 209 c 1
 50 209 l 1
87 -148 m 1
 87 -157.333333333 89.6666666667 -166.166666667 95 -174.5 c 128
 100.333333333 -182.833333333 108 -190.333333333 118 -197 c 0
 152.666666667 -221 195.5 -239.166666667 246.5 -251.5 c 128
 297.5 -263.833333333 355 -270 419 -270 c 0
 511 -270 591 -257 659 -231 c 128
 727 -205 774 -169 800 -123 c 1
 112 -123 l 2
 105.333333333 -123 99.5 -125.5 94.5 -130.5 c 128
 89.5 -135.5 87 -141.333333333 87 -148 c 1
 87 -148 l 1
EndSplineSet
Ligature2: "'psts' Post Base Substitutions lookup 3 subtable" tml_Nya tml_MatraU
EndChar

StartChar: tml_TtU
Encoding: 80 -1 75
Width: 914
Flags: HMW
LayerCount: 2
Back
Fore
SplineSet
134 197 m 1
 134 88.3333333333 162.333333333 -4.5 219 -81.5 c 128
 275.666666667 -158.5 343.666666667 -197 423 -197 c 0
 484.333333333 -197 536.5 -170.5 579.5 -117.5 c 128
 622.5 -64.5 644 -0.666666666667 644 74 c 0
 644 114.666666667 634.333333333 149.333333333 615 178 c 128
 595.666666667 206.666666667 572.666666667 221 546 221 c 0
 532 221 517.333333333 216.666666667 502 208 c 128
 486.666666667 199.333333333 472.666666667 187.333333333 460 172 c 1
 460 0 l 1
 398 0 l 1
 398 492 l 1
 460 492 l 1
 460 240 l 1
 474 250 489.333333333 257.5 506 262.5 c 128
 522.666666667 267.5 540 270 558 270 c 0
 598.666666667 270 633.5 250.833333333 662.5 212.5 c 128
 691.5 174.166666667 706 128 706 74 c 0
 706 -14.6666666667 678.333333333 -90.1666666667 623 -152.5 c 128
 567.666666667 -214.833333333 501 -246 423 -246 c 0
 327.666666667 -246 246.5 -202.666666667 179.5 -116 c 128
 112.5 -29.3333333333 79 75 79 197 c 0
 79 361 112.5 492.166666667 179.5 590.5 c 128
 246.5 688.833333333 335.666666667 738 447 738 c 0
 562.333333333 738 654.833333333 693.333333333 724.5 604 c 128
 794.166666667 514.666666667 829 395.333333333 829 246 c 2
 829 0 l 1
 767 0 l 1
 767 246 l 2
 767 379.333333333 738 486.333333333 680 567 c 128
 622 647.666666667 544.333333333 688 447 688 c 0
 351.666666667 688 275.666666667 643.333333333 219 554 c 128
 162.333333333 464.666666667 134 345.666666667 134 197 c 1
 134 197 l 1
EndSplineSet
Ligature2: "'psts' Post Base Substitutions lookup 3 subtable" tml_Tta tml_MatraU
EndChar

StartChar: tml_NnU
Encoding: 81 -1 76
Width: 1437
Flags: HMW
LayerCount: 2
Back
Fore
SplineSet
189 135 m 1
 189 107.666666667 196.166666667 84.5 210.5 65.5 c 128
 224.833333333 46.5 242.333333333 37 263 37 c 256
 283.666666667 37 301.166666667 46.6666666667 315.5 66 c 128
 329.833333333 85.3333333333 337 108.333333333 337 135 c 0
 337 162.333333333 329.833333333 185.666666667 315.5 205 c 128
 301.166666667 224.333333333 283.666666667 234 263 234 c 256
 242.333333333 234 224.833333333 224.333333333 210.5 205 c 128
 196.166666667 185.666666667 189 162.333333333 189 135 c 1
 189 135 l 1
484 197 m 1
 484 153 490 115.333333333 502 84 c 128
 514 52.6666666667 528.666666667 37 546 37 c 256
 563.333333333 37 577.833333333 52.5 589.5 83.5 c 128
 601.166666667 114.5 607 152.333333333 607 197 c 0
 607 227 601.666666667 256.166666667 591 284.5 c 128
 580.333333333 312.833333333 565.333333333 339 546 363 c 1
 526 339 510.666666667 312.833333333 500 284.5 c 128
 489.333333333 256.166666667 484 227 484 197 c 1
 484 197 l 1
779 197 m 1
 779 153 785 115.333333333 797 84 c 128
 809 52.6666666667 823.666666667 37 841 37 c 256
 858.333333333 37 872.833333333 52.5 884.5 83.5 c 128
 896.166666667 114.5 902 152.333333333 902 197 c 0
 902 229 896.666666667 259.666666667 886 289 c 128
 875.333333333 318.333333333 860.333333333 345 841 369 c 1
 821 345 805.666666667 318.333333333 795 289 c 128
 784.333333333 259.666666667 779 229 779 197 c 1
 779 197 l 1
976 492 m 1
 1040.66666667 492 1095.83333333 464.333333333 1141.5 409 c 128
 1187.16666667 353.666666667 1210 287 1210 209 c 0
 1210 155.666666667 1201.5 104.666666667 1184.5 56 c 128
 1167.5 7.33333333333 1143 -36 1111 -74 c 1
 1283 -74 l 1
 1283 492 l 1
 1345 492 l 1
 1345 -123 l 1
 1062 -123 l 1
 1009.33333333 -185 934.666666667 -233.333333333 838 -268 c 128
 741.333333333 -302.666666667 631.666666667 -320 509 -320 c 0
 429 -320 356.166666667 -310.5 290.5 -291.5 c 128
 224.833333333 -272.5 170.666666667 -245 128 -209 c 0
 112.666666667 -195.666666667 100.666666667 -180.5 92 -163.5 c 128
 83.3333333333 -146.5 79 -129 79 -111 c 0
 79 -101 82.6666666667 -92.3333333333 90 -85 c 128
 97.3333333333 -77.6666666667 106 -74 116 -74 c 2
 1038 -74 l 1
 1074 -31.3333333333 1101.33333333 14.3333333333 1120 63 c 128
 1138.66666667 111.666666667 1148 160.333333333 1148 209 c 0
 1148 273.666666667 1131.16666667 328.833333333 1097.5 374.5 c 128
 1063.83333333 420.166666667 1023.33333333 443 976 443 c 0
 961.333333333 443 945.666666667 440.333333333 929 435 c 128
 912.333333333 429.666666667 895.333333333 422 878 412 c 1
 906 379.333333333 927.333333333 345.5 942 310.5 c 128
 956.666666667 275.5 964 241.666666667 964 209 c 0
 964 147.666666667 951.833333333 95.5 927.5 52.5 c 128
 903.166666667 9.5 874.333333333 -12 841 -12 c 256
 807.666666667 -12 778.833333333 9.5 754.5 52.5 c 128
 730.166666667 95.5 718 147.666666667 718 209 c 0
 718 252.333333333 725 291.666666667 739 327 c 128
 753 362.333333333 772.666666667 390.666666667 798 412 c 1
 781.333333333 426 764 436.666666667 746 444 c 128
 728 451.333333333 710.333333333 455 693 455 c 256
 675.666666667 455 657.666666667 450.666666667 639 442 c 128
 620.333333333 433.333333333 601.666666667 421.333333333 583 406 c 1
 610.333333333 383.333333333 631.5 353.666666667 646.5 317 c 128
 661.5 280.333333333 669 240.333333333 669 197 c 0
 669 139.666666667 656.833333333 90.5 632.5 49.5 c 128
 608.166666667 8.5 579.333333333 -12 546 -12 c 256
 512.666666667 -12 483.833333333 8.5 459.5 49.5 c 128
 435.166666667 90.5 423 139.666666667 423 197 c 0
 423 235.666666667 430 273.333333333 444 310 c 128
 458 346.666666667 477.666666667 380.666666667 503 412 c 1
 486.333333333 426 466 436.666666667 442 444 c 128
 418 451.333333333 391 455 361 455 c 0
 289.666666667 455 228.833333333 431 178.5 383 c 128
 128.166666667 335 103 277 103 209 c 0
 103 172.333333333 109 139 121 109 c 128
 133 79 149.666666667 55 171 37 c 1
 161 54.3333333333 153.333333333 71.3333333333 148 88 c 128
 142.666666667 104.666666667 140 120.333333333 140 135 c 0
 140 175.666666667 152.166666667 210.5 176.5 239.5 c 128
 200.833333333 268.5 229.666666667 283 263 283 c 256
 296.333333333 283 325.166666667 268.666666667 349.5 240 c 128
 373.833333333 211.333333333 386 176.333333333 386 135 c 0
 386 94.3333333333 371.666666667 59.6666666667 343 31 c 128
 314.333333333 2.33333333333 279.333333333 -12 238 -12 c 0
 187.333333333 -12 144 9.5 108 52.5 c 128
 72 95.5 54 147.666666667 54 209 c 0
 54 290.333333333 84 359.833333333 144 417.5 c 128
 204 475.166666667 276.333333333 504 361 504 c 0
 399.666666667 504 434.833333333 499.333333333 466.5 490 c 128
 498.166666667 480.666666667 524.666666667 467 546 449 c 1
 567.333333333 467 590.666666667 480.666666667 616 490 c 128
 641.333333333 499.333333333 667 504 693 504 c 0
 721.666666667 504 749.166666667 499.333333333 775.5 490 c 128
 801.833333333 480.666666667 825.666666667 467 847 449 c 1
 863.666666667 463 883 473.666666667 905 481 c 128
 927 488.333333333 950.666666667 492 976 492 c 1
 976 492 l 1
165 -123 m 1
 158.333333333 -123 152.5 -124.833333333 147.5 -128.5 c 128
 142.5 -132.166666667 140 -136.333333333 140 -141 c 0
 140 -147 148 -156 164 -168 c 128
 180 -180 192.666666667 -189.666666667 202 -197 c 0
 230.666666667 -221 271.333333333 -239.166666667 324 -251.5 c 128
 376.666666667 -263.833333333 438.333333333 -270 509 -270 c 0
 607.666666667 -270 698.166666667 -257.333333333 780.5 -232 c 128
 862.833333333 -206.666666667 932 -170.333333333 988 -123 c 1
 165 -123 l 1
 165 -123 l 1
EndSplineSet
Ligature2: "'psts' Post Base Substitutions lookup 3 subtable" tml_Nna tml_MatraU
EndChar

StartChar: tml_TU
Encoding: 82 -1 77
Width: 888
Flags: HMW
LayerCount: 2
Back
Fore
SplineSet
219 270 m 1
 342 270 l 1
 342 443 l 1
 219 443 l 1
 219 270 l 1
 219 270 l 1
96 160 m 1
 96 126.666666667 109.166666667 97.8333333333 135.5 73.5 c 128
 161.833333333 49.1666666667 193.666666667 37 231 37 c 0
 261 37 287 46.6666666667 309 66 c 128
 331 85.3333333333 342 108.333333333 342 135 c 2
 342 221 l 1
 176 221 l 2
 154 221 135.166666667 215.166666667 119.5 203.5 c 128
 103.833333333 191.833333333 96 177.333333333 96 160 c 1
 96 160 l 1
84 -123 m 1
 76 -123 68.8333333333 -125.5 62.5 -130.5 c 128
 56.1666666667 -135.5 53 -141.333333333 53 -148 c 0
 53 -175.333333333 78.3333333333 -202.5 129 -229.5 c 128
 179.666666667 -256.5 230 -270 280 -270 c 0
 333.333333333 -270 383.166666667 -257 429.5 -231 c 128
 475.833333333 -205 512 -169 538 -123 c 1
 84 -123 l 1
 84 -123 l 1
4 -148 m 1
 4 -127.333333333 11.6666666667 -109.833333333 27 -95.5 c 128
 42.3333333333 -81.1666666667 61.3333333333 -74 84 -74 c 2
 557 -74 l 1
 563 -57.3333333333 567.5 -35.5 570.5 -8.5 c 128
 573.5 18.5 575 50 575 86 c 0
 575 124 564.166666667 156 542.5 182 c 128
 520.833333333 208 495 221 465 221 c 2
 403 221 l 1
 403 135 l 2
 403 94.3333333333 386.166666667 59.6666666667 352.5 31 c 128
 318.833333333 2.33333333333 278.333333333 -12 231 -12 c 0
 177 -12 130.666666667 4.83333333333 92 38.5 c 128
 53.3333333333 72.1666666667 34 112.666666667 34 160 c 0
 34 190 46.1666666667 215.833333333 70.5 237.5 c 128
 94.8333333333 259.166666667 123.666666667 270 157 270 c 1
 157 492 l 1
 575 492 l 1
 575 443 l 1
 403 443 l 1
 403 270 l 1
 465 270 l 2
 512.333333333 270 552.833333333 252 586.5 216 c 128
 620.166666667 180 637 136.666666667 637 86 c 0
 637 50 635.333333333 18.5 632 -8.5 c 128
 628.666666667 -35.5 624 -57.3333333333 618 -74 c 1
 735 -74 l 1
 735 492 l 1
 797 492 l 1
 797 -123 l 1
 606 -123 l 1
 578 -183 534.5 -230.833333333 475.5 -266.5 c 128
 416.5 -302.166666667 351.333333333 -320 280 -320 c 0
 204 -320 139 -303.166666667 85 -269.5 c 128
 31 -235.833333333 4 -195.333333333 4 -148 c 1
 4 -148 l 1
EndSplineSet
Ligature2: "'psts' Post Base Substitutions lookup 3 subtable" tml_Ta tml_MatraU
EndChar

StartChar: tml_NU
Encoding: 83 -1 78
Width: 885
Flags: HMW
LayerCount: 2
Back
Fore
SplineSet
6 -148 m 1
 6 -127.333333333 12.5 -109.833333333 25.5 -95.5 c 128
 38.5 -81.1666666667 54.6666666667 -74 74 -74 c 2
 547 -74 l 1
 555 -60 561.166666667 -38.5 565.5 -9.5 c 128
 569.833333333 19.5 572 55.3333333333 572 98 c 0
 572 145.333333333 561 185.833333333 539 219.5 c 128
 517 253.166666667 491 270 461 270 c 0
 442.333333333 270 424.166666667 262.833333333 406.5 248.5 c 128
 388.833333333 234.166666667 374.333333333 215 363 191 c 1
 363 0 l 1
 301 0 l 1
 301 443 l 1
 154 443 l 1
 154 0 l 1
 92 0 l 1
 92 492 l 1
 553 492 l 1
 553 443 l 1
 363 443 l 1
 363 270 l 1
 376.333333333 285.333333333 392.5 297.5 411.5 306.5 c 128
 430.5 315.5 451 320 473 320 c 0
 517 320 554.666666667 298.5 586 255.5 c 128
 617.333333333 212.5 633 160 633 98 c 0
 633 63.3333333333 631 31.5 627 2.5 c 128
 623 -26.5 616.666666667 -52 608 -74 c 1
 731 -74 l 1
 731 492 l 1
 793 492 l 1
 793 -123 l 1
 590 -123 l 1
 554.666666667 -183.666666667 509 -231.666666667 453 -267 c 128
 397 -302.333333333 338.333333333 -320 277 -320 c 0
 217 -320 156.833333333 -300.666666667 96.5 -262 c 128
 36.1666666667 -223.333333333 6 -185.333333333 6 -148 c 1
 6 -148 l 1
68 -148 m 1
 68 -175.333333333 91.3333333333 -202.5 138 -229.5 c 128
 184.666666667 -256.5 231 -270 277 -270 c 0
 323.666666667 -270 369.333333333 -257 414 -231 c 128
 458.666666667 -205 497 -169 529 -123 c 1
 104 -123 l 2
 94 -123 85.5 -125.5 78.5 -130.5 c 128
 71.5 -135.5 68 -141.333333333 68 -148 c 1
 68 -148 l 1
EndSplineSet
Ligature2: "'psts' Post Base Substitutions lookup 3 subtable" tml_Na tml_MatraU
EndChar

StartChar: tml_NnnU
Encoding: 84 -1 79
Width: 1188
Flags: HMW
LayerCount: 2
Back
Fore
SplineSet
187 135 m 1
 187 111 195.333333333 90.6666666667 212 74 c 128
 228.666666667 57.3333333333 249 49 273 49 c 256
 297 49 317.333333333 57.5 334 74.5 c 128
 350.666666667 91.5 359 111.666666667 359 135 c 0
 359 162.333333333 350.666666667 185.666666667 334 205 c 128
 317.333333333 224.333333333 297 234 273 234 c 256
 249 234 228.666666667 224.333333333 212 205 c 128
 195.333333333 185.666666667 187 162.333333333 187 135 c 1
 187 135 l 1
519 197 m 1
 519 153 524.833333333 115.333333333 536.5 84 c 128
 548.166666667 52.6666666667 562.666666667 37 580 37 c 256
 597.333333333 37 612 52.5 624 83.5 c 128
 636 114.5 642 152.333333333 642 197 c 0
 642 229 636.666666667 259.666666667 626 289 c 128
 615.333333333 318.333333333 600 345 580 369 c 1
 560 345 544.833333333 318.333333333 534.5 289 c 128
 524.166666667 259.666666667 519 229 519 197 c 1
 519 197 l 1
728 504 m 1
 789.333333333 504 841.5 474.166666667 884.5 414.5 c 128
 927.5 354.833333333 949 282.333333333 949 197 c 0
 949 150.333333333 942.666666667 104 930 58 c 128
 917.333333333 12 899 -32 875 -74 c 1
 1035 -74 l 1
 1035 492 l 1
 1097 492 l 1
 1097 -123 l 1
 851 -123 l 1
 815.666666667 -183.666666667 764 -231.666666667 696 -267 c 128
 628 -302.333333333 552.666666667 -320 470 -320 c 0
 368.666666667 -320 281.833333333 -302.5 209.5 -267.5 c 128
 137.166666667 -232.5 101 -190.333333333 101 -141 c 0
 101 -122.333333333 109.333333333 -106.5 126 -93.5 c 128
 142.666666667 -80.5 163 -74 187 -74 c 2
 814 -74 l 1
 838 -32 856.333333333 12 869 58 c 128
 881.666666667 104 888 150.333333333 888 197 c 0
 888 268.333333333 872.333333333 329.166666667 841 379.5 c 128
 809.666666667 429.833333333 772 455 728 455 c 0
 710.666666667 455 692.5 450.666666667 673.5 442 c 128
 654.5 433.333333333 635.666666667 421.333333333 617 406 c 1
 644.333333333 383.333333333 665.5 353.666666667 680.5 317 c 128
 695.5 280.333333333 703 240.333333333 703 197 c 0
 703 139.666666667 691 90.5 667 49.5 c 128
 643 8.5 614 -12 580 -12 c 0
 546.666666667 -12 517.833333333 8.5 493.5 49.5 c 128
 469.166666667 90.5 457 139.666666667 457 197 c 0
 457 239 464.666666667 277.5 480 312.5 c 128
 495.333333333 347.5 516.333333333 376.666666667 543 400 c 1
 521.666666667 418 496.333333333 431.666666667 467 441 c 128
 437.666666667 450.333333333 405.666666667 455 371 455 c 0
 296.333333333 455 232.666666667 431 180 383 c 128
 127.333333333 335 101 277 101 209 c 0
 101 183 105.333333333 159.333333333 114 138 c 128
 122.666666667 116.666666667 134.666666667 99.3333333333 150 86 c 1
 146 93.3333333333 143 101.166666667 141 109.5 c 128
 139 117.833333333 138 126.333333333 138 135 c 0
 138 175.666666667 151 210.5 177 239.5 c 128
 203 268.5 235 283 273 283 c 256
 311 283 343 268.666666667 369 240 c 128
 395 211.333333333 408 176.333333333 408 135 c 0
 408 94.3333333333 394.833333333 59.6666666667 368.5 31 c 128
 342.166666667 2.33333333333 310.333333333 -12 273 -12 c 0
 211.666666667 -12 159.5 9.5 116.5 52.5 c 128
 73.5 95.5 52 147.666666667 52 209 c 0
 52 290.333333333 83 359.833333333 145 417.5 c 128
 207 475.166666667 282.333333333 504 371 504 c 0
 414.333333333 504 454.166666667 498.666666667 490.5 488 c 128
 526.833333333 477.333333333 556.666666667 462.333333333 580 443 c 1
 604 463 628.666666667 478.166666667 654 488.5 c 128
 679.333333333 498.833333333 704 504 728 504 c 1
 728 504 l 1
187 -123 m 1
 180.333333333 -123 174.5 -124.833333333 169.5 -128.5 c 128
 164.5 -132.166666667 162 -136.333333333 162 -141 c 0
 162 -176.333333333 192 -206.666666667 252 -232 c 128
 312 -257.333333333 384.666666667 -270 470 -270 c 0
 540.666666667 -270 604 -257 660 -231 c 128
 716 -205 757 -169 783 -123 c 1
 187 -123 l 1
 187 -123 l 1
EndSplineSet
Ligature2: "'psts' Post Base Substitutions lookup 3 subtable" tml_Nnna tml_MatraU
EndChar

StartChar: tml_MU
Encoding: 85 -1 80
Width: 1137
Flags: HMW
LayerCount: 2
Back
Fore
SplineSet
54 111 m 1
 54 197.666666667 79.8333333333 277 131.5 349 c 128
 183.166666667 421 251.666666667 472.666666667 337 504 c 1
 361 455 l 1
 281.666666667 426.333333333 217.833333333 380.5 169.5 317.5 c 128
 121.166666667 254.5 97 185.666666667 97 111 c 0
 97 6.33333333333 130.666666667 -83.3333333333 198 -158 c 128
 265.333333333 -232.666666667 346.333333333 -270 441 -270 c 0
 512.333333333 -270 573.166666667 -243.666666667 623.5 -191 c 128
 673.833333333 -138.333333333 699 -74.6666666667 699 0 c 1
 404 0 l 1
 404 492 l 1
 466 492 l 1
 466 49 l 1
 699 49 l 1
 699 369 l 2
 699 407 712.166666667 439 738.5 465 c 128
 764.833333333 491 797 504 835 504 c 0
 903 504 961 472.833333333 1009 410.5 c 128
 1057 348.166666667 1081 272.666666667 1081 184 c 0
 1081 133.333333333 1066.5 90 1037.5 54 c 128
 1008.5 18 973.666666667 0 933 0 c 2
 761 0 l 1
 761 -88.6666666667 729.833333333 -164.166666667 667.5 -226.5 c 128
 605.166666667 -288.833333333 529.666666667 -320 441 -320 c 0
 334.333333333 -320 243.166666667 -278 167.5 -194 c 128
 91.8333333333 -110 54 -8.33333333333 54 111 c 1
 54 111 l 1
761 369 m 1
 761 49 l 1
 933 49 l 2
 957 49 977.333333333 62.1666666667 994 88.5 c 128
 1010.66666667 114.833333333 1019 146.666666667 1019 184 c 0
 1019 258.666666667 1001 322.5 965 375.5 c 128
 929 428.5 885.666666667 455 835 455 c 0
 817.666666667 455 802 446.833333333 788 430.5 c 128
 774 414.166666667 765 393.666666667 761 369 c 1
 761 369 l 1
EndSplineSet
Ligature2: "'psts' Post Base Substitutions lookup 3 subtable" tml_Ma tml_MatraU
EndChar

StartChar: tml_RU
Encoding: 86 -1 81
Width: 949
Flags: HMW
LayerCount: 2
Back
Fore
SplineSet
486 -270 m 1
 584.666666667 -270 668.666666667 -231.833333333 738 -155.5 c 128
 807.333333333 -79.1666666667 842 13.6666666667 842 123 c 0
 842 161 830.5 193 807.5 219 c 128
 784.5 245 757 258 725 258 c 0
 713 258 700 253.666666667 686 245 c 128
 672 236.333333333 658.333333333 224.333333333 645 209 c 1
 645 0 l 1
 584 0 l 1
 584 443 l 1
 436 443 l 1
 436 0 l 1
 375 0 l 1
 375 492 l 1
 817 492 l 1
 817 443 l 1
 645 443 l 1
 645 270 l 1
 651.666666667 281.333333333 662.833333333 290.333333333 678.5 297 c 128
 694.166666667 303.666666667 711.666666667 307 731 307 c 0
 778.333333333 307 819 289 853 253 c 128
 887 217 904 173.666666667 904 123 c 0
 904 1 863.166666667 -103.333333333 781.5 -190 c 128
 699.833333333 -276.666666667 601.333333333 -320 486 -320 c 0
 367.333333333 -320 265.833333333 -278.5 181.5 -195.5 c 128
 97.1666666667 -112.5 55 -12.6666666667 55 104 c 0
 55 186.666666667 75.3333333333 263.833333333 116 335.5 c 128
 156.666666667 407.166666667 212.333333333 463.333333333 283 504 c 1
 313 461 l 1
 249.666666667 425 200.166666667 375 164.5 311 c 128
 128.833333333 247 111 178 111 104 c 0
 111 0.666666666667 147.666666667 -87.5 221 -160.5 c 128
 294.333333333 -233.5 382.666666667 -270 486 -270 c 1
 486 -270 l 1
EndSplineSet
Ligature2: "'psts' Post Base Substitutions lookup 3 subtable" tml_Ra tml_MatraU
EndChar

StartChar: tml_RrU
Encoding: 87 -1 82
Width: 856
Flags: HMW
LayerCount: 2
Back
Fore
SplineSet
89 369 m 1
 89 407 102 439 128 465 c 128
 154 491 186 504 224 504 c 0
 248.666666667 504 270.5 498.5 289.5 487.5 c 128
 308.5 476.5 321.333333333 461.666666667 328 443 c 1
 338.666666667 461.666666667 355.166666667 476.5 377.5 487.5 c 128
 399.833333333 498.5 424.333333333 504 451 504 c 0
 500.333333333 504 542.333333333 477.5 577 424.5 c 128
 611.666666667 371.5 629 308 629 234 c 0
 629 193.333333333 625 147 617 95 c 128
 609 43 596.666666667 -13.3333333333 580 -74 c 1
 703 -74 l 1
 703 492 l 1
 765 492 l 1
 765 -123 l 1
 556 -123 l 1
 534.666666667 -182.333333333 495.666666667 -230 439 -266 c 128
 382.333333333 -302 318.666666667 -320 248 -320 c 0
 183.333333333 -320 128.333333333 -303.166666667 83 -269.5 c 128
 37.6666666667 -235.833333333 15 -195.333333333 15 -148 c 0
 15 -127.333333333 23.3333333333 -109.833333333 40 -95.5 c 128
 56.6666666667 -81.1666666667 77 -74 101 -74 c 2
 519 -74 l 1
 535.666666667 -28.6666666667 548 19.6666666667 556 71 c 128
 564 122.333333333 568 176.666666667 568 234 c 256
 568 291.333333333 556.5 340.5 533.5 381.5 c 128
 510.5 422.5 483 443 451 443 c 0
 425.666666667 443 404 435.833333333 386 421.5 c 128
 368 407.166666667 359 389.666666667 359 369 c 2
 359 0 l 1
 297 0 l 1
 297 369 l 2
 297 393 289.833333333 413.333333333 275.5 430 c 128
 261.166666667 446.666666667 244 455 224 455 c 0
 203.333333333 455 185.833333333 446.5 171.5 429.5 c 128
 157.166666667 412.5 150 392.333333333 150 369 c 2
 150 0 l 1
 89 0 l 1
 89 369 l 1
 89 369 l 1
76 -148 m 1
 76 -181.333333333 92.8333333333 -210 126.5 -234 c 128
 160.166666667 -258 200.666666667 -270 248 -270 c 0
 305.333333333 -270 356.666666667 -256.5 402 -229.5 c 128
 447.333333333 -202.5 478 -167 494 -123 c 1
 101 -123 l 2
 94.3333333333 -123 88.5 -125.5 83.5 -130.5 c 128
 78.5 -135.5 76 -141.333333333 76 -148 c 1
 76 -148 l 1
EndSplineSet
Ligature2: "'psts' Post Base Substitutions lookup 3 subtable" tml_Rra tml_MatraU
EndChar

StartChar: tml_LU
Encoding: 88 -1 83
Width: 1055
Flags: HMW
LayerCount: 2
Back
Fore
SplineSet
202 123 m 1
 202 99 207.833333333 78.6666666667 219.5 62 c 128
 231.166666667 45.3333333333 245.666666667 37 263 37 c 0
 283.666666667 37 301.166666667 45.3333333333 315.5 62 c 128
 329.833333333 78.6666666667 337 99 337 123 c 256
 337 147 329.833333333 167.333333333 315.5 184 c 128
 301.166666667 200.666666667 283.666666667 209 263 209 c 0
 245.666666667 209 231.166666667 200.666666667 219.5 184 c 128
 207.833333333 167.333333333 202 147 202 123 c 1
 202 123 l 1
116 -148 m 1
 116 -183.333333333 139.833333333 -213.666666667 187.5 -239 c 128
 235.166666667 -264.333333333 293 -277 361 -277 c 0
 422.333333333 -277 474.666666667 -262 518 -232 c 128
 561.333333333 -202 583 -165.666666667 583 -123 c 1
 140 -123 l 2
 133.333333333 -123 127.666666667 -125.5 123 -130.5 c 128
 118.333333333 -135.5 116 -141.333333333 116 -148 c 1
 116 -148 l 1
54 221 m 1
 54 299 81.6666666667 365.666666667 137 421 c 128
 192.333333333 476.333333333 259 504 337 504 c 0
 384.333333333 504 424.833333333 489.666666667 458.5 461 c 128
 492.166666667 432.333333333 509 397.333333333 509 356 c 2
 509 111 l 2
 509 93.6666666667 516.166666667 79 530.5 67 c 128
 544.833333333 55 562.333333333 49 583 49 c 0
 623.666666667 49 658.333333333 70.5 687 113.5 c 128
 715.666666667 156.5 730 208.666666667 730 270 c 0
 730 319.333333333 715.666666667 363.5 687 402.5 c 128
 658.333333333 441.5 621.666666667 467 577 479 c 1
 595 529 l 1
 651.666666667 519 698.666666667 489.666666667 736 441 c 128
 773.333333333 392.333333333 792 335.333333333 792 270 c 0
 792 212.666666667 778.833333333 159.833333333 752.5 111.5 c 128
 726.166666667 63.1666666667 690 26 644 0 c 1
 644 -74 l 1
 902 -74 l 1
 902 492 l 1
 964 492 l 1
 964 -123 l 1
 644 -123 l 1
 644 -179 616.333333333 -226.833333333 561 -266.5 c 128
 505.666666667 -306.166666667 439 -326 361 -326 c 0
 279.666666667 -326 210.166666667 -308.5 152.5 -273.5 c 128
 94.8333333333 -238.5 66 -196.666666667 66 -148 c 0
 66 -127.333333333 73.1666666667 -109.833333333 87.5 -95.5 c 128
 101.833333333 -81.1666666667 119.333333333 -74 140 -74 c 2
 583 -74 l 1
 583 0 l 1
 545 0 512.833333333 10.8333333333 486.5 32.5 c 128
 460.166666667 54.1666666667 447 80.3333333333 447 111 c 2
 447 356 l 2
 447 383.333333333 436.166666667 406.666666667 414.5 426 c 128
 392.833333333 445.333333333 367 455 337 455 c 0
 272.333333333 455 217.166666667 432.166666667 171.5 386.5 c 128
 125.833333333 340.833333333 103 285.666666667 103 221 c 0
 103 193 108.333333333 165.333333333 119 138 c 128
 129.666666667 110.666666667 145 85 165 61 c 1
 161 72.3333333333 157.833333333 84.3333333333 155.5 97 c 128
 153.166666667 109.666666667 152 122.333333333 152 135 c 0
 152 168.333333333 163 197.166666667 185 221.5 c 128
 207 245.833333333 233 258 263 258 c 0
 296.333333333 258 325.166666667 244.833333333 349.5 218.5 c 128
 373.833333333 192.166666667 386 160.333333333 386 123 c 0
 386 85 373.833333333 53 349.5 27 c 128
 325.166666667 1 296.333333333 -12 263 -12 c 0
 205.666666667 -12 156.5 10.6666666667 115.5 56 c 128
 74.5 101.333333333 54 156.333333333 54 221 c 1
 54 221 l 1
EndSplineSet
Ligature2: "'psts' Post Base Substitutions lookup 3 subtable" tml_La tml_MatraU
EndChar

StartChar: tml_LlU
Encoding: 89 -1 84
Width: 1321
Flags: HMW
LayerCount: 2
Back
Fore
SplineSet
455 123 m 1
 455 99 462.166666667 78.6666666667 476.5 62 c 128
 490.833333333 45.3333333333 508.333333333 37 529 37 c 256
 549.666666667 37 567 45.3333333333 581 62 c 128
 595 78.6666666667 602 99 602 123 c 256
 602 147 594.833333333 167.333333333 580.5 184 c 128
 566.166666667 200.666666667 549 209 529 209 c 0
 508.333333333 209 490.833333333 200.666666667 476.5 184 c 128
 462.166666667 167.333333333 455 147 455 123 c 1
 455 123 l 1
135 246 m 1
 135 96.6666666667 192.666666667 -30.8333333333 308 -136.5 c 128
 423.333333333 -242.166666667 562.333333333 -295 725 -295 c 0
 861 -295 977 -259 1073 -187 c 128
 1169 -115 1217 -28 1217 74 c 0
 1217 114.666666667 1207.33333333 149.333333333 1188 178 c 128
 1168.66666667 206.666666667 1145.66666667 221 1119 221 c 0
 1102.33333333 221 1086.5 216.666666667 1071.5 208 c 128
 1056.5 199.333333333 1043.66666667 187.333333333 1033 172 c 1
 1033 0 l 1
 971 0 l 1
 971 443 l 1
 787 443 l 1
 787 0 l 1
 725 0 l 1
 725 246 l 2
 725 300 707 346.333333333 671 385 c 128
 635 423.666666667 591.666666667 443 541 443 c 256
 490.333333333 443 446.833333333 421.333333333 410.5 378 c 128
 374.166666667 334.666666667 356 282.333333333 356 221 c 0
 356 191 361.333333333 163 372 137 c 128
 382.666666667 111 398 90 418 74 c 1
 414 85.3333333333 411 95.1666666667 409 103.5 c 128
 407 111.833333333 406 118.333333333 406 123 c 0
 406 161 418 193 442 219 c 128
 466 245 495 258 529 258 c 0
 562.333333333 258 591.166666667 244.833333333 615.5 218.5 c 128
 639.833333333 192.166666667 652 160.333333333 652 123 c 0
 652 85 637.5 53 608.5 27 c 128
 579.5 1 544.666666667 -12 504 -12 c 0
 446.666666667 -12 397.5 10.6666666667 356.5 56 c 128
 315.5 101.333333333 295 156.333333333 295 221 c 0
 295 297 319 362.166666667 367 416.5 c 128
 415 470.833333333 473 498 541 498 c 0
 587 498 628 487.333333333 664 466 c 128
 700 444.666666667 724.666666667 416.333333333 738 381 c 1
 738 492 l 1
 1229 492 l 1
 1229 443 l 1
 1033 443 l 1
 1033 246 l 1
 1044.33333333 257.333333333 1057.5 266.333333333 1072.5 273 c 128
 1087.5 279.666666667 1103 283 1119 283 c 0
 1163 283 1200.5 262.5 1231.5 221.5 c 128
 1262.5 180.5 1278 131.333333333 1278 74 c 0
 1278 -41.3333333333 1224 -139.833333333 1116 -221.5 c 128
 1008 -303.166666667 877.666666667 -344 725 -344 c 0
 545 -344 391.5 -286.5 264.5 -171.5 c 128
 137.5 -56.5 74 82.6666666667 74 246 c 0
 74 303.333333333 82.3333333333 357.333333333 99 408 c 128
 115.666666667 458.666666667 140 503 172 541 c 1
 215 504 l 1
 189.666666667 472.666666667 170 435 156 391 c 128
 142 347 135 298.666666667 135 246 c 1
 135 246 l 1
EndSplineSet
Ligature2: "'psts' Post Base Substitutions lookup 3 subtable" tml_Lla tml_MatraU
EndChar

StartChar: tml_LllU
Encoding: 90 -1 85
Width: 1094
Flags: HMW
LayerCount: 2
Back
Fore
SplineSet
740 49 m 1
 888 49 l 2
 912 49 932.333333333 62.1666666667 949 88.5 c 128
 965.666666667 114.833333333 974 146.666666667 974 184 c 0
 974 258.666666667 958.333333333 322.5 927 375.5 c 128
 895.666666667 428.5 858 455 814 455 c 0
 796.666666667 455 781 446.833333333 767 430.5 c 128
 753 414.166666667 744 393.666666667 740 369 c 1
 740 49 l 1
 740 49 l 1
64 135 m 1
 64 217.666666667 80.3333333333 292.666666667 113 360 c 128
 145.666666667 427.333333333 190.666666667 477.333333333 248 510 c 1
 285 467 l 1
 233.666666667 437.666666667 193.166666667 393.333333333 163.5 334 c 128
 133.833333333 274.666666667 119 208.333333333 119 135 c 0
 119 16.3333333333 161.666666667 -85 247 -169 c 128
 332.333333333 -253 435.333333333 -295 556 -295 c 0
 641.333333333 -295 713.833333333 -280.666666667 773.5 -252 c 128
 833.166666667 -223.333333333 863 -188.666666667 863 -148 c 0
 863 -130.666666667 857 -116 845 -104 c 128
 833 -92 818.333333333 -86 801 -86 c 0
 791 -86 780.833333333 -89.3333333333 770.5 -96 c 128
 760.166666667 -102.666666667 750 -111.666666667 740 -123 c 1
 740 -184 l 1
 679 -184 l 1
 679 0 l 1
 384 0 l 1
 384 492 l 1
 445 492 l 1
 445 49 l 1
 679 49 l 1
 679 369 l 2
 679 407 692 439 718 465 c 128
 744 491 776 504 814 504 c 0
 875.333333333 504 927.5 472.833333333 970.5 410.5 c 128
 1013.5 348.166666667 1035 272.666666667 1035 184 c 0
 1035 133.333333333 1020.66666667 90 992 54 c 128
 963.333333333 18 928.666666667 0 888 0 c 2
 740 0 l 1
 740 -61 l 1
 750 -53 760.166666667 -47 770.5 -43 c 128
 780.833333333 -39 791 -37 801 -37 c 0
 834.333333333 -37 863.166666667 -49 887.5 -73 c 128
 911.833333333 -97 924 -126 924 -160 c 0
 924 -210.666666667 888 -254 816 -290 c 128
 744 -326 657.333333333 -344 556 -344 c 0
 420 -344 304 -297.333333333 208 -204 c 128
 112 -110.666666667 64 2.33333333333 64 135 c 1
 64 135 l 1
EndSplineSet
Ligature2: "'psts' Post Base Substitutions lookup 3 subtable" tml_Llla tml_MatraU
EndChar

StartChar: tml_KUu
Encoding: 91 -1 86
Width: 1027
Flags: HMW
LayerCount: 2
Back
Fore
SplineSet
219 270 m 1
 342 270 l 1
 342 443 l 1
 219 443 l 1
 219 270 l 1
 219 270 l 1
96 160 m 1
 96 130 109.166666667 104 135.5 82 c 128
 161.833333333 60 193.666666667 49 231 49 c 0
 261 49 287 57.5 309 74.5 c 128
 331 91.5 342 111.666666667 342 135 c 2
 342 221 l 1
 157 221 l 2
 139.666666667 221 125.166666667 215.166666667 113.5 203.5 c 128
 101.833333333 191.833333333 96 177.333333333 96 160 c 1
 96 160 l 1
526 123 m 1
 526 99 530.666666667 78.6666666667 540 62 c 128
 549.333333333 45.3333333333 561 37 575 37 c 256
 589 37 600.666666667 45.3333333333 610 62 c 128
 619.333333333 78.6666666667 624 99 624 123 c 0
 624 144.333333333 617.333333333 164 604 182 c 128
 590.666666667 200 573 213 551 221 c 1
 543 207 536.833333333 191.666666667 532.5 175 c 128
 528.166666667 158.333333333 526 141 526 123 c 1
 526 123 l 1
34 160 m 1
 34 190 46.1666666667 215.833333333 70.5 237.5 c 128
 94.8333333333 259.166666667 123.666666667 270 157 270 c 1
 157 492 l 1
 600 492 l 1
 600 443 l 1
 403 443 l 1
 403 270 l 1
 526 270 l 1
 540 300 561.5 324 590.5 342 c 128
 619.5 360 651.333333333 369 686 369 c 0
 733.333333333 369 773.833333333 349.666666667 807.5 311 c 128
 841.166666667 272.333333333 858 226 858 172 c 0
 858 149.333333333 854.333333333 127.333333333 847 106 c 128
 839.666666667 84.6666666667 829 65.6666666667 815 49 c 1
 1018 49 l 1
 1018 0 l 1
 747 0 l 1
 747 49 l 1
 762.333333333 67.6666666667 774.5 87.6666666667 783.5 109 c 128
 792.5 130.333333333 797 151.333333333 797 172 c 0
 797 211.333333333 786 244.666666667 764 272 c 128
 742 299.333333333 716 313 686 313 c 0
 661.333333333 313 639.666666667 308.5 621 299.5 c 128
 602.333333333 290.5 589 278.666666667 581 264 c 1
 609 254 631.5 236 648.5 210 c 128
 665.5 184 674 155 674 123 c 0
 674 85 664.333333333 53 645 27 c 128
 625.666666667 1 602.333333333 -12 575 -12 c 256
 547.666666667 -12 524.5 1 505.5 27 c 128
 486.5 53 477 85 477 123 c 0
 477 141 479 158.333333333 483 175 c 128
 487 191.666666667 493.333333333 207 502 221 c 1
 403 221 l 1
 403 135 l 2
 403 94.3333333333 386.166666667 59.6666666667 352.5 31 c 128
 318.833333333 2.33333333333 278.333333333 -12 231 -12 c 0
 177 -12 130.666666667 4.83333333333 92 38.5 c 128
 53.3333333333 72.1666666667 34 112.666666667 34 160 c 1
 34 160 l 1
EndSplineSet
Ligature2: "'psts' Post Base Substitutions lookup 4 subtable" tml_Ka tml_MatraUu
EndChar

StartChar: tml_NgUu
Encoding: 92 -1 87
Width: 1027
Flags: HMW
LayerCount: 2
Back
Fore
SplineSet
92 492 m 1
 535 492 l 1
 535 443 l 1
 363 443 l 1
 363 264 l 1
 374.333333333 278 387.5 288.666666667 402.5 296 c 128
 417.5 303.333333333 433 307 449 307 c 0
 493 307 530.5 292.666666667 561.5 264 c 128
 592.5 235.333333333 608 200.666666667 608 160 c 0
 608 138 603.833333333 117.333333333 595.5 98 c 128
 587.166666667 78.6666666667 575 62.3333333333 559 49 c 1
 744 49 l 1
 744 492 l 1
 805 492 l 1
 805 61 l 1
 815 72.3333333333 827.5 81.3333333333 842.5 88 c 128
 857.5 94.6666666667 873.666666667 98 891 98 c 0
 926.333333333 98 956.666666667 85 982 59 c 128
 1007.33333333 33 1020 1 1020 -37 c 0
 1020 -115 970.333333333 -181.666666667 871 -237 c 128
 771.666666667 -292.333333333 651.333333333 -320 510 -320 c 0
 401.333333333 -320 308.666666667 -304.333333333 232 -273 c 128
 155.333333333 -241.666666667 117 -204 117 -160 c 0
 117 -130 141 -104 189 -82 c 128
 237 -60 295 -49 363 -49 c 0
 417 -49 466.666666667 -54.1666666667 512 -64.5 c 128
 557.333333333 -74.8333333333 597.666666667 -90.3333333333 633 -111 c 1
 615 -166 l 1
 576.333333333 -144 535.666666667 -127.166666667 493 -115.5 c 128
 450.333333333 -103.833333333 407 -98 363 -98 c 0
 312.333333333 -98 268.833333333 -104 232.5 -116 c 128
 196.166666667 -128 178 -142.666666667 178 -160 c 0
 178 -190 210.333333333 -215.833333333 275 -237.5 c 128
 339.666666667 -259.166666667 418 -270 510 -270 c 0
 635.333333333 -270 742.5 -247.333333333 831.5 -202 c 128
 920.5 -156.666666667 965 -101.666666667 965 -37 c 0
 965 -15 957.833333333 3.83333333333 943.5 19.5 c 128
 929.166666667 35.1666666667 911.666666667 43 891 43 c 0
 879 43 865.333333333 38.1666666667 850 28.5 c 128
 834.666666667 18.8333333333 819.666666667 5.33333333333 805 -12 c 1
 805 -172 l 1
 744 -172 l 1
 744 0 l 1
 301 0 l 1
 301 49 l 1
 436 49 l 2
 466 49 492 59.8333333333 514 81.5 c 128
 536 103.166666667 547 129.333333333 547 160 c 0
 547 184 537.333333333 204.333333333 518 221 c 128
 498.666666667 237.666666667 475.666666667 246 449 246 c 0
 435 246 420.333333333 241.666666667 405 233 c 128
 389.666666667 224.333333333 375.666666667 212.333333333 363 197 c 1
 363 98 l 1
 301 98 l 1
 301 443 l 1
 154 443 l 1
 154 0 l 1
 92 0 l 1
 92 492 l 1
 92 492 l 1
EndSplineSet
Ligature2: "'psts' Post Base Substitutions lookup 4 subtable" tml_Nga tml_MatraUu
EndChar

StartChar: tml_CUu
Encoding: 93 -1 88
Width: 980
Flags: HMW
LayerCount: 2
Back
Fore
SplineSet
417 443 m 1
 417 270 l 1
 540 270 l 1
 540 443 l 1
 417 443 l 1
 417 443 l 1
294 160 m 1
 294 126.666666667 307 97.8333333333 333 73.5 c 128
 359 49.1666666667 391 37 429 37 c 0
 459 37 485 46.6666666667 507 66 c 128
 529 85.3333333333 540 108.333333333 540 135 c 2
 540 221 l 1
 355 221 l 2
 337.666666667 221 323.166666667 215.166666667 311.5 203.5 c 128
 299.833333333 191.833333333 294 177.333333333 294 160 c 1
 294 160 l 1
60 98 m 1
 60 188 76 268.166666667 108 338.5 c 128
 140 408.833333333 183.333333333 460 238 492 c 1
 275 455 l 1
 225.666666667 426.333333333 186.833333333 380.166666667 158.5 316.5 c 128
 130.166666667 252.833333333 116 180 116 98 c 0
 116 -6.66666666667 158.5 -96.3333333333 243.5 -171 c 128
 328.5 -245.666666667 431.333333333 -283 552 -283 c 0
 647.333333333 -283 728.5 -254 795.5 -196 c 128
 862.5 -138 896 -68.6666666667 896 12 c 0
 896 42 887.666666667 68 871 90 c 128
 854.333333333 112 834 123 810 123 c 0
 798.666666667 123 786.166666667 117.5 772.5 106.5 c 128
 758.833333333 95.5 746.666666667 80.3333333333 736 61 c 1
 736 0 l 1
 675 0 l 1
 675 221 l 1
 601 221 l 1
 601 135 l 2
 601 94.3333333333 584.166666667 59.6666666667 550.5 31 c 128
 516.833333333 2.33333333333 476.333333333 -12 429 -12 c 0
 375 -12 328.666666667 4.83333333333 290 38.5 c 128
 251.333333333 72.1666666667 232 112.666666667 232 160 c 0
 232 190 244.166666667 215.833333333 268.5 237.5 c 128
 292.833333333 259.166666667 321.666666667 270 355 270 c 1
 355 492 l 1
 773 492 l 1
 773 443 l 1
 601 443 l 1
 601 270 l 1
 847 270 l 1
 847 221 l 1
 736 221 l 1
 736 135 l 1
 746 146.333333333 757.333333333 155.333333333 770 162 c 128
 782.666666667 168.666666667 796 172 810 172 c 0
 850.666666667 172 885.5 156.5 914.5 125.5 c 128
 943.5 94.5 958 56.6666666667 958 12 c 0
 958 -83.3333333333 918.333333333 -164.5 839 -231.5 c 128
 759.666666667 -298.5 664 -332 552 -332 c 0
 416 -332 300 -290 204 -206 c 128
 108 -122 60 -20.6666666667 60 98 c 1
 60 98 l 1
EndSplineSet
Ligature2: "'psts' Post Base Substitutions lookup 4 subtable" tml_Ca tml_MatraUu
EndChar

StartChar: tml_NyUu
Encoding: 94 -1 89
Width: 1353
Flags: HMW
LayerCount: 2
Back
Fore
SplineSet
210 135 m 1
 210 107.666666667 218.5 84.5 235.5 65.5 c 128
 252.5 46.5 272.666666667 37 296 37 c 0
 320 37 340.333333333 46.6666666667 357 66 c 128
 373.666666667 85.3333333333 382 108.333333333 382 135 c 0
 382 162.333333333 373.666666667 185.666666667 357 205 c 128
 340.333333333 224.333333333 320 234 296 234 c 256
 272 234 251.666666667 224.333333333 235 205 c 128
 218.333333333 185.666666667 210 162.333333333 210 135 c 1
 210 135 l 1
50 209 m 1
 50 287 80 353.666666667 140 409 c 128
 200 464.333333333 272.666666667 492 358 492 c 2
 837 492 l 1
 837 443 l 1
 640 443 l 1
 640 270 l 1
 653.333333333 285.333333333 668.666666667 297.5 686 306.5 c 128
 703.333333333 315.5 721 320 739 320 c 0
 786.333333333 320 826.833333333 298.5 860.5 255.5 c 128
 894.166666667 212.5 911 160 911 98 c 0
 911 63.3333333333 909 31.5 905 2.5 c 128
 901 -26.5 894.666666667 -52 886 -74 c 1
 1009 -74 l 1
 1009 492 l 1
 1335 492 l 1
 1335 443 l 1
 1255 443 l 1
 1255 -123 l 1
 1194 -123 l 1
 1194 443 l 1
 1071 443 l 1
 1071 -123 l 1
 868 -123 l 1
 832.666666667 -183.666666667 775 -231.666666667 695 -267 c 128
 615 -302.333333333 523 -320 419 -320 c 0
 310.333333333 -320 217.666666667 -303.166666667 141 -269.5 c 128
 64.3333333333 -235.833333333 26 -195.333333333 26 -148 c 0
 26 -127.333333333 34.3333333333 -109.833333333 51 -95.5 c 128
 67.6666666667 -81.1666666667 88 -74 112 -74 c 2
 825 -74 l 1
 833 -60 839 -38.5 843 -9.5 c 128
 847 19.5 849 55.3333333333 849 98 c 0
 849 145.333333333 838.166666667 185.833333333 816.5 219.5 c 128
 794.833333333 253.166666667 769 270 739 270 c 0
 720.333333333 270 702.166666667 262.833333333 684.5 248.5 c 128
 666.833333333 234.166666667 652 215 640 191 c 1
 640 0 l 1
 579 0 l 1
 579 443 l 1
 358 443 l 2
 288.666666667 443 229.333333333 420.166666667 180 374.5 c 128
 130.666666667 328.833333333 106 273.666666667 106 209 c 0
 106 180.333333333 111.833333333 153.166666667 123.5 127.5 c 128
 135.166666667 101.833333333 151.666666667 79.6666666667 173 61 c 1
 169 68.3333333333 166 78.1666666667 164 90.5 c 128
 162 102.833333333 161 117.666666667 161 135 c 0
 161 175.666666667 174.166666667 210.5 200.5 239.5 c 128
 226.833333333 268.5 258.666666667 283 296 283 c 0
 334 283 366 268.666666667 392 240 c 128
 418 211.333333333 431 176.333333333 431 135 c 0
 431 94.3333333333 418 59.6666666667 392 31 c 128
 366 2.33333333333 334 -12 296 -12 c 0
 228 -12 170 9.5 122 52.5 c 128
 74 95.5 50 147.666666667 50 209 c 1
 50 209 l 1
87 -148 m 1
 87 -181.333333333 119.5 -210 184.5 -234 c 128
 249.5 -258 327.666666667 -270 419 -270 c 0
 511 -270 591 -257 659 -231 c 128
 727 -205 774 -169 800 -123 c 1
 112 -123 l 2
 105.333333333 -123 99.5 -125.5 94.5 -130.5 c 128
 89.5 -135.5 87 -141.333333333 87 -148 c 1
 87 -148 l 1
EndSplineSet
Ligature2: "'psts' Post Base Substitutions lookup 4 subtable" tml_Nya tml_MatraUu
EndChar

StartChar: tml_TtUu
Encoding: 95 -1 90
Width: 778
Flags: HMW
LayerCount: 2
Back
Fore
SplineSet
138 197 m 1
 138 88.3333333333 165 -4.5 219 -81.5 c 128
 273 -158.5 338 -197 414 -197 c 0
 477.333333333 -197 531.166666667 -170.5 575.5 -117.5 c 128
 619.833333333 -64.5 642 -0.666666666667 642 74 c 0
 642 114.666666667 632.333333333 149.333333333 613 178 c 128
 593.666666667 206.666666667 570.333333333 221 543 221 c 0
 529 221 514.5 216.666666667 499.5 208 c 128
 484.5 199.333333333 470.333333333 187.333333333 457 172 c 1
 457 0 l 1
 396 0 l 1
 396 492 l 1
 457 492 l 1
 457 240 l 1
 461 249.333333333 472.166666667 256.666666667 490.5 262 c 128
 508.833333333 267.333333333 530.666666667 270 556 270 c 0
 596.666666667 270 631.333333333 250.833333333 660 212.5 c 128
 688.666666667 174.166666667 703 128 703 74 c 0
 703 -14.6666666667 674.833333333 -90.1666666667 618.5 -152.5 c 128
 562.166666667 -214.833333333 494 -246 414 -246 c 0
 320.666666667 -246 241 -202.666666667 175 -116 c 128
 109 -29.3333333333 76 75 76 197 c 0
 76 346.333333333 116.833333333 473.833333333 198.5 579.5 c 128
 280.166666667 685.166666667 378.666666667 738 494 738 c 0
 568.666666667 738 632.5 717.5 685.5 676.5 c 128
 738.5 635.5 765 586.333333333 765 529 c 0
 765 495.666666667 752.833333333 466.833333333 728.5 442.5 c 128
 704.166666667 418.166666667 675.333333333 406 642 406 c 256
 608.666666667 406 579.833333333 418 555.5 442 c 128
 531.166666667 466 519 495 519 529 c 0
 519 562.333333333 531 591.166666667 555 615.5 c 128
 579 639.833333333 608 652 642 652 c 1
 628 664 608.333333333 673 583 679 c 128
 557.666666667 685 528 688 494 688 c 0
 395.333333333 688 311.333333333 640.166666667 242 544.5 c 128
 172.666666667 448.833333333 138 333 138 197 c 1
 138 197 l 1
568 529 m 1
 568 508.333333333 575.166666667 490.833333333 589.5 476.5 c 128
 603.833333333 462.166666667 621.333333333 455 642 455 c 256
 662.666666667 455 680 462.166666667 694 476.5 c 128
 708 490.833333333 715 508.333333333 715 529 c 256
 715 549.666666667 707.833333333 567 693.5 581 c 128
 679.166666667 595 662 602 642 602 c 0
 621.333333333 602 603.833333333 594.833333333 589.5 580.5 c 128
 575.166666667 566.166666667 568 549 568 529 c 1
 568 529 l 1
EndSplineSet
Ligature2: "'psts' Post Base Substitutions lookup 4 subtable" tml_Tta tml_MatraUu
EndChar

